<svg width="24" height="22" viewBox="0 0 24 22" fill="none" xmlns="http://www.w3.org/2000/svg">
<g clip-path="url(#clip0)">
<path d="M16.775 3.45873L20.5333 7.2082C20.6917 7.36616 20.6917 7.62388 20.5333 7.78184L11.4333 16.8604L7.56667 17.2885C7.05 17.3467 6.6125 16.9103 6.67083 16.3948L7.1 12.5373L16.2 3.45873C16.3583 3.30077 16.6167 3.30077 16.775 3.45873ZM23.525 2.50681L21.4917 0.478274C20.8583 -0.153565 19.8292 -0.153565 19.1917 0.478274L17.7167 1.9498C17.5583 2.10776 17.5583 2.36548 17.7167 2.52344L21.475 6.27291C21.6333 6.43087 21.8917 6.43087 22.05 6.27291L23.525 4.80139C24.1583 4.16539 24.1583 3.13865 23.525 2.50681ZM16 14.3912V18.6229H2.66667V5.32099H12.2417C12.375 5.32099 12.5 5.26695 12.5958 5.1755L14.2625 3.51277C14.5792 3.19685 14.3542 2.66061 13.9083 2.66061H2C0.895833 2.66061 0 3.55434 0 4.6559V19.288C0 20.3895 0.895833 21.2833 2 21.2833H16.6667C17.7708 21.2833 18.6667 20.3895 18.6667 19.288V12.7285C18.6667 12.2837 18.1292 12.0634 17.8125 12.3751L16.1458 14.0379C16.0542 14.1335 16 14.2582 16 14.3912Z" fill="#FF4436"/>
</g>
<defs>
<clipPath id="clip0">
<rect width="24" height="21.283" fill="white"/>
</clipPath>
</defs>
</svg>
