<svg width="54" height="70" viewBox="0 0 54 70" fill="none" xmlns="http://www.w3.org/2000/svg">
<path d="M37.9603 44.4642C37.9603 44.4642 39.3763 48.5762 35.0963 47.8642C35.0963 47.8642 35.5043 51.6082 31.6963 50.7442C31.6963 50.7442 32.4883 53.7843 28.5123 53.2402C28.5123 53.2402 30.0643 50.9442 29.1763 49.2162C29.1763 49.2162 28.3683 47.3362 26.2483 47.8882C26.2483 47.8882 26.2963 44.8962 23.4323 45.8162C23.4323 45.8162 23.6803 43.0082 20.4963 43.6482C20.4963 43.6482 20.5523 40.5762 17.4802 40.7922C17.4802 40.7922 14.9442 40.9682 13.9762 43.2482L13.9362 27.9521H14.0882H21.1203V39.8962C21.1203 39.8962 28.3363 39.5442 27.9283 34.2962L32.9763 34.1922L40.6963 40.8562C40.6963 40.8482 42.1123 44.2482 37.9603 44.4642Z" fill="#FCFCFC"/>
<path d="M20.7682 2.75722C20.5443 2.98924 20.4082 3.30413 20.4082 3.65216C20.4082 4.22392 20.7762 4.71282 21.2882 4.86198L21.1202 18.3192V28.9424H13.9362L13.9602 24.4097L14.0562 2.69921C14.0562 2.69921 13.8402 0.287857 16.6482 0.0144043H21.3522L21.3202 2.41747C21.1042 2.48377 20.9202 2.59978 20.7682 2.75722Z" fill="#FCFCFC"/>
<path d="M40.7919 28.0801V38.6801L33.9839 32.4721L26.6159 32.5761C26.7119 38.3761 22.4799 37.9761 22.4799 37.9761V28.0801H40.7919Z" fill="#FF4436"/>
<path d="M18.7906 46.5989C19.9934 45.3961 20.2062 43.6587 19.2658 42.7183C18.3254 41.7779 16.588 41.9907 15.3852 43.1935C14.1824 44.3963 13.9697 46.1337 14.9101 47.074C15.8504 48.0144 17.5878 47.8017 18.7906 46.5989Z" fill="#FF4436"/>
<path d="M21.5554 49.0298C22.7582 47.827 22.9709 46.0896 22.0306 45.1492C21.0902 44.2088 19.3528 44.4216 18.15 45.6244C16.9472 46.8272 16.7345 48.5646 17.6748 49.5049C18.6152 50.4453 20.3526 50.2326 21.5554 49.0298Z" fill="#FF4436"/>
<path d="M24.3189 51.0647C25.5217 49.8619 25.7344 48.1245 24.7941 47.1841C23.8537 46.2437 22.1163 46.4565 20.9135 47.6593C19.7107 48.8621 19.4979 50.5995 20.4383 51.5399C21.3787 52.4802 23.1161 52.2675 24.3189 51.0647Z" fill="#FF4436"/>
<path d="M27.143 53.2964C28.3458 52.0936 28.5586 50.3562 27.6182 49.4158C26.6778 48.4755 24.9404 48.6882 23.7376 49.891C22.5348 51.0938 22.3221 52.8312 23.2625 53.7715C24.2028 54.7119 25.9402 54.4992 27.143 53.2964Z" fill="#FF4436"/>
<path d="M40.7999 2.60805V22.376V23.784V28.088H22.4799V16.568L22.5759 4.74405H33.2319C33.5679 4.74405 33.8719 4.60805 34.0959 4.38405C34.3199 4.16005 34.4559 3.85605 34.4559 3.52005C34.4559 2.84805 33.9039 2.29605 33.2319 2.29605H22.5919L22.6079 0.00805664H38.1999C38.2079 0.0160566 40.2959 -0.135943 40.7999 2.60805Z" fill="#FF4436"/>
<path d="M17.3839 68.72C17.4559 68.584 17.5359 68.52 17.6159 68.52C17.6959 68.52 17.7679 68.544 17.8239 68.592C17.8959 68.648 17.9679 68.736 18.0319 68.84C17.9359 69.048 17.7999 69.24 17.6239 69.416C17.4719 69.56 17.2719 69.696 17.0159 69.808C16.7599 69.92 16.4399 69.984 16.0559 69.984C15.6879 69.984 15.2959 69.912 14.8879 69.776C14.4799 69.64 14.1039 69.416 13.7599 69.112C13.4159 68.808 13.1359 68.416 12.9199 67.936C12.6959 67.456 12.5839 66.872 12.5839 66.192C12.5839 65.72 12.6399 65.248 12.7599 64.776C12.8719 64.304 13.0239 63.84 13.1999 63.392C13.3759 62.944 13.5679 62.512 13.7839 62.104C13.9919 61.688 14.1999 61.304 14.3919 60.944V60.952C14.6079 60.552 14.7919 60.192 14.9519 59.888C15.1039 59.584 15.1839 59.352 15.1839 59.192C15.1839 59.072 15.1039 59.064 14.9519 59.16C14.7999 59.256 14.5919 59.424 14.3439 59.664C14.0959 59.904 13.8159 60.192 13.5039 60.536C13.1919 60.88 12.8719 61.232 12.5519 61.6C12.2319 61.968 11.9279 62.328 11.6399 62.688C11.3519 63.048 11.1039 63.36 10.8959 63.64L10.7199 63.856L10.7039 63.888C10.5359 64.224 10.3839 64.56 10.2319 64.888C10.0799 65.216 9.95192 65.52 9.83192 65.792C9.71992 66.064 9.62392 66.304 9.55992 66.512C9.49592 66.72 9.46392 66.872 9.46392 66.976C9.46392 67.104 9.47192 67.208 9.47992 67.28C9.49592 67.36 9.51192 67.424 9.52792 67.472C9.54392 67.52 9.56792 67.552 9.59992 67.584C9.62392 67.608 9.64792 67.632 9.67192 67.64C9.72792 67.688 9.76792 67.736 9.79992 67.776C9.83192 67.824 9.84792 67.888 9.84792 67.984C9.84792 68.024 9.80792 68.048 9.71992 68.072C9.63192 68.088 9.52792 68.088 9.39192 68.064C9.25592 68.04 9.11992 68 8.96792 67.936C8.81592 67.872 8.67192 67.784 8.54392 67.656C8.40792 67.536 8.30392 67.376 8.21592 67.192C8.12792 67.008 8.08792 66.784 8.08792 66.52C8.08792 66.272 8.15192 65.936 8.27992 65.536C8.40792 65.128 8.57592 64.688 8.78392 64.208C8.99192 63.728 9.21592 63.224 9.46392 62.704C9.71192 62.184 9.95192 61.68 10.1919 61.192C10.3519 60.856 10.5039 60.528 10.6559 60.224C10.8079 59.92 10.9359 59.64 11.0479 59.392C11.1599 59.144 11.2479 58.928 11.3199 58.752C11.3839 58.576 11.4159 58.448 11.4159 58.376C11.4159 58.336 11.4159 58.312 11.4239 58.304C11.3119 58.312 11.1519 58.4 10.9359 58.568C10.7279 58.736 10.4879 58.96 10.2159 59.232C9.94392 59.504 9.66392 59.816 9.35992 60.16C9.05592 60.504 8.75192 60.864 8.46392 61.216C8.16792 61.576 7.88792 61.92 7.62392 62.256C7.35192 62.592 7.12792 62.88 6.93592 63.136C6.74392 63.528 6.55992 63.912 6.37592 64.288C6.19192 64.664 6.03992 65.024 5.89592 65.352C5.75992 65.688 5.64792 65.992 5.55992 66.264C5.47192 66.536 5.43192 66.76 5.43192 66.928C5.43192 67.136 5.43992 67.288 5.46392 67.368C5.48792 67.448 5.51192 67.512 5.53592 67.56C5.55992 67.608 5.58392 67.656 5.60792 67.704C5.63192 67.752 5.63992 67.816 5.63992 67.896C5.63992 68.032 5.59992 68.128 5.52792 68.192C5.44792 68.256 5.34392 68.288 5.21592 68.288C5.10392 68.288 4.97592 68.248 4.83192 68.176C4.68792 68.096 4.55192 67.984 4.42392 67.832C4.29592 67.68 4.18392 67.48 4.09592 67.24C4.00792 67 3.95992 66.72 3.95992 66.384C3.95992 66.2 4.00792 65.96 4.10392 65.656C4.19992 65.36 4.32792 65.016 4.47992 64.64C4.63192 64.256 4.81592 63.848 5.02392 63.408C5.23192 62.968 5.43992 62.512 5.65592 62.04C5.90392 61.52 6.14392 61.008 6.38392 60.488C6.62392 59.968 6.83192 59.48 7.02392 59.016C7.21592 58.552 7.36792 58.128 7.48792 57.744C7.60792 57.36 7.66392 57.048 7.66392 56.8C7.66392 56.544 7.58392 56.416 7.41592 56.416C7.09592 56.416 6.75992 56.512 6.39992 56.704C6.03992 56.896 5.68792 57.152 5.33592 57.464C4.98392 57.776 4.63992 58.136 4.31992 58.544C3.99192 58.952 3.71192 59.368 3.46392 59.792C3.21592 60.216 3.01592 60.632 2.87192 61.04C2.71992 61.448 2.64792 61.816 2.64792 62.136C2.64792 62.456 2.66392 62.72 2.69592 62.936C2.72792 63.152 2.75992 63.328 2.80792 63.472C2.85592 63.616 2.90392 63.728 2.94392 63.808C2.99192 63.888 3.03192 63.952 3.07192 64C3.10392 64.056 3.13592 64.104 3.16792 64.144C3.19992 64.184 3.21592 64.248 3.21592 64.32C3.21592 64.4 3.17592 64.464 3.08792 64.52C3.00792 64.576 2.88792 64.608 2.74392 64.608C2.59992 64.608 2.42392 64.568 2.21592 64.496C2.00792 64.416 1.80792 64.28 1.61592 64.072C1.42392 63.864 1.26392 63.584 1.12792 63.232C0.991917 62.872 0.927917 62.416 0.927917 61.848C0.927917 61.376 1.01592 60.904 1.19992 60.416C1.38392 59.936 1.63192 59.464 1.95192 59.024C2.27192 58.576 2.64792 58.16 3.07992 57.76C3.51192 57.368 3.98392 57.024 4.47992 56.736C4.97592 56.448 5.50392 56.216 6.05592 56.048C6.60792 55.88 7.15192 55.792 7.70392 55.792C7.95192 55.792 8.15192 55.832 8.32792 55.904C8.49592 55.984 8.63192 56.08 8.74392 56.2C8.84792 56.32 8.92792 56.448 8.98392 56.6C9.03992 56.744 9.07992 56.888 9.09592 57.032C9.11192 57.176 9.12792 57.304 9.12792 57.424C9.12792 57.544 9.13592 57.632 9.13592 57.696C9.13592 57.984 9.07192 58.328 8.93592 58.752C8.79992 59.168 8.62392 59.624 8.41592 60.12C8.73592 59.752 9.05592 59.392 9.39192 59.048C9.71992 58.704 10.0479 58.4 10.3679 58.136C10.6879 57.872 10.9999 57.656 11.2959 57.504C11.5919 57.344 11.8719 57.264 12.1199 57.264C12.4479 57.264 12.7039 57.36 12.8879 57.56C13.0719 57.76 13.1599 58.08 13.1599 58.536C13.1599 58.616 13.1359 58.728 13.0879 58.88C13.0399 59.032 12.9679 59.216 12.8799 59.424C12.7919 59.632 12.6879 59.864 12.5679 60.128C12.4479 60.384 12.3199 60.656 12.1839 60.944C12.4959 60.592 12.8079 60.264 13.1279 59.944C13.4479 59.632 13.7519 59.352 14.0479 59.12C14.3439 58.888 14.6239 58.696 14.8799 58.56C15.1439 58.424 15.3679 58.352 15.5599 58.352C15.7919 58.352 15.9839 58.392 16.1439 58.464C16.2959 58.536 16.4239 58.632 16.5199 58.76C16.6159 58.88 16.6799 59.024 16.7199 59.184C16.7599 59.344 16.7759 59.504 16.7759 59.672C16.7759 59.92 16.6799 60.24 16.4879 60.616C16.2959 60.992 16.0639 61.408 15.7999 61.864C15.6079 62.2 15.4079 62.56 15.2079 62.944C14.9999 63.328 14.8159 63.72 14.6399 64.128C14.4639 64.536 14.3279 64.944 14.2159 65.352C14.1039 65.76 14.0479 66.168 14.0479 66.56C14.0479 67.104 14.1279 67.544 14.2959 67.888C14.4639 68.232 14.6639 68.504 14.8959 68.704C15.1279 68.904 15.3759 69.04 15.6319 69.12C15.8879 69.2 16.1119 69.232 16.2959 69.232C16.6559 69.232 16.9199 69.176 17.0879 69.072C17.2079 68.936 17.3199 68.832 17.3839 68.72Z" fill="#FCFCFC"/>
<path d="M22.2078 63.2323C22.2718 63.1123 22.3518 63.0323 22.4478 63.0003C22.5438 62.9603 22.6238 62.9603 22.6878 62.9923C22.7518 63.0243 22.8078 63.0803 22.8398 63.1683C22.8718 63.2563 22.8638 63.3603 22.8078 63.4883L22.7198 63.6883C22.6318 63.8643 22.5278 64.0883 22.3998 64.3603C22.2718 64.6323 22.1198 64.9123 21.9598 65.2163C21.7918 65.5203 21.6158 65.8163 21.4238 66.1203C21.2318 66.4243 21.0318 66.6963 20.8318 66.9363C20.6238 67.1763 20.4158 67.3763 20.1998 67.5203C19.9838 67.6723 19.7678 67.7443 19.5598 67.7443C19.4238 67.7443 19.2878 67.7043 19.1518 67.6163C19.0158 67.5283 18.9038 67.4163 18.7998 67.2803C18.6958 67.1443 18.6158 67.0003 18.5438 66.8403C18.4798 66.6883 18.4478 66.5363 18.4478 66.4003C18.4478 66.2883 18.4638 66.1443 18.5038 65.9763C18.3278 66.2083 18.1598 66.4323 17.9838 66.6403C17.8078 66.8483 17.6398 67.0403 17.4798 67.2083C17.3198 67.3763 17.1678 67.5043 17.0238 67.6003C16.8798 67.6963 16.7598 67.7443 16.6638 67.7443C16.5118 67.7443 16.3678 67.6963 16.2238 67.6003C16.0878 67.5043 15.9678 67.3843 15.8638 67.2483C15.7598 67.1123 15.6798 66.9603 15.6158 66.8003C15.5518 66.6403 15.5198 66.4963 15.5198 66.3763C15.5198 66.2003 15.5438 66.0083 15.5998 65.8083C15.6558 65.6083 15.7278 65.4003 15.8158 65.1843C15.9038 64.9683 15.9998 64.7523 16.1118 64.5363C16.2158 64.3203 16.3278 64.1043 16.4398 63.8963C16.5358 63.7203 16.6238 63.5523 16.7118 63.3843C16.7998 63.2163 16.8718 63.0563 16.9438 62.9043C17.0078 62.7523 17.0638 62.6083 17.1038 62.4803C17.1438 62.3523 17.1598 62.2403 17.1598 62.1363C17.1598 62.0323 17.2318 61.9763 17.3758 61.9683C17.5198 61.9603 17.6798 62.0003 17.8638 62.0803C18.0398 62.1603 18.2078 62.2723 18.3518 62.4163C18.4958 62.5603 18.5678 62.7363 18.5678 62.9363C18.5678 63.0163 18.5438 63.1283 18.4958 63.2643C18.4478 63.4003 18.3838 63.5603 18.3038 63.7443C18.2238 63.9203 18.1278 64.1123 18.0238 64.3203C17.9198 64.5283 17.8078 64.7363 17.6958 64.9523C17.5598 65.2083 17.4318 65.4643 17.2958 65.7203C17.1598 65.9683 17.0478 66.2003 16.9518 66.3923C16.8558 66.5923 16.7758 66.7523 16.7198 66.8723C16.6638 66.9923 16.6478 67.0563 16.6718 67.0563C16.7118 67.0563 16.7838 67.0003 16.8958 66.8963C17.0078 66.7923 17.1358 66.6483 17.2798 66.4723C17.4238 66.2963 17.5838 66.0963 17.7598 65.8643C17.9358 65.6323 18.1038 65.4003 18.2878 65.1603C18.6958 64.6083 19.1518 63.9763 19.6478 63.2643C19.7758 62.9843 19.8798 62.7443 19.9758 62.5363C20.0718 62.3283 20.1118 62.2003 20.1118 62.1363C20.1118 62.0323 20.1758 61.9843 20.3118 61.9923C20.4478 62.0003 20.5918 62.0483 20.7518 62.1363C20.9118 62.2243 21.0558 62.3363 21.1918 62.4723C21.3278 62.6083 21.3918 62.7523 21.3918 62.8883C21.3918 62.9843 21.3358 63.1443 21.2318 63.3923C21.1198 63.6323 20.9918 63.9123 20.8398 64.2323C20.7278 64.4643 20.6078 64.7043 20.4958 64.9603C20.3758 65.2163 20.2638 65.4563 20.1678 65.6963C20.0718 65.9283 19.9838 66.1523 19.9198 66.3523C19.8558 66.5523 19.8238 66.7123 19.8238 66.8323C19.8238 66.8883 19.8318 66.9123 19.8398 66.9123C19.9518 66.9123 20.0798 66.8483 20.2158 66.7123C20.3518 66.5763 20.4958 66.4083 20.6398 66.2003C20.7918 65.9923 20.9358 65.7603 21.0878 65.5043C21.2398 65.2483 21.3838 64.9843 21.5118 64.7283C21.6478 64.4723 21.7678 64.2243 21.8718 64.0003C21.9758 63.7763 22.0718 63.5843 22.1438 63.4403L22.2318 63.2483V63.2323H22.2078Z" fill="#FCFCFC"/>
<path d="M27.2399 61.104C27.2399 61.16 27.1839 61.232 27.0799 61.336C26.9759 61.44 26.7999 61.536 26.5759 61.632C26.3439 61.728 26.0559 61.816 25.6959 61.888C25.3359 61.96 24.9119 62 24.4239 62C24.3679 62.136 24.3039 62.264 24.2399 62.4C24.1759 62.536 24.1119 62.664 24.0479 62.8C23.8719 63.176 23.6879 63.56 23.5119 63.944C23.3359 64.328 23.1759 64.696 23.0319 65.04C22.8879 65.384 22.7759 65.696 22.6879 65.984C22.5999 66.272 22.5519 66.504 22.5519 66.68C22.5519 66.84 22.5999 66.92 22.7039 66.92C22.8879 66.92 23.0879 66.84 23.3039 66.688C23.5199 66.536 23.7359 66.344 23.9519 66.104C24.1679 65.864 24.3839 65.6 24.5999 65.312C24.8159 65.024 25.0079 64.744 25.1839 64.472C25.3599 64.2 25.5119 63.952 25.6319 63.736C25.7599 63.512 25.8479 63.352 25.9039 63.248C25.9279 63.2 25.9839 63.176 26.0559 63.176C26.1279 63.176 26.1999 63.192 26.2799 63.224C26.3599 63.256 26.4159 63.296 26.4719 63.344C26.5199 63.392 26.5359 63.448 26.5199 63.496C26.4559 63.632 26.3519 63.824 26.2079 64.088C26.0639 64.352 25.8879 64.64 25.6879 64.96C25.4799 65.28 25.2559 65.6 24.9999 65.928C24.7519 66.256 24.4799 66.552 24.2079 66.824C23.9279 67.096 23.6399 67.32 23.3519 67.488C23.0559 67.664 22.7679 67.744 22.4719 67.744C22.3519 67.744 22.2159 67.712 22.0559 67.64C21.9039 67.568 21.7519 67.472 21.6159 67.336C21.4799 67.2 21.3599 67.04 21.2719 66.848C21.1759 66.656 21.1359 66.432 21.1359 66.184C21.1359 66.04 21.1759 65.832 21.2639 65.56C21.3519 65.288 21.4639 64.984 21.6079 64.64C21.7519 64.296 21.9119 63.928 22.0959 63.536C22.2799 63.144 22.4639 62.744 22.6479 62.352L22.8559 61.904C22.5679 61.856 22.3039 61.8 22.0799 61.728C21.8559 61.656 21.6559 61.584 21.5039 61.512C21.3519 61.44 21.2319 61.368 21.1439 61.296C21.0639 61.224 21.0159 61.168 21.0159 61.136C21.0159 61.04 21.0319 60.976 21.0639 60.936C21.0959 60.896 21.1359 60.864 21.1999 60.856C21.2559 60.848 21.3359 60.848 21.4319 60.872C21.5279 60.888 21.6399 60.912 21.7679 60.944C21.9199 60.976 22.1119 61.016 22.3519 61.056C22.5919 61.096 22.8719 61.136 23.1919 61.168C23.4319 60.648 23.6239 60.192 23.7839 59.792C23.9359 59.392 24.0159 59.112 24.0159 58.9439C24.0159 58.8399 24.0799 58.7919 24.2159 58.8079C24.3519 58.8239 24.4959 58.8719 24.6559 58.96C24.8159 59.048 24.9679 59.16 25.0959 59.296C25.2319 59.432 25.2959 59.576 25.2959 59.712C25.2959 59.864 25.2479 60.072 25.1599 60.336C25.0719 60.6 24.9519 60.896 24.7999 61.232C25.1919 61.216 25.5359 61.184 25.8479 61.136C26.1519 61.08 26.4079 61.032 26.5999 60.976L26.5919 60.984C26.7999 60.928 26.9679 60.912 27.0879 60.92C27.2079 60.928 27.2399 60.984 27.2399 61.104Z" fill="#FCFCFC"/>
<path d="M31.2318 63.2401C31.2558 63.1841 31.3118 63.1521 31.3838 63.1521C31.4638 63.1521 31.5358 63.1681 31.5998 63.2081C31.6718 63.2481 31.7278 63.2961 31.7758 63.3601C31.8238 63.4161 31.8318 63.4801 31.8078 63.5361C31.7598 63.6321 31.6958 63.7521 31.6078 63.9121C31.5198 64.0721 31.4078 64.2481 31.2718 64.4401C31.1358 64.6321 30.9838 64.8321 30.8078 65.0321C30.6318 65.2321 30.4398 65.4241 30.2318 65.6001C30.0238 65.7761 29.7998 65.9281 29.5518 66.0562C29.3038 66.1842 29.0478 66.2722 28.7678 66.3122C28.4718 66.7282 28.1358 67.0722 27.7518 67.3362C27.3758 67.6002 26.9838 67.7362 26.5838 67.7362C26.3678 67.7362 26.1518 67.6962 25.9438 67.6082C25.7358 67.5202 25.5518 67.3922 25.3838 67.2242C25.2238 67.0562 25.0878 66.8482 24.9918 66.5922C24.8958 66.3442 24.8398 66.0482 24.8398 65.7121C24.8398 65.3921 24.9038 65.0721 25.0238 64.7361C25.1438 64.4001 25.2878 64.0961 25.4478 63.8161C25.6078 63.5361 25.7758 63.3121 25.9438 63.1281C26.1118 62.9521 26.2398 62.8561 26.3358 62.8561C26.3998 62.8561 26.4718 62.8641 26.5518 62.8721C26.6318 62.8881 26.7038 62.9041 26.7838 62.9201C26.9038 62.7601 27.0318 62.6161 27.1678 62.4721C27.3038 62.3361 27.4478 62.2161 27.6078 62.1121C27.7598 62.0081 27.9278 61.9281 28.0878 61.8641C28.2558 61.8001 28.4238 61.7681 28.5918 61.7681C28.8398 61.7681 29.0478 61.8001 29.2158 61.8561C29.3758 61.9121 29.5038 61.9921 29.5998 62.0961C29.6958 62.2001 29.7598 62.3201 29.7998 62.4641C29.8398 62.6081 29.8558 62.7601 29.8558 62.9281C29.8558 63.7921 29.6638 64.6241 29.2718 65.4241C29.5118 65.2881 29.7358 65.1201 29.9518 64.9201C30.1678 64.7121 30.3598 64.5041 30.5358 64.2961C30.7118 64.0881 30.8558 63.8801 30.9758 63.6881C31.0958 63.4881 31.1758 63.3441 31.2318 63.2401ZM26.6158 66.9682C26.8478 66.9682 27.0638 66.9042 27.2638 66.7842C27.4638 66.6642 27.6558 66.4962 27.8318 66.2802C27.5838 66.2162 27.3438 66.1122 27.1198 65.9761C26.8958 65.8401 26.7038 65.6801 26.5518 65.5041C26.4638 65.7121 26.3918 65.9041 26.3358 66.0962C26.2798 66.2882 26.2478 66.4562 26.2478 66.6002C26.2478 66.7122 26.2718 66.8002 26.3278 66.8642C26.3918 66.9362 26.4798 66.9682 26.6158 66.9682ZM27.7678 65.0881C27.7678 65.2401 27.8078 65.3681 27.8798 65.4721C27.9518 65.5761 28.0878 65.6481 28.2798 65.6721C28.4158 65.4481 28.5278 65.2081 28.6398 64.9681C28.7438 64.7201 28.8318 64.4801 28.9118 64.2481C28.9838 64.0161 29.0398 63.7841 29.0798 63.5761C29.1198 63.3601 29.1358 63.1761 29.1358 63.0161C29.1358 62.7521 29.1038 62.6161 29.0398 62.6161C28.9758 62.6161 28.8718 62.7041 28.7358 62.8721C28.5998 63.0401 28.4558 63.2481 28.3118 63.5041C28.1678 63.7521 28.0478 64.0241 27.9358 64.3121C27.8158 64.5921 27.7678 64.8481 27.7678 65.0881Z" fill="#FCFCFC"/>
<path d="M40.9677 56.968C41.8317 56.968 42.5597 57.048 43.1357 57.208C43.7117 57.368 44.1757 57.568 44.5197 57.792C44.8637 58.016 45.1117 58.256 45.2557 58.504C45.3997 58.752 45.4717 58.968 45.4717 59.144C45.4717 59.32 45.4157 59.472 45.3117 59.6C45.1997 59.736 45.0557 59.8 44.8797 59.8C44.7437 59.8 44.6477 59.784 44.5917 59.744C44.5357 59.704 44.4957 59.656 44.4797 59.6C44.4637 59.544 44.4637 59.472 44.4797 59.408C44.4957 59.336 44.5117 59.264 44.5357 59.192C44.5517 59.136 44.5517 59.104 44.5517 59.096C44.5517 59 44.5037 58.896 44.4157 58.792C44.3197 58.688 44.1917 58.6 44.0237 58.52C43.8557 58.44 43.6477 58.376 43.4157 58.328C43.1757 58.28 42.9117 58.256 42.6077 58.256C41.3837 58.256 40.2397 58.344 39.1757 58.512C38.1117 58.68 37.1277 58.888 36.2237 59.144C35.3197 59.392 34.4957 59.664 33.7597 59.952C33.0237 60.24 32.3677 60.496 31.8077 60.736C31.2877 60.96 30.8397 61.152 30.4397 61.296C30.0477 61.448 29.7197 61.52 29.4717 61.52C29.3197 61.52 29.1677 61.488 29.0237 61.416C28.8797 61.344 28.7437 61.264 28.6317 61.16C28.5197 61.064 28.4237 60.952 28.3517 60.832C28.2797 60.712 28.2397 60.6 28.2397 60.504C28.2397 60.36 28.2957 60.24 28.3997 60.152C28.5037 60.064 28.6717 60.016 28.9037 60.016C28.9997 60.016 29.1997 59.96 29.5197 59.856C29.8397 59.752 30.2237 59.608 30.6797 59.44C31.0957 59.288 31.5597 59.12 32.0717 58.944C32.5837 58.768 33.1277 58.584 33.7037 58.4C34.2797 58.216 34.8797 58.04 35.4957 57.864C36.1117 57.688 36.7357 57.536 37.3597 57.408C37.9837 57.272 38.5997 57.168 39.2077 57.088C39.8237 57.008 40.4077 56.968 40.9677 56.968ZM37.1597 61.512C37.2797 61.512 37.3837 61.536 37.4637 61.584C37.5437 61.632 37.6157 61.688 37.6717 61.76C37.7277 61.832 37.7677 61.912 37.7997 62.008C37.8237 62.104 37.8397 62.192 37.8397 62.288C37.8397 62.456 37.7997 62.6 37.7277 62.72C37.6477 62.84 37.5437 62.904 37.3917 62.904C36.9357 62.904 36.4877 62.928 36.0477 62.984C35.6077 63.04 35.1917 63.104 34.7917 63.184C34.5837 63.552 34.3677 63.968 34.1277 64.416C33.8877 64.864 33.6637 65.296 33.4637 65.72C33.2557 66.136 33.0877 66.512 32.9517 66.848C32.8157 67.184 32.7517 67.424 32.7517 67.568C32.7517 67.848 32.7757 68.08 32.8317 68.264C32.8877 68.456 32.9357 68.6 32.9917 68.712C33.0797 68.92 33.1117 69.072 33.1037 69.16C33.0877 69.248 32.9677 69.288 32.7277 69.288C32.6077 69.288 32.4637 69.24 32.3037 69.136C32.1357 69.04 31.9837 68.896 31.8317 68.72C31.6797 68.544 31.5517 68.328 31.4477 68.08C31.3437 67.832 31.2877 67.56 31.2877 67.264C31.2877 67.144 31.3277 66.96 31.4157 66.696C31.5037 66.44 31.6077 66.144 31.7437 65.824C31.8797 65.496 32.0237 65.16 32.1917 64.808C32.3597 64.456 32.5197 64.128 32.6717 63.816C32.5757 63.848 32.4717 63.888 32.3757 63.928C32.2797 63.968 32.1917 64 32.1197 64.024C31.9917 64.08 31.8957 64.112 31.8237 64.136C31.7517 64.16 31.6877 64.168 31.6317 64.168C31.4797 64.168 31.3757 64.128 31.3277 64.056C31.2797 63.984 31.2557 63.896 31.2557 63.8C31.2557 63.704 31.3117 63.592 31.4157 63.48C31.5277 63.368 31.6717 63.248 31.8637 63.12C32.0557 63 32.2797 62.872 32.5437 62.752C32.8077 62.632 33.0877 62.512 33.3837 62.4C33.4797 62.208 33.5757 62.024 33.6717 61.848C33.7677 61.672 33.8477 61.52 33.9197 61.384V61.392C34.1117 61.032 34.2557 60.76 34.3517 60.576C34.4477 60.384 34.4957 60.256 34.4957 60.184C34.4957 60.056 34.5677 60 34.7117 60.008C34.8557 60.016 35.0157 60.064 35.1917 60.144C35.3677 60.232 35.5277 60.336 35.6717 60.472C35.8157 60.608 35.8877 60.736 35.8877 60.856V60.904C35.8877 60.96 35.8877 61.016 35.8797 61.056C35.8797 61.096 35.8717 61.144 35.8557 61.192C35.8397 61.24 35.8157 61.304 35.7757 61.384C35.7357 61.464 35.6797 61.568 35.6157 61.704C36.1997 61.584 36.7117 61.512 37.1597 61.512Z" fill="#FF4436"/>
<path d="M43.448 63.2401C43.472 63.1841 43.528 63.1521 43.6 63.1521C43.68 63.1521 43.752 63.1681 43.816 63.2081C43.888 63.2481 43.944 63.2961 43.992 63.3601C44.04 63.4161 44.048 63.4801 44.024 63.5361C43.976 63.6321 43.912 63.7521 43.824 63.9121C43.736 64.0721 43.624 64.2481 43.488 64.4401C43.352 64.6321 43.2 64.8321 43.024 65.0321C42.848 65.2321 42.656 65.4241 42.448 65.6001C42.24 65.7761 42.016 65.9281 41.768 66.0562C41.52 66.1842 41.264 66.2722 40.984 66.3122C40.688 66.7282 40.352 67.0722 39.968 67.3362C39.592 67.6002 39.2 67.7362 38.8 67.7362C38.584 67.7362 38.368 67.6962 38.16 67.6082C37.952 67.5202 37.768 67.3922 37.6 67.2242C37.44 67.0562 37.304 66.8482 37.208 66.5922C37.112 66.3442 37.056 66.0482 37.056 65.7121C37.056 65.3921 37.12 65.0721 37.24 64.7361C37.36 64.4001 37.504 64.0961 37.664 63.8161C37.824 63.5361 37.992 63.3121 38.16 63.1281C38.328 62.9521 38.456 62.8561 38.552 62.8561C38.616 62.8561 38.688 62.8641 38.768 62.8721C38.848 62.8881 38.92 62.9041 39 62.9201C39.12 62.7601 39.248 62.6161 39.384 62.4721C39.52 62.3361 39.664 62.2161 39.824 62.1121C39.976 62.0081 40.144 61.9281 40.304 61.8641C40.472 61.8001 40.64 61.7681 40.808 61.7681C41.056 61.7681 41.264 61.8001 41.432 61.8561C41.592 61.9121 41.72 61.9921 41.816 62.0961C41.912 62.2001 41.976 62.3201 42.016 62.4641C42.056 62.6081 42.072 62.7601 42.072 62.9281C42.072 63.7921 41.88 64.6241 41.488 65.4241C41.728 65.2881 41.952 65.1201 42.168 64.9201C42.384 64.7121 42.576 64.5041 42.752 64.2961C42.928 64.0881 43.072 63.8801 43.192 63.6881C43.304 63.4881 43.392 63.3441 43.448 63.2401ZM38.824 66.9682C39.056 66.9682 39.272 66.9042 39.472 66.7842C39.672 66.6642 39.864 66.4962 40.04 66.2802C39.792 66.2162 39.552 66.1122 39.328 65.9761C39.104 65.8401 38.912 65.6801 38.76 65.5041C38.672 65.7121 38.6 65.9041 38.544 66.0962C38.488 66.2882 38.456 66.4562 38.456 66.6002C38.456 66.7122 38.48 66.8002 38.536 66.8642C38.6 66.9362 38.696 66.9682 38.824 66.9682ZM39.976 65.0881C39.976 65.2401 40.016 65.3681 40.088 65.4721C40.16 65.5761 40.296 65.6481 40.488 65.6721C40.624 65.4481 40.736 65.2081 40.848 64.9681C40.952 64.7201 41.04 64.4801 41.12 64.2481C41.192 64.0161 41.248 63.7841 41.288 63.5761C41.328 63.3601 41.344 63.1761 41.344 63.0161C41.344 62.7521 41.312 62.6161 41.248 62.6161C41.184 62.6161 41.08 62.7041 40.944 62.8721C40.808 63.0401 40.664 63.2481 40.52 63.5041C40.376 63.7521 40.256 64.0241 40.144 64.3121C40.032 64.5921 39.976 64.8481 39.976 65.0881Z" fill="#FF4436"/>
<path d="M48.6558 63.2322C48.7198 63.1122 48.7998 63.0322 48.8958 63.0002C48.9918 62.9602 49.0718 62.9602 49.1438 62.9922C49.2158 63.0242 49.2718 63.0802 49.3038 63.1682C49.3358 63.2562 49.3198 63.3602 49.2638 63.4881C49.1998 63.6241 49.1038 63.8161 48.9758 64.0801C48.8478 64.3441 48.7038 64.6321 48.5358 64.9521C48.3678 65.2721 48.1838 65.5921 47.9758 65.9201C47.7678 66.2481 47.5598 66.5441 47.3358 66.8161C47.1118 67.0881 46.8878 67.3121 46.6638 67.4801C46.4318 67.6561 46.2158 67.7361 45.9998 67.7361C45.6718 67.7361 45.4078 67.6161 45.1918 67.3761C44.9838 67.1361 44.8718 66.8081 44.8718 66.4001C44.8718 66.2641 44.9038 66.0881 44.9598 65.8881C45.0158 65.6881 45.0878 65.4641 45.1838 65.2241C45.2798 64.9841 45.3838 64.7361 45.4958 64.4801C45.6078 64.2241 45.7278 63.9681 45.8398 63.7281C45.6238 63.9841 45.3918 64.2641 45.1518 64.5521C44.9118 64.8401 44.6798 65.1281 44.4638 65.4081C44.2478 65.6881 44.0558 65.9521 43.8958 66.2001C43.7278 66.4481 43.6078 66.6561 43.5278 66.8241C43.5198 66.8561 43.5198 66.8881 43.5118 66.9121C43.5118 66.9361 43.5038 66.9601 43.5038 66.9681L43.5198 67.0481C43.5278 67.0641 43.5278 67.0881 43.5278 67.1201C43.5278 67.1441 43.5278 67.1681 43.5358 67.1921V67.1841C43.5518 67.2641 43.5758 67.3361 43.5838 67.4001C43.5998 67.4641 43.5998 67.5281 43.5838 67.5761C43.5678 67.6241 43.5358 67.6641 43.4878 67.6961C43.4318 67.7281 43.3518 67.7441 43.2478 67.7441C43.1198 67.7441 42.9918 67.7121 42.8638 67.6481C42.7278 67.5841 42.6078 67.4961 42.5038 67.3761C42.3918 67.2641 42.3038 67.1201 42.2318 66.9601C42.1598 66.8001 42.1198 66.6241 42.1198 66.4241C42.1198 66.2481 42.1438 66.0561 42.1998 65.8561C42.2558 65.6561 42.3198 65.4481 42.4078 65.2321C42.4958 65.0161 42.5918 64.8001 42.7038 64.5841C42.8158 64.3681 42.9198 64.1441 43.0398 63.9281C43.2238 63.5681 43.3918 63.2242 43.5358 62.9122C43.6798 62.6002 43.7518 62.3442 43.7518 62.1442C43.7518 62.0402 43.8238 61.9842 43.9678 61.9762C44.1118 61.9682 44.2718 62.0082 44.4558 62.0882C44.6318 62.1682 44.7998 62.2802 44.9438 62.4322C45.0878 62.5842 45.1598 62.7522 45.1598 62.9522C45.1598 63.0482 45.1358 63.1602 45.0878 63.2962C45.0398 63.4322 44.9758 63.5922 44.8958 63.7601C45.1038 63.5122 45.3038 63.2802 45.5038 63.0482C45.7038 62.8162 45.8958 62.6082 46.0718 62.4242C46.2478 62.2402 46.3998 62.0962 46.5358 61.9842C46.6718 61.8722 46.7678 61.8162 46.8238 61.8162C46.8398 61.8162 46.8558 61.8162 46.8798 61.8162C46.9038 61.8162 46.9358 61.8242 46.9598 61.8322C47.0398 61.8562 47.1278 61.9042 47.2318 61.9762C47.3278 62.0482 47.4238 62.1282 47.5118 62.2242C47.5998 62.3202 47.6718 62.4242 47.7278 62.5442C47.7838 62.6562 47.8158 62.7762 47.8158 62.8962C47.8158 62.9922 47.7598 63.1522 47.6558 63.4002C47.5438 63.6402 47.4158 63.9201 47.2638 64.2401C47.1518 64.4721 47.0318 64.7121 46.9118 64.9681C46.7918 65.2241 46.6798 65.4641 46.5758 65.7041C46.4798 65.9361 46.3918 66.1601 46.3278 66.3601C46.2638 66.5601 46.2318 66.7201 46.2318 66.8401C46.2318 66.8961 46.2398 66.9201 46.2478 66.9201C46.3438 66.9201 46.4638 66.8481 46.6078 66.7121C46.7518 66.5761 46.8958 66.3921 47.0558 66.1681C47.2158 65.9441 47.3838 65.6961 47.5438 65.4161C47.7118 65.1441 47.8638 64.8721 48.0078 64.6001C48.1518 64.3281 48.2878 64.0721 48.3998 63.8401C48.5118 63.6082 48.5998 63.4162 48.6638 63.2722V63.2322H48.6558Z" fill="#FF4436"/>
<path d="M53.3759 63.2319C53.3999 63.1759 53.4559 63.1519 53.5279 63.1519C53.6079 63.1519 53.6799 63.1679 53.7519 63.1999C53.8239 63.2319 53.8879 63.2719 53.9359 63.3279C53.9839 63.3839 53.9999 63.4319 53.9839 63.4879C53.9199 63.6239 53.8159 63.8159 53.6799 64.0799C53.5439 64.3439 53.3759 64.6319 53.1759 64.9439C52.9759 65.2559 52.7439 65.5839 52.4879 65.9119C52.2319 66.2399 51.9439 66.5439 51.6319 66.8159C51.3199 67.0879 50.9839 67.3119 50.6319 67.4799C50.2719 67.6559 49.9039 67.7359 49.5119 67.7359C49.1839 67.7359 48.8959 67.6639 48.6559 67.5279C48.4159 67.3919 48.2159 67.2159 48.0639 66.9999C47.9039 66.7919 47.7839 66.5599 47.7119 66.3039C47.6319 66.0559 47.5999 65.8079 47.5999 65.5759C47.5999 65.1119 47.7119 64.6559 47.9359 64.1999C48.1599 63.7439 48.4559 63.3439 48.8239 62.9839C49.1919 62.6239 49.6079 62.3359 50.0639 62.1119C50.5199 61.8879 50.9919 61.7759 51.4719 61.7759C51.7839 61.7759 52.0079 61.8479 52.1439 61.9839C52.2799 62.1199 52.3439 62.3119 52.3439 62.5439C52.3439 62.7199 52.2959 62.9119 52.2079 63.1359C52.1199 63.3599 51.9999 63.5839 51.8479 63.8239C51.6959 64.0639 51.5199 64.2959 51.3199 64.5279C51.1199 64.7599 50.9119 64.9679 50.6879 65.1599C50.4639 65.3519 50.2399 65.5119 50.0079 65.6479C49.7759 65.7839 49.5519 65.8719 49.3439 65.9199C49.3199 66.0479 49.3039 66.1679 49.3039 66.2959C49.3039 66.4479 49.3279 66.5759 49.3839 66.6719C49.4399 66.7679 49.5279 66.8159 49.6559 66.8159C49.9439 66.8159 50.2319 66.7439 50.5199 66.5919C50.8079 66.4399 51.0799 66.2559 51.3359 66.0239C51.5919 65.7919 51.8399 65.5359 52.0639 65.2559C52.2959 64.9759 52.4959 64.6959 52.6719 64.4319C52.8479 64.1599 52.9999 63.9199 53.1199 63.7039C53.2319 63.4959 53.3199 63.3359 53.3759 63.2319ZM51.5839 62.4879C51.4239 62.4879 51.2479 62.5679 51.0639 62.7199C50.8719 62.8719 50.6879 63.0799 50.5119 63.3279C50.3279 63.5759 50.1599 63.8559 49.9919 64.1679C49.8319 64.4799 49.6959 64.7839 49.5759 65.0879C49.8159 64.9679 50.0559 64.7999 50.3039 64.5679C50.5519 64.3439 50.7679 64.1039 50.9679 63.8559C51.1679 63.6079 51.3279 63.3599 51.4479 63.1199C51.5679 62.8799 51.6319 62.6879 51.6319 62.5439C51.6319 62.5039 51.6159 62.4879 51.5839 62.4879Z" fill="#FF4436"/>
</svg>
