<svg width="176" height="47" viewBox="0 0 176 47" fill="none" xmlns="http://www.w3.org/2000/svg">
<path d="M54.4976 42.814C54.736 42.3636 55.001 42.1516 55.2659 42.1516C55.5308 42.1516 55.7693 42.2311 55.9547 42.3901C56.1932 42.5755 56.4316 42.867 56.6436 43.2114C56.3256 43.9002 55.8753 44.5361 55.2924 45.1189C54.789 45.5958 54.1267 46.0462 53.2789 46.4171C52.4311 46.788 51.3713 47 50.0996 47C48.8809 47 47.5827 46.7616 46.2315 46.3112C44.8804 45.8608 43.6352 45.1189 42.4959 44.1122C41.3567 43.1054 40.4294 41.8072 39.7141 40.2176C38.9723 38.628 38.6013 36.6939 38.6013 34.4419C38.6013 32.8788 38.7868 31.3157 39.1842 29.7525C39.5551 28.1894 40.0585 26.6528 40.6414 25.1691C41.2242 23.6855 41.8601 22.2548 42.5754 20.9036C43.2642 19.5259 43.9531 18.2542 44.5889 17.062V17.0885C45.3043 15.7638 45.9136 14.5716 46.4435 13.5648C46.9469 12.5581 47.2118 11.7897 47.2118 11.2599C47.2118 10.8625 46.9469 10.836 46.4435 11.1539C45.9401 11.4718 45.2513 12.0282 44.43 12.823C43.6087 13.6178 42.6814 14.5716 41.6481 15.7108C40.6149 16.8501 39.5551 18.0158 38.4954 19.2345C37.4356 20.4532 36.4289 21.6454 35.4751 22.8376C34.5213 24.0299 33.7 25.0631 33.0112 25.9904L32.4283 26.7058L32.3753 26.8117C31.819 27.9245 31.3156 29.0372 30.8122 30.1234C30.3088 31.2097 29.8849 32.2165 29.4875 33.1173C29.1166 34.018 28.7987 34.8129 28.5867 35.5017C28.3748 36.1905 28.2688 36.6939 28.2688 37.0383C28.2688 37.4622 28.2953 37.8067 28.3218 38.0451C28.3748 38.31 28.4278 38.522 28.4808 38.681C28.5337 38.8399 28.6132 38.9459 28.7192 39.0519C28.7987 39.1313 28.8782 39.2108 28.9576 39.2373C29.1431 39.3963 29.2756 39.5552 29.3815 39.6877C29.4875 39.8467 29.5405 40.0586 29.5405 40.3765C29.5405 40.509 29.408 40.5885 29.1166 40.668C28.8252 40.721 28.4807 40.721 28.0304 40.6415C27.58 40.562 27.1296 40.4295 26.6262 40.2176C26.1228 40.0056 25.6459 39.7142 25.222 39.2903C24.7716 38.8929 24.4272 38.363 24.1358 37.7537C23.8443 37.1443 23.7119 36.4025 23.7119 35.5282C23.7119 34.7069 23.9238 33.5941 24.3477 32.2695C24.7716 30.9183 25.328 29.4611 26.0168 27.8715C26.7057 26.2818 27.4475 24.6127 28.2688 22.8906C29.0901 21.1685 29.8849 19.4994 30.6797 17.8833C31.2096 16.7706 31.713 15.6843 32.2164 14.6776C32.7197 13.6708 33.1436 12.7435 33.5146 11.9222C33.8855 11.1009 34.1769 10.3856 34.4153 9.80271C34.6273 9.21984 34.7333 8.79594 34.7333 8.5575C34.7333 8.42503 34.7333 8.34554 34.7598 8.31905C34.3888 8.34554 33.859 8.63697 33.1436 9.19334C32.4548 9.74971 31.66 10.4915 30.7592 11.3923C29.8584 12.2931 28.9311 13.3264 27.9244 14.4656C26.9176 15.6048 25.9109 16.7971 24.9571 17.9628C23.9768 19.155 23.0495 20.2943 22.1752 21.407C21.2745 22.5197 20.5326 23.4735 19.8968 24.3213C19.2609 25.6195 18.6516 26.8912 18.0422 28.1364C17.4329 29.3816 16.9295 30.5739 16.4526 31.6601C16.0022 32.7728 15.6313 33.7796 15.3399 34.6804C15.0484 35.5812 14.916 36.323 14.916 36.8794C14.916 37.5682 14.9425 38.0716 15.0219 38.3365C15.1014 38.6015 15.1809 38.8134 15.2604 38.9724C15.3399 39.1313 15.4193 39.2903 15.4988 39.4493C15.5783 39.6082 15.6048 39.8202 15.6048 40.0851C15.6048 40.5355 15.4723 40.8534 15.2339 41.0654C14.969 41.2773 14.6245 41.3833 14.2006 41.3833C13.8297 41.3833 13.4058 41.2509 12.9289 41.0124C12.452 40.7475 12.0017 40.3766 11.5778 39.8732C11.1539 39.3698 10.7829 38.7074 10.4915 37.9126C10.2001 37.1178 10.0411 36.1905 10.0411 35.0778C10.0411 34.4684 10.2001 33.6736 10.518 32.6669C10.8359 31.6866 11.2598 30.5474 11.7632 29.3021C12.2666 28.0304 12.8759 26.6792 13.5648 25.2221C14.2536 23.7649 14.9425 22.2548 15.6578 20.6917C16.4791 18.9696 17.2739 17.2739 18.0687 15.5519C18.8635 13.8298 19.5524 12.2136 20.1882 10.677C20.8241 9.14036 21.3274 7.73618 21.7249 6.46448C22.1223 5.19278 22.3077 4.15952 22.3077 3.33821C22.3077 2.49041 22.0428 2.06651 21.4864 2.06651C20.4267 2.06651 19.3139 2.38443 18.1217 3.02028C16.9295 3.65614 15.7638 4.50394 14.598 5.5372C13.4323 6.57045 12.2931 7.76268 11.2333 9.11386C10.1471 10.465 9.21981 11.8427 8.39851 13.2469C7.5772 14.6511 6.91486 16.0287 6.43797 17.3799C5.93459 18.7311 5.69615 19.9498 5.69615 21.0096C5.69615 22.0693 5.74914 22.9436 5.85511 23.659C5.96108 24.3743 6.06706 24.9572 6.22602 25.4341C6.38499 25.9109 6.54395 26.2818 6.67642 26.5468C6.83538 26.8117 6.96785 27.0237 7.10031 27.1826C7.20629 27.3681 7.31227 27.5271 7.41824 27.6595C7.52422 27.792 7.5772 28.0039 7.5772 28.2424C7.5772 28.5073 7.44474 28.7193 7.15331 28.9047C6.88837 29.0902 6.49096 29.1962 6.01407 29.1962C5.53719 29.1962 4.95432 29.0637 4.26549 28.8253C3.57665 28.5603 2.91431 28.1099 2.27846 27.4211C1.64261 26.7323 1.11274 25.805 0.662343 24.6392C0.21195 23.447 0 21.9369 0 20.0558C0 18.4927 0.291429 16.9295 0.900785 15.3134C1.51014 13.7238 2.33144 12.1606 3.39119 10.7035C4.45094 9.21983 5.69615 7.84216 7.12681 6.51747C8.55747 5.21927 10.1206 4.08004 11.7632 3.12627C13.4058 2.17249 15.1544 1.40416 16.9825 0.847789C18.8105 0.291419 20.6121 0 22.4402 0C23.2615 0 23.9238 0.132459 24.5067 0.370904C25.0631 0.635842 25.5135 0.953771 25.8844 1.35118C26.2288 1.74858 26.4937 2.17249 26.6792 2.67587C26.8646 3.15276 26.9971 3.62965 27.0501 4.10654C27.1031 4.58343 27.1561 5.00732 27.1561 5.40473C27.1561 5.80213 27.1826 6.09357 27.1826 6.30552C27.1826 7.2593 26.9706 8.39854 26.5202 9.80271C26.0698 11.1804 25.487 12.6905 24.7981 14.3331C25.8579 13.1144 26.9176 11.9222 28.0304 10.783C29.1166 9.64373 30.2028 8.63698 31.2626 7.76268C32.3223 6.88839 33.3556 6.17305 34.3359 5.66966C35.3161 5.13979 36.2434 4.87485 37.0647 4.87485C38.151 4.87485 38.9988 5.19278 39.6081 5.85512C40.2175 6.51747 40.5089 7.57723 40.5089 9.08737C40.5089 9.35231 40.4294 9.72322 40.2705 10.2266C40.1115 10.73 39.8731 11.3393 39.5816 12.0282C39.2902 12.717 38.9458 13.4853 38.5484 14.3596C38.151 15.2074 37.7271 16.1082 37.2767 17.062C38.3099 15.8963 39.3432 14.81 40.4029 13.7503C41.4627 12.717 42.4694 11.7897 43.4497 11.0214C44.43 10.2531 45.3573 9.61724 46.2051 9.16685C47.0793 8.71646 47.8212 8.47802 48.457 8.47802C49.2253 8.47802 49.8612 8.61048 50.3911 8.84892C50.8944 9.08737 51.3183 9.40529 51.6363 9.8292C51.9542 10.2266 52.1661 10.7035 52.2986 11.2334C52.4311 11.7632 52.4841 12.2931 52.4841 12.8495C52.4841 13.6708 52.1661 14.7306 51.5303 15.9758C50.8944 17.221 50.1261 18.5986 49.2518 20.1088C48.616 21.2215 47.9536 22.4137 47.2913 23.6855C46.6025 24.9572 45.9931 26.2553 45.4102 27.6065C44.8274 28.9577 44.377 30.3089 44.0061 31.6601C43.6352 33.0113 43.4497 34.3625 43.4497 35.6607C43.4497 37.4622 43.7146 38.9194 44.271 40.0586C44.8274 41.1979 45.4897 42.0986 46.258 42.761C47.0264 43.4233 47.8477 43.8737 48.6955 44.1387C49.5433 44.4036 50.2851 44.5096 50.8944 44.5096C52.0867 44.5096 52.9609 44.3241 53.5173 43.9797C53.9147 43.5293 54.2856 43.1849 54.4976 42.814Z" fill="#FCFCFC"/>
<path d="M70.473 24.6398C70.6849 24.2424 70.9499 23.9774 71.2678 23.8715C71.5857 23.739 71.8507 23.739 72.0626 23.845C72.2746 23.951 72.46 24.1364 72.566 24.4278C72.672 24.7193 72.6455 25.0637 72.46 25.4876L72.1686 26.1499C71.8772 26.7328 71.5327 27.4746 71.1088 28.3754C70.6849 29.2762 70.1816 30.2035 69.6517 31.2103C69.0953 32.217 68.5125 33.1973 67.8766 34.2041C67.2408 35.2108 66.5784 36.1116 65.9161 36.9064C65.2272 37.7012 64.5384 38.3636 63.8231 38.8405C63.1077 39.3439 62.3924 39.5823 61.7036 39.5823C61.2532 39.5823 60.8028 39.4498 60.3524 39.1584C59.902 38.867 59.5311 38.4961 59.1867 38.0457C58.8423 37.5953 58.5773 37.1184 58.3389 36.5885C58.1269 36.0851 58.021 35.5817 58.021 35.1313C58.021 34.7604 58.0739 34.2835 58.2064 33.7272C57.6235 34.4955 57.0672 35.2373 56.4843 35.9262C55.9014 36.615 55.3451 37.2508 54.8152 37.8072C54.2853 38.3636 53.782 38.7875 53.3051 39.1054C52.8282 39.4233 52.4308 39.5823 52.1128 39.5823C51.6095 39.5823 51.1326 39.4233 50.6557 39.1054C50.2053 38.7875 49.8079 38.3901 49.4635 37.9397C49.1191 37.4893 48.8541 36.9859 48.6422 36.456C48.4302 35.9262 48.3242 35.4493 48.3242 35.0519C48.3242 34.469 48.4037 33.8331 48.5892 33.1708C48.7746 32.5084 49.0131 31.8196 49.3045 31.1043C49.596 30.3889 49.9139 29.6736 50.2848 28.9583C50.6292 28.243 51.0001 27.5276 51.371 26.8388C51.689 26.2559 51.9804 25.6995 52.2718 25.1432C52.5632 24.5868 52.8017 24.0569 53.0401 23.5535C53.2521 23.0502 53.4375 22.5733 53.57 22.1494C53.7025 21.7255 53.7555 21.3546 53.7555 21.0101C53.7555 20.6657 53.9939 20.4803 54.4708 20.4538C54.9477 20.4273 55.4775 20.5597 56.0869 20.8247C56.6698 21.0896 57.2261 21.4605 57.703 21.9374C58.1799 22.4143 58.4184 22.9972 58.4184 23.6595C58.4184 23.9245 58.3389 24.2954 58.1799 24.7458C58.021 25.1962 57.809 25.726 57.5441 26.3354C57.2791 26.9183 56.9612 27.5541 56.6168 28.243C56.2724 28.9318 55.9015 29.6206 55.5305 30.336C55.0801 31.1838 54.6562 32.0316 54.2059 32.8794C53.7555 33.7007 53.3845 34.469 53.0666 35.1049C52.7487 35.7672 52.4838 36.2971 52.2983 36.6945C52.1129 37.0919 52.0599 37.3038 52.1393 37.3038C52.2718 37.3038 52.5103 37.1184 52.8812 36.774C53.2521 36.4295 53.676 35.9527 54.1529 35.3698C54.6298 34.7869 55.1596 34.1246 55.7425 33.3563C56.3254 32.5879 56.8817 31.8196 57.4911 31.0248C58.8423 29.1967 60.3524 27.1037 61.995 24.7458C62.4189 23.8185 62.7633 23.0237 63.0813 22.3348C63.3992 21.646 63.5316 21.2221 63.5316 21.0101C63.5316 20.6657 63.7436 20.5068 64.194 20.5333C64.6444 20.5598 65.1213 20.7187 65.6511 21.0101C66.181 21.3016 66.6579 21.6725 67.1083 22.1229C67.5587 22.5733 67.7706 23.0502 67.7706 23.5006C67.7706 23.8185 67.5852 24.3484 67.2408 25.1697C66.8698 25.9645 66.4459 26.8918 65.9426 27.9515C65.5717 28.7198 65.1743 29.5147 64.8033 30.3625C64.4059 31.2103 64.035 32.0051 63.7171 32.7999C63.3992 33.5682 63.1077 34.31 62.8958 34.9724C62.6838 35.6347 62.5779 36.1646 62.5779 36.562C62.5779 36.7475 62.6044 36.827 62.6309 36.827C63.0018 36.827 63.4257 36.615 63.8761 36.1646C64.3265 35.7142 64.8033 35.1578 65.2802 34.469C65.7836 33.7802 66.2605 33.0118 66.7639 32.164C67.2673 31.3162 67.7441 30.4419 68.168 29.5941C68.6184 28.7463 69.0158 27.925 69.3603 27.1832C69.7047 26.4414 70.0226 25.8055 70.261 25.3286L70.5525 24.6928V24.6398H70.473Z" fill="#FCFCFC"/>
<path d="M87.1379 17.5918C87.1379 17.7772 86.9524 18.0157 86.608 18.3601C86.2636 18.7045 85.6807 19.0225 84.9389 19.3404C84.1706 19.6583 83.2168 19.9497 82.0246 20.1882C80.8324 20.4266 79.4282 20.5591 77.8121 20.5591C77.6267 21.0095 77.4147 21.4334 77.2028 21.8838C76.9908 22.3342 76.7789 22.7581 76.5669 23.2085C75.984 24.4537 75.3747 25.7254 74.7918 26.9971C74.209 28.2688 73.6791 29.4876 73.2022 30.6268C72.7253 31.766 72.3544 32.7993 72.063 33.7531C71.7715 34.7069 71.6126 35.4752 71.6126 36.0581C71.6126 36.5879 71.7715 36.8529 72.116 36.8529C72.7253 36.8529 73.3877 36.5879 74.103 36.0845C74.8183 35.5812 75.5336 34.9453 76.249 34.1505C76.9643 33.3557 77.6796 32.4814 78.395 31.5276C79.1103 30.5738 79.7462 29.6465 80.329 28.7457C80.9119 27.8449 81.4153 27.0236 81.8127 26.3083C82.2366 25.5665 82.528 25.0366 82.7134 24.6921C82.7929 24.5332 82.9784 24.4537 83.2168 24.4537C83.4553 24.4537 83.6937 24.5067 83.9587 24.6127C84.2236 24.7186 84.409 24.8511 84.5945 25.0101C84.7535 25.169 84.8065 25.3545 84.7535 25.5135C84.5415 25.9639 84.1971 26.5997 83.7202 27.474C83.2433 28.3483 82.6605 29.3021 81.9981 30.3619C81.3093 31.4216 80.5675 32.4814 79.7197 33.5676C78.8984 34.6539 77.9976 35.6341 77.0968 36.5349C76.1695 37.4357 75.2157 38.1776 74.262 38.7339C73.2817 39.3168 72.3279 39.5817 71.3476 39.5817C70.9502 39.5817 70.4998 39.4758 69.97 39.2373C69.4666 38.9989 68.9632 38.681 68.5128 38.2306C68.0624 37.7802 67.665 37.2503 67.3736 36.6144C67.0557 35.9786 66.9232 35.2367 66.9232 34.4154C66.9232 33.9385 67.0557 33.2497 67.3471 32.3489C67.6385 31.4481 68.0094 30.4413 68.4863 29.3021C68.9632 28.1629 69.4931 26.9441 70.1024 25.6459C70.7118 24.3477 71.3211 23.023 71.9305 21.7248L72.6193 20.2412C71.6656 20.0822 70.7913 19.8967 70.0494 19.6583C69.3076 19.4199 68.6453 19.1814 68.1419 18.943C67.6385 18.7045 67.2411 18.4661 66.9497 18.2276C66.6847 17.9892 66.5258 17.8037 66.5258 17.6978C66.5258 17.3798 66.5788 17.1679 66.6847 17.0354C66.7907 16.9029 66.9232 16.797 67.1351 16.7705C67.3206 16.744 67.5855 16.744 67.9035 16.8235C68.2214 16.8765 68.5923 16.9559 69.0162 17.0619C69.5196 17.1679 70.1554 17.3004 70.9502 17.4328C71.745 17.5653 72.6723 17.6977 73.7321 17.8037C74.5269 16.0816 75.1627 14.5715 75.6926 13.2468C76.196 11.9221 76.4609 10.9948 76.4609 10.4384C76.4609 10.094 76.6729 9.93503 77.1233 9.98801C77.5737 10.041 78.0506 10.2 78.5804 10.4914C79.1103 10.7828 79.6137 11.1538 80.0376 11.6042C80.488 12.0546 80.6999 12.5314 80.6999 12.9818C80.6999 13.4852 80.541 14.1741 80.2495 15.0484C79.9581 15.9227 79.5607 16.9029 79.0573 18.0157C80.3555 17.9627 81.4947 17.8567 82.528 17.6978C83.5348 17.5123 84.3826 17.3533 85.0184 17.1679L84.9919 17.1944C85.6807 17.0089 86.2371 16.9559 86.6345 16.9824C87.0319 17.0089 87.1379 17.1944 87.1379 17.5918Z" fill="#FCFCFC"/>
<path d="M100.358 24.666C100.437 24.4805 100.623 24.3745 100.861 24.3745C101.126 24.3745 101.365 24.4275 101.577 24.56C101.815 24.6924 102.001 24.8514 102.159 25.0634C102.318 25.2488 102.345 25.4608 102.265 25.6463C102.106 25.9642 101.895 26.3616 101.603 26.8915C101.312 27.4214 100.941 28.0042 100.49 28.6401C100.04 29.276 99.5366 29.9383 98.9537 30.6007C98.3709 31.263 97.735 31.8989 97.0462 32.4818C96.3574 33.0646 95.6155 33.568 94.7942 33.9919C93.9729 34.4158 93.1251 34.7073 92.1978 34.8398C91.2176 36.2175 90.1048 37.3567 88.8331 38.231C87.5879 39.1053 86.2897 39.5557 84.965 39.5557C84.2497 39.5557 83.5344 39.4232 82.8455 39.1318C82.1567 38.8404 81.5473 38.4165 80.991 37.8601C80.4611 37.3037 80.0107 36.6149 79.6928 35.7671C79.3748 34.9457 79.1894 33.9654 79.1894 32.8527C79.1894 31.7929 79.4013 30.7331 79.7987 29.6204C80.1962 28.5076 80.673 27.5008 81.2029 26.5735C81.7328 25.6463 82.2892 24.9044 82.8455 24.295C83.4019 23.7122 83.8258 23.3942 84.1437 23.3942C84.3557 23.3942 84.5941 23.4207 84.8591 23.4472C85.124 23.5002 85.3624 23.5532 85.6274 23.6062C86.0248 23.0763 86.4487 22.5994 86.8991 22.1225C87.3495 21.6721 87.8264 21.2747 88.3562 20.9303C88.8596 20.5859 89.416 20.3209 89.9459 20.1089C90.5022 19.897 91.0586 19.791 91.615 19.791C92.4363 19.791 93.1251 19.897 93.6815 20.0825C94.2114 20.2679 94.6353 20.5329 94.9532 20.8773C95.2711 21.2217 95.4831 21.6191 95.6155 22.096C95.748 22.5729 95.801 23.0763 95.801 23.6327C95.801 26.4941 95.1651 29.2495 93.8669 31.8989C94.6618 31.4485 95.4036 30.8921 96.1189 30.2297C96.8342 29.5409 97.4701 28.8521 98.053 28.1632C98.6358 27.4744 99.1127 26.7855 99.5101 26.1496C99.9075 25.4873 100.172 25.0104 100.358 24.666ZM85.071 37.0123C85.8393 37.0123 86.5547 36.8003 87.217 36.4029C87.8793 36.0055 88.5152 35.4491 89.0981 34.7338C88.2768 34.5218 87.4819 34.1774 86.7401 33.727C85.9983 33.2766 85.3624 32.7467 84.8591 32.1638C84.5676 32.8527 84.3292 33.4885 84.1437 34.1244C83.9583 34.7603 83.8523 35.3166 83.8523 35.7935C83.8523 36.1645 83.9318 36.4559 84.1172 36.6678C84.3292 36.9063 84.6206 37.0123 85.071 37.0123ZM88.8861 30.7861C88.8861 31.2895 89.0186 31.7134 89.257 32.0579C89.4955 32.4023 89.9459 32.6407 90.5817 32.7202C91.0321 31.9784 91.403 31.1835 91.7739 30.3887C92.1184 29.5674 92.4098 28.7726 92.6747 28.0042C92.9132 27.2359 93.0986 26.4676 93.2311 25.7787C93.3636 25.0634 93.4166 24.454 93.4166 23.9241C93.4166 23.0498 93.3106 22.5994 93.0986 22.5994C92.8867 22.5994 92.5423 22.8909 92.0919 23.4472C91.6415 24.0036 91.1646 24.6925 90.6877 25.5403C90.2108 26.3616 89.8134 27.2624 89.4425 28.2162C89.0451 29.1435 88.8861 29.9913 88.8861 30.7861Z" fill="#FCFCFC"/>
<path d="M132.6 3.89502C135.462 3.89502 137.873 4.15996 139.78 4.68983C141.688 5.21971 143.224 5.88206 144.364 6.62389C145.503 7.36571 146.324 8.16052 146.801 8.98182C147.278 9.80313 147.516 10.5185 147.516 11.1013C147.516 11.6842 147.331 12.1876 146.986 12.6115C146.615 13.0619 146.139 13.2738 145.556 13.2738C145.105 13.2738 144.787 13.2208 144.602 13.0884C144.417 12.9559 144.284 12.7969 144.231 12.6115C144.178 12.426 144.178 12.1876 144.231 11.9756C144.284 11.7372 144.337 11.4987 144.417 11.2603C144.47 11.0748 144.47 10.9689 144.47 10.9424C144.47 10.6244 144.311 10.28 144.019 9.93561C143.701 9.59119 143.277 9.29975 142.721 9.03481C142.165 8.76988 141.476 8.55792 140.707 8.39896C139.913 8.23999 139.038 8.16052 138.032 8.16052C133.978 8.16052 130.189 8.45196 126.666 9.00833C123.142 9.56469 119.883 10.2535 116.89 11.1013C113.896 11.9226 111.167 12.8234 108.729 13.7772C106.292 14.731 104.12 15.5788 102.265 16.3736C100.543 17.1154 99.0593 17.7513 97.7346 18.2281C96.4364 18.7315 95.3501 18.97 94.5288 18.97C94.0254 18.97 93.5221 18.864 93.0452 18.6256C92.5683 18.3871 92.1179 18.1222 91.747 17.7778C91.3761 17.4598 91.0581 17.0889 90.8197 16.6915C90.5813 16.2941 90.4488 15.9232 90.4488 15.6053C90.4488 15.1284 90.6342 14.731 90.9787 14.4395C91.3231 14.1481 91.8794 13.9891 92.6478 13.9891C92.9657 13.9891 93.628 13.8037 94.6878 13.4593C95.7475 13.1149 97.0192 12.638 98.5294 12.0816C99.9071 11.5782 101.444 11.0218 103.139 10.439C104.835 9.85612 106.636 9.24676 108.544 8.63741C110.452 8.02805 112.439 7.44519 114.479 6.86232C116.519 6.27946 118.585 5.77608 120.652 5.35218C122.718 4.90178 124.758 4.55736 126.772 4.29243C128.812 4.02749 130.746 3.89502 132.6 3.89502ZM119.989 18.9435C120.387 18.9435 120.731 19.023 120.996 19.1819C121.261 19.3409 121.499 19.5263 121.685 19.7648C121.87 20.0032 122.003 20.2682 122.109 20.5861C122.188 20.904 122.241 21.1954 122.241 21.5134C122.241 22.0697 122.109 22.5466 121.87 22.944C121.605 23.3414 121.261 23.5534 120.758 23.5534C119.247 23.5534 117.764 23.6329 116.307 23.8183C114.85 24.0038 113.472 24.2157 112.147 24.4807C111.458 25.6994 110.743 27.0771 109.948 28.5607C109.153 30.0444 108.412 31.475 107.749 32.8792C107.06 34.2569 106.504 35.5021 106.054 36.6148C105.603 37.7275 105.391 38.5224 105.391 38.9992C105.391 39.9265 105.471 40.6948 105.656 41.3042C105.842 41.94 106.001 42.4169 106.186 42.7879C106.478 43.4767 106.583 43.9801 106.557 44.2715C106.504 44.5629 106.107 44.6954 105.312 44.6954C104.914 44.6954 104.437 44.5364 103.908 44.192C103.351 43.8741 102.848 43.3972 102.344 42.8143C101.841 42.2315 101.417 41.5162 101.073 40.6948C100.728 39.8735 100.543 38.9727 100.543 37.9925C100.543 37.5951 100.675 36.9857 100.967 36.1114C101.258 35.2636 101.603 34.2834 102.053 33.2236C102.503 32.1374 102.98 31.0246 103.537 29.8589C104.093 28.6932 104.623 27.6069 105.126 26.5737C104.808 26.6797 104.464 26.8121 104.146 26.9446C103.828 27.077 103.537 27.183 103.298 27.2625C102.874 27.448 102.556 27.5539 102.318 27.6334C102.08 27.7129 101.868 27.7394 101.682 27.7394C101.179 27.7394 100.834 27.6069 100.675 27.3685C100.516 27.13 100.437 26.8386 100.437 26.5207C100.437 26.2028 100.622 25.8319 100.967 25.4609C101.338 25.09 101.815 24.6926 102.45 24.2687C103.086 23.8713 103.828 23.4474 104.702 23.05C105.577 22.6526 106.504 22.2552 107.484 21.8843C107.802 21.2484 108.12 20.6391 108.438 20.0562C108.756 19.4733 109.021 18.97 109.259 18.5196V18.5461C109.895 17.3539 110.372 16.4531 110.69 15.8437C111.008 15.2079 111.167 14.784 111.167 14.5455C111.167 14.1216 111.405 13.9362 111.882 13.9626C112.359 13.9891 112.889 14.1481 113.472 14.413C114.055 14.7045 114.585 15.0489 115.061 15.4993C115.538 15.9497 115.777 16.3736 115.777 16.771V16.9299C115.777 17.1154 115.777 17.3009 115.75 17.4333C115.75 17.5658 115.724 17.7248 115.671 17.8837C115.618 18.0427 115.538 18.2546 115.406 18.5196C115.273 18.7845 115.088 19.1289 114.876 19.5793C116.81 19.1819 118.506 18.9435 119.989 18.9435Z" fill="#FF4436"/>
<path d="M140.815 24.666C140.894 24.4805 141.079 24.3745 141.318 24.3745C141.583 24.3745 141.821 24.4275 142.033 24.56C142.272 24.6924 142.457 24.8514 142.616 25.0634C142.775 25.2488 142.802 25.4608 142.722 25.6463C142.563 25.9642 142.351 26.3616 142.06 26.8915C141.768 27.4214 141.397 28.0042 140.947 28.6401C140.497 29.276 139.993 29.9383 139.41 30.6007C138.828 31.263 138.192 31.8989 137.503 32.4818C136.814 33.0646 136.072 33.568 135.251 33.9919C134.43 34.4158 133.582 34.7073 132.654 34.8398C131.674 36.2175 130.561 37.3567 129.29 38.231C128.045 39.1053 126.746 39.5557 125.422 39.5557C124.706 39.5557 123.991 39.4232 123.302 39.1318C122.613 38.8404 122.004 38.4165 121.448 37.8601C120.918 37.3037 120.467 36.6149 120.149 35.7671C119.832 34.9457 119.646 33.9654 119.646 32.8527C119.646 31.7929 119.858 30.7331 120.255 29.6204C120.653 28.5076 121.13 27.5008 121.66 26.5735C122.189 25.6463 122.746 24.9044 123.302 24.295C123.859 23.7122 124.282 23.3942 124.6 23.3942C124.812 23.3942 125.051 23.4207 125.316 23.4472C125.581 23.5002 125.819 23.5532 126.084 23.6062C126.481 23.0763 126.905 22.5994 127.356 22.1225C127.806 21.6721 128.283 21.2747 128.813 20.9303C129.316 20.5859 129.873 20.3209 130.403 20.1089C130.959 19.897 131.515 19.791 132.072 19.791C132.893 19.791 133.582 19.897 134.138 20.0825C134.668 20.2679 135.092 20.5329 135.41 20.8773C135.728 21.2217 135.94 21.6191 136.072 22.096C136.205 22.5729 136.258 23.0763 136.258 23.6327C136.258 26.4941 135.622 29.2495 134.324 31.8989C135.118 31.4485 135.86 30.8921 136.576 30.2297C137.291 29.5409 137.927 28.8521 138.51 28.1632C139.092 27.4744 139.569 26.7855 139.967 26.1496C140.338 25.4873 140.629 25.0104 140.815 24.666ZM125.501 37.0123C126.269 37.0123 126.985 36.8003 127.647 36.4029C128.31 36.0055 128.945 35.4491 129.528 34.7338C128.707 34.5218 127.912 34.1774 127.17 33.727C126.428 33.2766 125.793 32.7467 125.289 32.1638C124.998 32.8527 124.759 33.4885 124.574 34.1244C124.388 34.7603 124.282 35.3166 124.282 35.7935C124.282 36.1645 124.362 36.4559 124.547 36.6678C124.759 36.9063 125.077 37.0123 125.501 37.0123ZM129.316 30.7861C129.316 31.2895 129.449 31.7134 129.687 32.0579C129.926 32.4023 130.376 32.6407 131.012 32.7202C131.462 31.9784 131.833 31.1835 132.204 30.3887C132.549 29.5674 132.84 28.7726 133.105 28.0042C133.343 27.2359 133.529 26.4676 133.661 25.7787C133.794 25.0634 133.847 24.454 133.847 23.9241C133.847 23.0498 133.741 22.5994 133.529 22.5994C133.317 22.5994 132.972 22.8909 132.522 23.4472C132.072 24.0036 131.595 24.6925 131.118 25.5403C130.641 26.3616 130.244 27.2624 129.873 28.2162C129.502 29.1435 129.316 29.9913 129.316 30.7861Z" fill="#FF4436"/>
<path d="M158.061 24.6397C158.273 24.2423 158.538 23.9773 158.856 23.8714C159.174 23.7389 159.439 23.7389 159.677 23.8449C159.916 23.9508 160.101 24.1363 160.207 24.4277C160.313 24.7192 160.26 25.0636 160.075 25.4875C159.863 25.9379 159.545 26.5737 159.121 27.448C158.697 28.3223 158.22 29.2761 157.664 30.3358C157.107 31.3955 156.498 32.4553 155.809 33.5415C155.12 34.6278 154.431 35.608 153.69 36.5088C152.948 37.4096 152.206 38.1514 151.464 38.7078C150.696 39.2906 149.98 39.5556 149.265 39.5556C148.179 39.5556 147.305 39.1582 146.589 38.3633C145.9 37.5685 145.53 36.4823 145.53 35.1311C145.53 34.6807 145.635 34.0979 145.821 33.4355C146.006 32.7732 146.245 32.0314 146.563 31.2366C146.881 30.4418 147.225 29.6205 147.596 28.7727C147.967 27.9249 148.364 27.0771 148.735 26.2823C148.02 27.1301 147.252 28.0574 146.457 29.0111C145.662 29.9649 144.894 30.9186 144.178 31.8459C143.463 32.7732 142.827 33.6475 142.297 34.4688C141.741 35.2901 141.344 35.9789 141.079 36.5353C141.052 36.6413 141.052 36.7472 141.026 36.8267C141.026 36.9062 140.999 36.9857 140.999 37.0122L141.052 37.2771C141.079 37.3301 141.079 37.4096 141.079 37.5156C141.079 37.595 141.079 37.6745 141.105 37.754V37.7275C141.158 37.9924 141.238 38.2309 141.264 38.4428C141.317 38.6548 141.317 38.8667 141.264 39.0257C141.211 39.1846 141.105 39.3171 140.946 39.4231C140.761 39.5291 140.496 39.582 140.151 39.582C139.727 39.582 139.303 39.4761 138.88 39.2641C138.429 39.0522 138.032 38.7608 137.687 38.3633C137.316 37.9924 137.025 37.5156 136.787 36.9857C136.548 36.4558 136.416 35.8729 136.416 35.2106C136.416 34.6277 136.495 33.9919 136.681 33.3296C136.866 32.6672 137.078 31.9784 137.369 31.2631C137.661 30.5477 137.979 29.8324 138.35 29.1171C138.721 28.4018 139.065 27.6599 139.462 26.9446C140.072 25.7524 140.628 24.6132 141.105 23.5799C141.582 22.5467 141.82 21.6989 141.82 21.0365C141.82 20.6921 142.059 20.5067 142.536 20.4802C143.013 20.4537 143.542 20.5862 144.152 20.8511C144.735 21.116 145.291 21.4869 145.768 21.9903C146.245 22.4937 146.483 23.0501 146.483 23.7124C146.483 24.0303 146.404 24.4012 146.245 24.8516C146.086 25.302 145.874 25.8319 145.609 26.3883C146.298 25.567 146.96 24.7986 147.623 24.0303C148.285 23.262 148.921 22.5732 149.504 21.9638C150.086 21.3545 150.59 20.8776 151.04 20.5067C151.491 20.1358 151.809 19.9503 151.994 19.9503C152.047 19.9503 152.1 19.9503 152.179 19.9503C152.259 19.9503 152.365 19.9768 152.444 20.0033C152.709 20.0828 153.001 20.2417 153.345 20.4802C153.663 20.7186 153.981 20.9836 154.272 21.3015C154.564 21.6194 154.802 21.9638 154.988 22.3612C155.173 22.7321 155.279 23.1295 155.279 23.5269C155.279 23.8449 155.094 24.3747 154.749 25.196C154.378 25.9908 153.955 26.9181 153.451 27.9779C153.08 28.7462 152.683 29.541 152.285 30.3888C151.888 31.2366 151.517 32.0314 151.173 32.8262C150.855 33.5945 150.563 34.3363 150.351 34.9987C150.139 35.661 150.033 36.1909 150.033 36.5883C150.033 36.7737 150.06 36.8532 150.086 36.8532C150.404 36.8532 150.802 36.6148 151.279 36.1644C151.756 35.714 152.232 35.1046 152.762 34.3628C153.292 33.621 153.849 32.7997 154.378 31.8724C154.935 30.9716 155.438 30.0709 155.915 29.1701C156.392 28.2693 156.842 27.4215 157.213 26.6532C157.584 25.8849 157.876 25.249 158.088 24.7722V24.6397H158.061Z" fill="#FF4436"/>
<path d="M173.693 24.6393C173.772 24.4538 173.958 24.3743 174.196 24.3743C174.461 24.3743 174.7 24.4273 174.938 24.5333C175.177 24.6393 175.388 24.7717 175.547 24.9572C175.706 25.1426 175.759 25.3016 175.706 25.4871C175.494 25.9375 175.15 26.5733 174.7 27.4476C174.249 28.3219 173.693 29.2757 173.031 30.3089C172.368 31.3422 171.6 32.4285 170.752 33.5147C169.904 34.601 168.95 35.6077 167.917 36.5085C166.884 37.4093 165.771 38.1511 164.606 38.7075C163.413 39.2904 162.195 39.5553 160.896 39.5553C159.81 39.5553 158.856 39.3169 158.062 38.8665C157.267 38.4161 156.604 37.8332 156.101 37.1179C155.571 36.429 155.174 35.6607 154.935 34.8129C154.67 33.9916 154.564 33.1703 154.564 32.402C154.564 30.8653 154.935 29.3552 155.677 27.845C156.419 26.3349 157.399 25.0102 158.618 23.8179C159.837 22.6257 161.214 21.672 162.724 20.9301C164.235 20.1883 165.798 19.8174 167.387 19.8174C168.421 19.8174 169.162 20.0558 169.613 20.5062C170.063 20.9566 170.275 21.5925 170.275 22.3608C170.275 22.9437 170.116 23.5795 169.825 24.3213C169.533 25.0632 169.136 25.805 168.633 26.5998C168.129 27.3946 167.546 28.1629 166.884 28.9313C166.222 29.6996 165.533 30.3884 164.791 31.0243C164.049 31.6601 163.307 32.19 162.539 32.6404C161.771 33.0908 161.029 33.3822 160.34 33.5412C160.261 33.9651 160.208 34.3625 160.208 34.7864C160.208 35.2898 160.287 35.7137 160.472 36.0316C160.658 36.3496 160.949 36.5085 161.373 36.5085C162.327 36.5085 163.281 36.2701 164.235 35.7667C165.188 35.2633 166.089 34.6539 166.937 33.8856C167.785 33.1173 168.606 32.2695 169.348 31.3422C170.116 30.4149 170.779 29.4876 171.361 28.6133C171.944 27.7126 172.448 26.9177 172.845 26.2024C173.216 25.5136 173.507 24.9837 173.693 24.6393ZM167.758 22.1753C167.228 22.1753 166.646 22.4403 166.036 22.9437C165.4 23.447 164.791 24.1359 164.208 24.9572C163.599 25.7785 163.042 26.7058 162.486 27.739C161.956 28.7723 161.506 29.7791 161.108 30.7858C161.903 30.3884 162.698 29.8321 163.519 29.0637C164.341 28.3219 165.056 27.5271 165.718 26.7058C166.381 25.8845 166.91 25.0632 167.308 24.2683C167.705 23.4735 167.917 22.8377 167.917 22.3608C167.917 22.2283 167.864 22.1753 167.758 22.1753Z" fill="#FF4436"/>
</svg>
