<svg width="80" height="15" viewBox="0 0 80 15" fill="none" xmlns="http://www.w3.org/2000/svg">
<g clip-path="url(#clip0)">
<path d="M7.20268 0.49134L5.38879 4.14524L1.33046 4.73306C0.602682 4.83793 0.311016 5.72933 0.838794 6.23988L3.77491 9.08241L3.08046 13.0978C2.95546 13.8236 3.72491 14.3673 4.36935 14.0279L7.99991 12.1319L11.6305 14.0279C12.2749 14.3646 13.0444 13.8236 12.9194 13.0978L12.2249 9.08241L15.161 6.23988C15.6888 5.72933 15.3971 4.83793 14.6694 4.73306L10.611 4.14524L8.79713 0.49134C8.47213 -0.159959 7.53046 -0.168238 7.20268 0.49134Z" fill="#FF4436"/>
</g>
<g clip-path="url(#clip1)">
<path d="M23.2027 0.49134L21.3888 4.14524L17.3305 4.73306C16.6027 4.83793 16.311 5.72933 16.8388 6.23988L19.7749 9.08241L19.0805 13.0978C18.9555 13.8236 19.7249 14.3673 20.3693 14.0279L23.9999 12.1319L27.6305 14.0279C28.2749 14.3646 29.0444 13.8236 28.9194 13.0978L28.2249 9.08241L31.161 6.23988C31.6888 5.72933 31.3971 4.83793 30.6694 4.73306L26.611 4.14524L24.7971 0.49134C24.4721 -0.159959 23.5305 -0.168238 23.2027 0.49134Z" fill="#FF4436"/>
</g>
<g clip-path="url(#clip2)">
<path d="M39.2027 0.49134L37.3888 4.14524L33.3305 4.73306C32.6027 4.83793 32.311 5.72933 32.8388 6.23988L35.7749 9.08241L35.0805 13.0978C34.9555 13.8236 35.7249 14.3673 36.3693 14.0279L39.9999 12.1319L43.6305 14.0279C44.2749 14.3646 45.0444 13.8236 44.9194 13.0978L44.2249 9.08241L47.161 6.23988C47.6888 5.72933 47.3971 4.83793 46.6694 4.73306L42.611 4.14524L40.7971 0.49134C40.4721 -0.159959 39.5305 -0.168238 39.2027 0.49134Z" fill="#FF4436"/>
</g>
<g clip-path="url(#clip3)">
<path d="M55.2027 0.49134L53.3888 4.14524L49.3305 4.73306C48.6027 4.83793 48.311 5.72933 48.8388 6.23988L51.7749 9.08241L51.0805 13.0978C50.9555 13.8236 51.7249 14.3673 52.3693 14.0279L55.9999 12.1319L59.6305 14.0279C60.2749 14.3646 61.0444 13.8236 60.9194 13.0978L60.2249 9.08241L63.161 6.23988C63.6888 5.72933 63.3971 4.83793 62.6694 4.73306L58.611 4.14524L56.7971 0.49134C56.4721 -0.159959 55.5305 -0.168238 55.2027 0.49134Z" fill="#FF4436"/>
</g>
<g clip-path="url(#clip4)">
<path d="M71.2027 0.49134L69.3888 4.14524L65.3305 4.73306C64.6027 4.83793 64.311 5.72933 64.8388 6.23988L67.7749 9.08241L67.0805 13.0978C66.9555 13.8236 67.7249 14.3673 68.3693 14.0279L71.9999 12.1319L75.6305 14.0279C76.2749 14.3646 77.0444 13.8236 76.9194 13.0978L76.2249 9.08241L79.161 6.23988C79.6888 5.72933 79.3971 4.83793 78.6694 4.73306L74.611 4.14524L72.7971 0.49134C72.4721 -0.159959 71.5305 -0.168238 71.2027 0.49134Z" fill="#FF4436"/>
</g>
<defs>
<clipPath id="clip0">
<rect width="16" height="14.1299" fill="white"/>
</clipPath>
<clipPath id="clip1">
<rect width="16" height="14.1299" fill="white" transform="translate(16)"/>
</clipPath>
<clipPath id="clip2">
<rect width="16" height="14.1299" fill="white" transform="translate(32)"/>
</clipPath>
<clipPath id="clip3">
<rect width="16" height="14.1299" fill="white" transform="translate(48)"/>
</clipPath>
<clipPath id="clip4">
<rect width="16" height="14.1299" fill="white" transform="translate(64)"/>
</clipPath>
</defs>
</svg>
