<svg width="16" height="13" viewBox="0 0 16 13" fill="none" xmlns="http://www.w3.org/2000/svg">
<path d="M14.0758 2.16103H11.7626V1.92339C11.7626 0.861677 10.9009 0 9.83918 0H6.16039C5.09825 0 4.237 0.861677 4.237 1.92339V2.16103H1.92339C0.861249 2.16103 0 3.02228 0 4.08442V11.0659C0 12.1276 0.861249 12.9893 1.92339 12.9893H14.0766C15.1388 12.9893 16 12.1276 16 11.0659V4.08442C15.9991 3.02185 15.1379 2.16103 14.0758 2.16103ZM7.99915 10.9941C5.99541 10.9941 4.36608 9.36475 4.36608 7.36101C4.36608 5.3577 5.99541 3.72795 7.99915 3.72795C10.0029 3.72795 11.6322 5.35727 11.6322 7.36101C11.6322 9.36475 10.0025 10.9941 7.99915 10.9941ZM9.92253 7.36101C9.92253 8.42058 9.05914 9.28439 7.99915 9.28439C6.93915 9.28439 6.07576 8.42058 6.07576 7.36101C6.07576 6.30101 6.93915 5.43762 7.99915 5.43762C9.05914 5.43762 9.92253 6.30101 9.92253 7.36101Z" fill="#BFBFBF"/>
</svg>
