<svg width="24" height="21" viewBox="0 0 24 21" fill="none" xmlns="http://www.w3.org/2000/svg">
<path fill-rule="evenodd" clip-rule="evenodd" d="M8.65983 2.82211C9.04814 2.82211 9.36296 2.5073 9.36296 2.11898V0.703125C9.36296 0.314813 9.04814 0 8.65983 0C8.27152 0 7.95671 0.314813 7.95671 0.703125V2.11898C7.95671 2.5073 8.27152 2.82211 8.65983 2.82211ZM2.28099 5.39587L1.05478 4.68792C0.718457 4.49367 0.288425 4.60898 0.094316 4.94527C-0.0998402 5.28159 0.0153785 5.71162 0.35166 5.90573L1.57786 6.61369C1.91339 6.80747 2.34375 6.69342 2.53833 6.35634C2.73249 6.02002 2.61727 5.58998 2.28099 5.39587ZM0.351662 13.8754L1.57786 13.1675C1.91424 12.9732 2.34418 13.0886 2.53829 13.4249C2.73244 13.7612 2.61722 14.1912 2.28094 14.3853C1.86151 14.6162 1.58121 14.7843 1.37977 14.9052C1.01547 15.1237 0.909043 15.1876 0.703881 15.1876C-0.0141504 15.1876 -0.268963 14.2337 0.351662 13.8754ZM15.7418 6.61369L16.968 5.90573C17.3042 5.71158 17.4195 5.28159 17.2253 4.94527C17.0311 4.60898 16.6012 4.49367 16.2648 4.68792L15.0386 5.39587C14.7023 5.59003 14.5871 6.02002 14.7813 6.35634C14.9764 6.69431 15.4071 6.807 15.7418 6.61369ZM12.9394 6.24455C10.064 6.6217 7.76053 8.8117 7.23868 11.6708C6.14949 12.0442 5.20032 12.7724 4.55002 13.7267C3.61069 12.7211 3.03483 11.3719 3.03483 9.89058C3.03483 6.78896 5.55816 4.26558 8.65979 4.26558C10.3716 4.26558 11.9069 5.03438 12.9394 6.24455Z" fill="#FAAD21"/>
<path d="M18.6987 10.8888C17.9025 8.92119 15.9728 7.59369 13.8094 7.59369C10.9087 7.59369 8.56728 9.93116 8.53662 12.8135C6.53951 13.0326 5.02039 14.745 5.02039 16.7541C5.02039 18.9402 6.79887 20.7186 8.98489 20.7186C20.0479 20.7071 19.4426 20.747 19.6353 20.6871C22.0928 20.41 24 18.3257 24 15.7969C24 12.909 21.5324 10.6668 18.6987 10.8888Z" fill="#BFBFBF"/>
</svg>
