<svg width="19" height="16" viewBox="0 0 19 16" fill="none" xmlns="http://www.w3.org/2000/svg">
<path fill-rule="evenodd" clip-rule="evenodd" d="M18.2246 1.84616H1.16601C0.737997 1.84616 0.390625 1.43262 0.390625 0.923081C0.390625 0.413539 0.737997 0 1.16601 0H18.2246C18.6526 0 18.9999 0.413539 18.9999 0.923081C18.9999 1.43262 18.6526 1.84616 18.2246 1.84616ZM18.2246 8.92319H1.16601C0.737997 8.92319 0.390625 8.50966 0.390625 8.00011C0.390625 7.49057 0.737997 7.07703 1.16601 7.07703H18.2246C18.6526 7.07703 18.9999 7.49057 18.9999 8.00011C18.9999 8.50966 18.6526 8.92319 18.2246 8.92319ZM1.16601 16H18.2246C18.6526 16 18.9999 15.5865 18.9999 15.0769C18.9999 14.5674 18.6526 14.1538 18.2246 14.1538H1.16601C0.737997 14.1538 0.390625 14.5674 0.390625 15.0769C0.390625 15.5865 0.737997 16 1.16601 16Z" fill="#121212"/>
</svg>
