<svg width="15" height="11" viewBox="0 0 15 11" fill="none" xmlns="http://www.w3.org/2000/svg">
<path fill-rule="evenodd" clip-rule="evenodd" d="M3.75397 0H13.1257C13.6433 0 14.0628 0.419589 14.0628 0.937171C14.0628 1.45475 13.6433 1.87434 13.1257 1.87434H3.75397C3.23638 1.87434 2.8168 1.45475 2.8168 0.937171C2.8168 0.419589 3.23638 0 3.75397 0ZM1.60312 0.276471C1.7791 0.451429 1.87853 0.689031 1.87958 0.937176C1.88658 0.997887 1.88658 1.05921 1.87958 1.11992C1.86277 1.18169 1.8392 1.24141 1.8093 1.29799C1.78414 1.35348 1.75435 1.40679 1.72026 1.45731C1.68661 1.50985 1.64734 1.55855 1.60312 1.60257C1.4274 1.77685 1.18988 1.87455 0.942412 1.87435C0.881701 1.88114 0.820375 1.88114 0.759664 1.87435C0.691192 1.85994 0.624975 1.83627 0.562858 1.80406C0.506394 1.78086 0.452887 1.75096 0.403539 1.71503C0.352727 1.68275 0.305605 1.64503 0.262964 1.60257C0.218741 1.55855 0.179468 1.50985 0.145818 1.45731C0.111728 1.40679 0.0819435 1.35348 0.0567864 1.29799C0.0331228 1.2407 0.0158437 1.18099 0.00524199 1.11992C-0.0017575 1.05921 -0.0017575 0.997887 0.00524199 0.937176C0.00626702 0.689031 0.105695 0.451429 0.281707 0.276471C0.647233 -0.0868876 1.23759 -0.0868876 1.60312 0.276471ZM1.87961 5.15444C1.88658 5.09373 1.88658 5.0324 1.87961 4.97169C1.86342 4.91121 1.83981 4.85299 1.80933 4.79832C1.78519 4.74083 1.75535 4.68589 1.72029 4.63431C1.68782 4.58236 1.6484 4.53506 1.60315 4.49374C1.23762 4.13038 0.647263 4.13038 0.281737 4.49374C0.105725 4.66869 0.00629694 4.9063 0.00527191 5.15444C0.00708768 5.27794 0.0308977 5.40009 0.0755597 5.51525C0.0990475 5.57068 0.12728 5.62399 0.159905 5.67456C0.195547 5.72549 0.236372 5.77261 0.281737 5.81514C0.323148 5.8603 0.370417 5.89972 0.422313 5.93228C0.471661 5.96825 0.525138 5.99815 0.581632 6.02131C0.63877 6.04536 0.698544 6.06267 0.759694 6.07286C0.819644 6.0863 0.880999 6.0926 0.942442 6.0916C1.00315 6.0986 1.06448 6.0986 1.12519 6.0916C1.18482 6.08138 1.24304 6.06407 1.29857 6.04006C1.35658 6.01704 1.41164 5.98714 1.46257 5.95103C1.51447 5.91846 1.56174 5.87904 1.60315 5.83388C1.64831 5.79247 1.68773 5.7452 1.72029 5.69331C1.75632 5.64399 1.78622 5.59051 1.80933 5.53399C1.84134 5.47178 1.86497 5.4056 1.87961 5.33718C1.88682 5.27647 1.88682 5.21515 1.87961 5.15444ZM1.87961 9.18895C1.88655 9.24966 1.88655 9.31099 1.87961 9.3717C1.88681 9.43241 1.88681 9.49374 1.87961 9.55445C1.86494 9.62286 1.8413 9.68902 1.80932 9.75125C1.78624 9.80778 1.75634 9.86128 1.72029 9.91057C1.68772 9.96247 1.6483 10.0097 1.60314 10.0511C1.56173 10.0963 1.51446 10.1357 1.46257 10.1683C1.41164 10.2044 1.35658 10.2343 1.29856 10.2573C1.24304 10.2813 1.18481 10.2986 1.12519 10.3089C1.06448 10.3159 1.00315 10.3159 0.942439 10.3089C0.880996 10.3099 0.81964 10.3036 0.759691 10.2901C0.69854 10.2799 0.638766 10.2626 0.581628 10.2386C0.525134 10.2154 0.471657 10.1855 0.422309 10.1496C0.370413 10.117 0.323145 10.0776 0.281734 10.0324C0.105751 9.85745 0.00632264 9.61985 0.00526832 9.3717C0.00453616 9.31026 0.0108035 9.24896 0.0240117 9.18895C0.0339399 9.12774 0.0512483 9.06794 0.0755561 9.01089C0.100713 8.95539 0.130498 8.90209 0.164587 8.85157C0.197154 8.79967 0.236574 8.75241 0.281734 8.711C0.647259 8.34764 1.23762 8.34764 1.60314 8.711C1.6483 8.75241 1.68772 8.79967 1.72029 8.85157C1.75438 8.90209 1.78416 8.95539 1.80932 9.01089C1.83981 9.06721 1.86341 9.12698 1.87961 9.18895ZM14.0628 4.21727H3.75397C3.23638 4.21727 2.8168 4.63686 2.8168 5.15444C2.8168 5.67202 3.23638 6.09161 3.75397 6.09161H14.0628C14.5804 6.09161 15 5.67202 15 5.15444C15 4.63686 14.5804 4.21727 14.0628 4.21727ZM3.75397 8.43454H9.84557C10.3632 8.43454 10.7827 8.85413 10.7827 9.37171C10.7827 9.88929 10.3632 10.3089 9.84557 10.3089H3.75397C3.23638 10.3089 2.8168 9.88929 2.8168 9.37171C2.8168 8.85413 3.23638 8.43454 3.75397 8.43454Z" fill="#BFBFBF"/>
</svg>
