<svg width="24" height="24" viewBox="0 0 24 24" fill="none" xmlns="http://www.w3.org/2000/svg">
<path d="M1.51543 6.00744C2.93021 3.48332 5.25443 1.464 8.08399 0.555308C8.89244 0.252411 9.70084 1.26205 9.29664 1.96884C6.56817 6.81518 8.28611 12.9741 13.1367 15.7001C15.663 17.1137 18.6947 17.4166 21.4231 16.4069C22.2316 16.104 23.04 17.1137 22.6358 17.8205C19.402 23.6764 11.924 25.6958 6.16392 22.4648C0.403816 19.2339 -1.71833 11.7625 1.51543 6.00744Z" fill="#BFBFBF"/>
<path d="M17.9873 10.7528C19.402 10.147 20.4126 8.93544 20.7157 7.42096C20.7157 7.21901 21.0189 7.21901 21.1199 7.42096C21.4231 8.93544 22.4336 10.147 23.8484 10.7528C24.0505 10.8538 24.0505 11.0557 23.8484 11.1567C22.4336 11.7625 21.4231 12.974 21.1199 14.4885C21.1199 14.6905 20.8168 14.6905 20.7157 14.4885C20.4126 12.974 19.402 11.7625 17.9873 11.1567C17.7851 11.0557 17.7851 10.8538 17.9873 10.7528Z" fill="#FAAD21"/>
<path d="M11.1156 3.48332C12.5303 2.87753 13.5409 1.66594 13.844 0.15146C13.844 -0.0504867 14.1472 -0.0504867 14.2482 0.15146C14.5514 1.66594 15.5619 2.97848 16.9767 3.58427C17.1788 3.58427 17.1788 3.88717 16.9767 3.88717C15.5619 4.49296 14.5514 5.70455 14.2482 7.21903C14.2482 7.42098 13.9451 7.42098 13.844 7.21903C13.5409 5.70455 12.5303 4.49296 11.1156 3.88717C10.9135 3.78622 10.9135 3.58427 11.1156 3.48332Z" fill="#FAAD21"/>
</svg>
