<svg width="24" height="24" viewBox="0 0 24 24" fill="none" xmlns="http://www.w3.org/2000/svg">
<path fill-rule="evenodd" clip-rule="evenodd" d="M12 4.09524C12.4444 4.09524 12.8254 3.71429 12.8254 3.26984V0.825397C12.8254 0.380952 12.4444 0 12 0C11.5555 0 11.1746 0.380952 11.1746 0.825397V3.26984C11.1746 3.71429 11.5555 4.09524 12 4.09524ZM16.2539 7.74604C15.1746 6.66667 13.6508 5.96826 12 5.96826C10.3492 5.96826 8.82537 6.63493 7.74601 7.74604C6.66664 8.8254 5.96823 10.3492 5.96823 12C5.96823 13.6508 6.66664 15.1746 7.74601 16.254C8.82537 17.3333 10.3492 18.0318 12 18.0318C13.6508 18.0318 15.1746 17.3651 16.2539 16.254C17.3333 15.1746 18.0317 13.6508 18.0317 12C18.0317 10.3492 17.3651 8.8254 16.2539 7.74604ZM20.5079 4.66666L18.7619 6.41269C18.4127 6.73015 17.9048 6.73015 17.619 6.41269C17.3016 6.09523 17.3016 5.58729 17.619 5.26983L19.3651 3.5238C19.6825 3.20634 20.1905 3.20634 20.5079 3.5238C20.8254 3.84126 20.8254 4.3492 20.5079 4.66666ZM23.1746 11.1746H20.7302C20.2857 11.1746 19.9048 11.5556 19.9048 12C19.9048 12.4445 20.2857 12.8254 20.7302 12.8254H23.1746C23.619 12.8254 24 12.4445 24 12C24 11.5556 23.619 11.1746 23.1746 11.1746ZM17.5873 17.5873C17.9048 17.2698 18.4127 17.2698 18.7302 17.5873L20.4762 19.3333C20.7937 19.6508 20.7937 20.1587 20.4762 20.4762C20.1587 20.7937 19.6508 20.7937 19.3333 20.4762L17.5873 18.7302C17.2698 18.4127 17.2698 17.9048 17.5873 17.5873ZM12 19.9048C11.5555 19.9048 11.1746 20.2857 11.1746 20.7302V23.1746C11.1746 23.619 11.5555 24 12 24C12.4444 24 12.8254 23.619 12.8254 23.1746V20.7302C12.8254 20.2857 12.4444 19.9048 12 19.9048ZM3.49206 19.3333L5.23809 17.5873C5.5873 17.2698 6.09524 17.2698 6.38095 17.5873C6.69841 17.9048 6.69841 18.4127 6.38095 18.7302L4.63492 20.4762C4.31746 20.7937 3.80952 20.7937 3.49206 20.4762C3.1746 20.1587 3.1746 19.6508 3.49206 19.3333ZM4.09524 12C4.09524 11.5556 3.71429 11.1746 3.26984 11.1746H0.825397C0.380952 11.1746 0 11.5556 0 12C0 12.4445 0.380952 12.8254 0.825397 12.8254H3.26984C3.71429 12.8254 4.09524 12.4445 4.09524 12ZM6.38095 6.41269C6.06349 6.73015 5.55555 6.73015 5.23809 6.41269L3.49206 4.66666C3.1746 4.3492 3.1746 3.84126 3.49206 3.5238C3.80952 3.20634 4.31746 3.20634 4.63492 3.5238L6.38095 5.26983C6.69841 5.58729 6.69841 6.09523 6.38095 6.41269Z" fill="#FAAD21"/>
</svg>
