<svg width="19" height="12" viewBox="0 0 19 12" fill="none" xmlns="http://www.w3.org/2000/svg">
<path d="M13.8757 8.43058L13.1023 6.55121C12.7534 5.71348 11.9458 5.1395 11.0171 5.0692C10.0877 4.99833 9.1974 5.44334 8.71836 6.21774L8.27648 6.94335L7.85919 2.18421C7.76326 1.05833 6.86333 0.153208 5.70619 0.017266C4.54844 -0.118095 3.45245 0.554063 3.08253 1.62533L0.0619621 10.4058C-0.149082 11.0268 0.196263 11.6961 0.83539 11.9052C0.955301 11.9593 1.08421 11.9918 1.21611 12C1.74372 12.0017 2.21377 11.6758 2.38284 11.1913L5.39082 2.41078L5.8207 7.24079C5.90944 8.2714 6.67387 9.1283 7.7135 9.36184C8.75313 9.59538 9.82874 9.15154 10.3761 8.26443L10.8306 7.53824L11.592 9.40657C11.9152 10.1938 12.6461 10.7555 13.5112 10.8804C14.3764 11.0053 15.2445 10.6748 15.7913 10.0131L18.6524 6.50357C19.5343 6.08267 18.6524 2.96911 16.972 4.92265C15.8518 6.22501 14.8197 7.39432 13.8757 8.43058Z" fill="#219653"/>
</svg>
