<svg width="22" height="14" viewBox="0 0 22 14" fill="none" xmlns="http://www.w3.org/2000/svg">
<path d="M16.0666 9.83568L15.1711 7.64307C14.7671 6.66572 13.8319 5.99608 12.7566 5.91407C11.6805 5.83138 10.6496 6.35056 10.0949 7.25403L9.5833 8.10057L9.10012 2.54824C8.98904 1.23472 7.94701 0.178743 6.60716 0.0201436C5.26662 -0.137778 3.99758 0.646407 3.56924 1.89622L0.0717456 12.1401C-0.172621 12.8647 0.227252 13.6454 0.967293 13.8894C1.10614 13.9525 1.2554 13.9904 1.40813 14C2.01904 14.002 2.56331 13.6217 2.75908 13.0565L6.242 2.81257L6.73976 8.44759C6.84251 9.64997 7.72764 10.6497 8.93142 10.9221C10.1352 11.1946 11.3806 10.6768 12.0145 9.64183L12.5407 8.79461L13.4224 10.9743C13.7965 11.8927 14.6428 12.5481 15.6446 12.6939C16.6463 12.8396 17.6516 12.4539 18.2847 11.6819L21.5975 7.5875C22.6187 7.09645 21.5975 3.46396 19.6518 5.74309C18.3547 7.26251 17.1596 8.6267 16.0666 9.83568Z" fill="#BFBFBF"/>
</svg>
