<svg xmlns="http://www.w3.org/2000/svg" viewBox="0 0 404.57 429.61"><defs><style>.cls-1{fill:#e5ad95;}.cls-2{fill:#d69a85;}.cls-3{fill:#c6a59b;}.cls-4{fill:#dba291;}.cls-5{fill:#cc8a76;}.cls-6{fill:#d19782;}.cls-7{fill:#c4795f;}.cls-8{fill:#9e5643;}.cls-9{fill:#eabcac;}.cls-10{fill:#d6a090;}.cls-11{fill:#93441c;}.cls-12{fill:#843a10;}.cls-13{fill:#772f0b;}.cls-14{fill:#682305;}.cls-15{fill:#541804;}.cls-16{fill:#300b02;}.cls-17{fill:#1e0602;}.cls-18{fill:#af6551;}.cls-19{fill:#843f31;}.cls-20{fill:#753328;}</style></defs><title>monk</title><g id="Leg"><path class="cls-1" d="M647.05,433.94s13.89-51.58-41.66-55.15S562,438.65,564.13,439c0,0-10-4.91-8,6.25,0,0,7.44,20.53,11.16,23.95,0,0,2.38,7.29,7.14,6,0,0,4.76,10.87,8.93,13.69s-2.68,9.23-5.51,11.46c0,0-25.74,13.54-31.69,15,0,0-13.84,1-16.51,7.29a37.14,37.14,0,0,0-17,29,135.65,135.65,0,0,0-4.16,48.21s-6.85,24.26-5.36,42.85l-1.49,24.7s-.89,12.5,15.33,24.26c0,0,27.23,17.7,38.24,21.57a33.13,33.13,0,0,0,17.85,4.32s7.44,5.8,10.27,6.69h2.08s-2.53,7.74,8.78,6l58,2.83,18-6.84,14.88,1.78,9.23-9.07s8.33-23.07-8.48-19.2l-5.66.89s-1.34,2.24-1.78,2.24-7.89-.9-7.89-.9L661,699.63l-4.91-1.78L651.91,695l-8,2.53L633,702.16l-1-2.08-.74-4.91-13.39-.89-19.94.14-19,.9s-7.44,3-8,3-5.5.75-6,.75-16.07-14.29-16.07-14.29-6.84-8.33-11.61-11.6c0,0-4.91-3-4.16-16.82,0,0,2.68-28,3.27-33.92,0,0,2.38-31.25,2.38-39.73l1-5.21,1.49-4.61s-1-5.65,15.33-12.05c0,0,43.89-27.53,59.22-42l4.46-1.19,7.44-9.52L632,494.89l-2.82-1.63-.15-3.43s10.71-3.72,13.84-19.49c0,0,6.1,1.94,8.48-13.09,0,0,9.82-21.58-1.19-22.62l-3.87.45Z" transform="translate(-421.43 -378.64)"/><path class="cls-2" d="M588.08,417.82s-6.77,1.78-6.92,1.78a45.25,45.25,0,0,0-4.68,2.91c-.82.67-2.16,3.49-2.76,4.09s-3.27,7.59-3.2,7.88-3.34,4.91-3.34,4.91L564.5,439s-9-29,5.13-46.8l-2.9,15.55,4.69,3.9,7.29-4.64,2.45,4.64,3.05.86,6.69,2.23s5.36,4,4.77,4S588.08,417.82,588.08,417.82Z" transform="translate(-421.43 -378.64)"/><path class="cls-2" d="M634.06,402.05c.44.59-2.09,6.8-2.09,6.8l-3.12,1.08,1.93,5.84s1.82,3.15,3.28,2.94,5.06,4.05,6.84,5.23,5.36,11.14,5.36,11.14,7.65-26.95-5.25-40.85c0,0-6.51-2-7,1A31.16,31.16,0,0,0,634.06,402.05Z" transform="translate(-421.43 -378.64)"/><path class="cls-3" d="M644.77,432.1l-6.1-11-6.7-5.5,6.4-7.14L636.89,401,630,389.7s-11.31-3.87-11.75-3.87h-24.7s-10.72,5.21-11.46,6.1-8.63,9.08-8.63,10.41v9.83s1,6.39,1,8-2.83,6.1-3.12,6.55-7.29,12.2-7.29,12.2-17.41-62.05,41.26-60.16c0,0,55-.05,40.87,56.29Z" transform="translate(-421.43 -378.64)"/><path class="cls-4" d="M630.19,424.07s-5.65-1.79-6.1-1.79-7.29.9-7.29.9l-5.8.89-3.43.89-.74,4.76-.6,5.36,1.94,2.23,2.83,5.36a51,51,0,0,0,1.54,5.16c.39.64-.65,3.24-.65,3.24s-2.53,2.16-3,2.16h-5.35L601.62,450l-.74-5.66,3.12-4.59a14,14,0,0,1-.3-3.76c.15-1.91.15-7.12.15-7.57s-.82-5.5-1.15-5.5-2.77-.15-7,0-7.64-1.34-9.57-.6-7,2.53-7.46,2.68-3.85,4.46-4.45,5.21-1,6.63-1,7.48,1.79,4.87,1.79,4.87l1,5.31-.3,6.15s.15,4.76,1.64,4.61,7.59-3.72,7.59-3.72l3.12,4.31s-1.78,7.29-1.78,8.34.59,7.29.59,7.29-2.53,2.82-2.53,4.31,0,4,.75,4.91,4.65,6.85,4.65,6.85l9.85.59s18.68.45,19.57,0,9.82-1.64,9.82-1.64,12.2-5.95,13.84-19.49l-5.06,2.83s-4.91-9.82-4.91-10.42-.75-4.16-.9-5.35-4.76-5.36-4.76-5.36,6.85-2.38,6.85,0,1.34,8.18,1.49,8.93,3.86,3.57,4.16,2.38S637,454.87,637,453.08s-2.82-6.69-3-8.48,2.23-1.19,3.42-2.08,4.46-5.72,4.46-5.72a9,9,0,0,0-2.23-6.33C637.18,427.79,630.19,424.07,630.19,424.07Z" transform="translate(-421.43 -378.64)"/><path class="cls-5" d="M602.66,435.08l-5.8-7.74-8.33-3.27h-7.59s-4.61,3.72-4.61,4.16-1.34,5.06-1.34,5.06v3.43l1.78-4.17,5.81-4.32,5.5-.44,5.8,2.6-.29,3.2s-3.28.3-3.72.3-4.62,1-4.62,1l-3.42,1.79-3,.74L575.58,439s.75,1.34,1.49,1.34h4.32l5.35,1.78,3.42-.74-3.57,2.53s-6-.15-6.69,0-4.91,0-4.91,0l7,3.87a13,13,0,0,1,4.46,0c2.09.44,7-.75,7-.75l5.56-3.42s4.11-3,3.66-3.42S602.66,435.08,602.66,435.08Z" transform="translate(-421.43 -378.64)"/><path class="cls-6" d="M639.71,439l-1-6.25-4-5.06-4.46-3.57s-6.55-.3-7.14,0-6.7,1.64-7.14,2.08-3.87,4.61-3.87,4.61l-1.49,7.29,2.38,6.7,4.31,4.32-.59,2.38-2.53,1.34L610.55,455l-4.32.89L604,454.72s-2.08-2.08-2.68-2.08-2.32,1.93-2.32,1.93l-2,1.34-.89-1.64s3.09-1.78,2.88-2.38a11.13,11.13,0,0,1,0-2.68l-3.63-.74s-4.61,1-4.76,1.64-1.9,5.65-1.77,6.54-.76,4.47-.76,4.91v10.12l.76,1.19,2.66-3.27.15-7.29,4.61-2.09,4.47.75v3.72l4.42,1.78,5.55-1s-.15-4.31.59-4.91,5.06-1.34,5.06-1.34l4.76,1.94a25,25,0,0,1,.45,3.12,30.9,30.9,0,0,1-1.64,4.91l-6-.89s-2.61.45-3.65-.15-4.16-.74-4.16-.74-3.58.59-5.21,1-3.28.44-3.72.89a25.58,25.58,0,0,1-3.28,1.79l-2.67,3.12-2.37,4v10.71l2.37-5.06s1.93-5.5,2.67-5.65A48.88,48.88,0,0,0,599,475.4a37.93,37.93,0,0,0,6.15,0c2.57-.3,6.89-.3,7.78-.3s5.21-.29,5.8.3,1.34,3.57,1.34,4.76.3,2.53.75,2.83,2.67,2.38,3.86,2.38a23.69,23.69,0,0,0,3.28,0c.74-.15,2.82-3.27,2.82-3.27l-1.33-6.55-.15-8.63-1.49-5.8-3.72-6.85-1.19-2.68s-1-4.26-.45-3.76,4.17.1,4.61,0,3.28-3.82,3.28-3.82l-4.61-.9-2.83-2.38a19.34,19.34,0,0,1,2.83-1H632Z" transform="translate(-421.43 -378.64)"/><path class="cls-1" d="M634.65,434.48s-8.33,1.74-8.78,1.47a20.68,20.68,0,0,0-3.27-.72l-2.08-1.94H617.1l-1.64-3.72,2.53-1.19,5.06-1.78h5.65l2.53,2.38s4.32,1.94,4.32,2.31S634.65,434.48,634.65,434.48Z" transform="translate(-421.43 -378.64)"/><path class="cls-7" d="M564.72,441.92l1.94,7.59,2.52,5.8,2.83,6.25,2.23,4.77v1.19a6.32,6.32,0,0,1-2.38-1,38.6,38.6,0,0,1-3.42-4.76s-1.49-3.57-1.78-4-3.28-4.32-3.28-4.77a17.7,17.7,0,0,0,0-2.82c-.15-.45-.81-.7-1.67-2.28s-2.49-5.91-2.49-5.91l2.49-1.48Z" transform="translate(-421.43 -378.64)"/><path class="cls-7" d="M647.6,439s-3.13,2.53-3.13,3V447s-.89,3.42-.89,3.87v11.31l-.89,2.68h4.91s0-4.17,1-4.62,2-2.51,2-3.78.15-4.7,0-6.18a19.18,19.18,0,0,1,.07-4.62,2.87,2.87,0,0,1,1.27-1.93v5.06l2.23-3.42s.3-3.87,0-4.32-1.33-3.72-1.78-3.72S647.6,439,647.6,439Z" transform="translate(-421.43 -378.64)"/><path class="cls-7" d="M599.61,436l-1.11,4.46s-2.68,2.15-3.65,3.12a33.41,33.41,0,0,1-4.69,3l1.12-2.53,1.71-3.95L591.28,439H581.16v-1l1-.6h3.5l1.71-.52,1.5-1.64,2.44-.52h2.9l1.12-2.45s-1-2.9-1.56-3.28-4.17-1.86-4.17-1.86-1.71-1.11-1.49-1.11,4.39,1.26,4.39,1.26,3.79,2.61,3.87,2.83,2,1.12,2,2.16A15.83,15.83,0,0,0,599.61,436Z" transform="translate(-421.43 -378.64)"/><path class="cls-7" d="M620.67,425.93H617.1a36.14,36.14,0,0,0-2.46,2.9c-.07.3-1.93,2.9-1.93,3.65V436c0,.32-.38,2.4,0,2.63s1.78,1.26,1.78,1.26,2.53.37,2.53,0a23.87,23.87,0,0,1,.67-2.53h5.73l1.19.74,1.86.9s2.38-.08,3,0,4.61,0,4.61,0v-2.31s-2.46-.34-2.68-.69-1.86-1.69-2.38-1.61-4.09.22-4.61.22-3.48.51-3.35-.08-1-1.19-1.27-1.19-3.17-1.12-3.17-1.12-.4-1.93.64-2.37,1.34-1.19,2.61-1.27a10.41,10.41,0,0,0,2.68-.82,24.66,24.66,0,0,0,2.38-1.11l3.42,1.19,2.45.76s2.39.21,2.39-.09.37-2.61-1.2-2.53-4.16-1-4.83-1H623.3A5.72,5.72,0,0,0,620.67,425.93Z" transform="translate(-421.43 -378.64)"/><path class="cls-8" d="M595.07,436.64h-3.94s-2.53-.07-2.75,0-2.75.67-2.75.67l-2.31-.7-.52,1.44s.74.9,1.26.9h9.53a3,3,0,0,0,1.48.74,15.28,15.28,0,0,0,3.8-.74l.13-2.72-1.32-2.34L596,435.45l-1,.78Z" transform="translate(-421.43 -378.64)"/><path class="cls-8" d="M615,431.88l-1.11,3.5s-.38,2,0,2.23a10.72,10.72,0,0,1,1.11.89s-.07-1.54.45-1.7,2.68-.83,3.27-.57a20.37,20.37,0,0,0,2.9.57,15.93,15.93,0,0,0,3.87.51l4-.51s-.55-2-.6-1.61-3,.11-3.79,0-3.5,0-3.5,0l-1.63-1.3h-2.76l-1-1.41Z" transform="translate(-421.43 -378.64)"/><path class="cls-9" d="M619.33,390.37s2.58,3.72,4,5.28,6.29,6.62,6.22,7.07.45,3.12-.45,4.39-5.44,3.34-5.77,3.12-5.68-1.86-6.13-1.71-1.12,2.9-2.9,3.05-4.09-.37-6.18-.45-4.16,1-4.68-.37-.82-4.69-3.28-4.91-4.53.08-5.87-.07-4.84-1.42-4.47-3.57,6.92-7.22,8.41-8.78,3.94-4,2.53-5.06,6.4.44,6.62.44,7.66.82,8.11.82S619.33,390.37,619.33,390.37Z" transform="translate(-421.43 -378.64)"/><path class="cls-5" d="M594.48,454l1.78-.7s1-3.77,0-3.37-2.18-.36-2.48,0-1.58,2-1.58,2l-2.44,4.55V459l-.92,7.74.92,1.39.63-5.06,2.9-3.47,2.43-.2s3.57-.81,3.89-.45,3.7.95,4.39.95h4c.54,0,4.52-.95,4.52-.95l5.05-1.43s3.51-.1,4,.69a48.51,48.51,0,0,1,2.11,4.46c.1.3,1.76,4.17,1.76,4.17a19.2,19.2,0,0,0-1.76,2.58c0,.3-2.87.69-3.37.69s-4.27-.39-4.91-.39-4.22.79-5.11.39-4.56-.39-5.2-.39-3.23-.5-4.22-.2-3.08,1.88-4,2.18a20,20,0,0,0-3.37,1.09,11.07,11.07,0,0,0-2,2.68,21.76,21.76,0,0,0-1.84,5c.06.6,0,2.28,0,2.28s1.45-4.26,1.84-4.56,1.89-1.29,2.68-1.89,3.27-2.18,3.27-2.18,5.16-.3,6.06-.3,16.36-.29,16.86-.19,3.18.89,2.83,2.38-.45,2.08-.75,3.77,0,3.27.75,3,2.52.1,3.12-.39a4,4,0,0,0,1.19-2.68c0-1,.5-5.16.5-6.15v-6s-1.84-4.12-2.61-5.81a30.81,30.81,0,0,0-3-5.27,39.77,39.77,0,0,1-2.58-4.35l-.79-2.3s.4-2.66.69-2.66a19.46,19.46,0,0,0,3.43,0,35.76,35.76,0,0,0,3.32-1.49s-2.27-2.18-3.32-2.18h-2.14l-.59-2.58,2.18-2.38,3.72.45-3.05-1.64h-5.73l-.67,2.53L615.46,441v1.69s2,1.09,2,1.68.5,3.48.5,3.48l-.89,1.81-.45,1.81-6.1,3.57-4.32.89L604,454.72l-2.68-2.08L597,455.91l-.89-1.64Z" transform="translate(-421.43 -378.64)"/><path class="cls-7" d="M593.19,453l-1.69,3.46s-.1,1.7.85,1.8a24.87,24.87,0,0,0,2.82,0v-1.8l-.59-1.77V453l.59-1.48Z" transform="translate(-421.43 -378.64)"/><path class="cls-8" d="M599,455.86s-1.45.53-1,1a6,6,0,0,1,1,1.42l2.13.45h1.57v-2.88l-2.38-.5Z" transform="translate(-421.43 -378.64)"/><path class="cls-8" d="M613.9,454l-2.06.91v1.55s1.6,1.31,1.89,1.21,2.87-.6,2.87-.6l.69-2.16-1.38-.91Z" transform="translate(-421.43 -378.64)"/><path class="cls-8" d="M620.77,472.82s-6.4-.79-6.87-.79-5,.59-5.43.4-5.16-.4-5.16-.4-4.15-.3-4.31,0-3.28.79-3.28.79h-2.13l3.37-1.09,4-2.18,4.22.2,5.2.39,5.11-.39s5.5,1.19,8.28-.3l-2.11,1.69Z" transform="translate(-421.43 -378.64)"/><path class="cls-5" d="M574.39,475.1s2.74,11.38,13.69,16.8c.25.13.5.25.76.36,11.59,5.26,3.46,1.89,3.46,1.89l2.28,2.28s-.6,3.47-.6,3.87,1.19,4.86,1.19,4.86l-.69,3.08-.89,1.09L592.4,512s2.18,2.78,1.78,3.38-2,4-2,4,4.66-1.39,4.66-1.89.3-6.15.6-6.55,2.85-4.76,2.86-5.35,0-3.67,0-5.16,2.38-3.18,2.38-3.18v11.21a6.59,6.59,0,0,1,0,2.48c-.29,1.09-1.18,2.88-1.48,3.67a30.48,30.48,0,0,0-.29,4.77c0,.09-1.93,3.67-1.93,3.67s-.65,3.67.54,3.17,3.77-2.78,4.76-3.17,2.18-2.29,3.72-3.08,5-2.68,5.88-2.78,3.39-.69,3.39-.69.6-3.08.6-3.67.4-3.77.4-5.16-1.59-5.06-1.59-5.06l1.59-3.37a6,6,0,0,0,2.38,1.46,10.47,10.47,0,0,0,3.07,0,27.5,27.5,0,0,0,3.67-2.26v-2.47a9.47,9.47,0,0,1,0-2.39c.2-.29,1.59-3.72,1.59-3.72s11.6-6.39,13.84-19.49c0,0-2.14,5.46-4.62,7.54l-1.48,1.89s-1.69,3-1.59,1.88a39.23,39.23,0,0,0-.5-5.55c-.1-.4-2-1.49-2-1.49s-1,0-.7.69a17,17,0,0,1,.6,3.47,13.49,13.49,0,0,1-.6,3,14.32,14.32,0,0,1-1.58,3.47c-.3.3-3.08,2.38-3.08,2.38l-4,.8s-3.07.89-3.47.54a10.35,10.35,0,0,0-2.58-.74L616,486.41l-1.43-2.68s-1.54-.52-1.24-1,1.78-2.12,2.28-2.12a9.29,9.29,0,0,0,2.18-1l2-1.3-1.09-3H599l-5.12,2.83-5,10.71c.28-.6,5.14-3.52,5.34-4s3.37-4.16,3.77-4.16,5.06-.5,5.36-.5.39,1.29.49,2-3,3.07-3.48,3.67-2.77,3.17-3.06,3a2.15,2.15,0,0,0-2.09,0,49.81,49.81,0,0,1-5.41,1.94l-5.1-4.77a15.72,15.72,0,0,0-2.18-2C582,483.93,574.39,475.1,574.39,475.1Z" transform="translate(-421.43 -378.64)"/><path class="cls-7" d="M593.19,492.36l2.68,4.57V501c0,.3-.3,4.17,0,4.57a15.07,15.07,0,0,1,.39,3.37,25.17,25.17,0,0,0,1.1-3.27c0-.5.29-4.47.79-5.46s2-4.66,2-4.66h2.78a29.24,29.24,0,0,1,2.08,3.37c.1.5,1.49,5,1.49,5.66s1.19,2.87,1.19,4.36a16.22,16.22,0,0,1-.79,4.36c-.3.9-2.88,3.67-2.88,3.67l-1.68,3.87,6.34-4.16,4.17-2.09s-1.39-7.14-1.29-8a12.17,12.17,0,0,1,1.29-4.71c1.09-2.09,1.19-3.23,1.79-3.6l4-2.55,1.89,1.88s.79,1.39,1.39,1.39,4.06-1.29,4.06-1.69.5-4.36.5-4.36l2.58-3.13L623.74,491l-3.27-.5h-3.18L615,488.94l-1.11-1.83s-1.86-3.77-2.36-3.38-2,5.66-2,5.66h-2.78a6.76,6.76,0,0,1-2.28-.45V485s-2.38,1.39-3.08,1.89-2.58,2.58-3.47,3a46.18,46.18,0,0,1-4.76,1.2l-3.43-.2Z" transform="translate(-421.43 -378.64)"/><path class="cls-8" d="M595.07,491.67l1.79,5.46s-.2,3.37,0,2.48.72-5.46,2.14-5.46,4.9.1,5.5.1,4.88.59,4.88.59,1.17,3.82,1.47,3.45,3.67-2.58,3.67-2.58a34.73,34.73,0,0,1,3.47-2.45c.3,0,2.58-.3,2.58,0s.49,4,.49,4,2.58.2,2.68-.09-.69-2.09,0-3.18,2.28-1.78,2.38-2.28,2.88-1.84,2.88-1.84l-10.32,1.73-25.49-.48Z" transform="translate(-421.43 -378.64)"/><path class="cls-8" d="M600.43,477.09l3.57,1.39,2.38,1.09-.69,3.21H604.3l1,2.05s2.68-1.15,2.73-1.13a19.56,19.56,0,0,1,1.36-2.35c.28-.1,2.66-1.48,2.66-1.48s2.18-.2,2.48-.2,3.87-1.69,3.87-1.69.29-.69,0-.89-4.49-.8-4.49-.8l-2.81-.39s-5.2-.5-5.5,0S600.43,477.09,600.43,477.09Z" transform="translate(-421.43 -378.64)"/><path class="cls-10" d="M591.5,502.27l-.6,7.21-5.2,4.76-2.9,2.53,4.35,5.35,4.35,5.51s-.74,1.63-1.11,1.34-7.37-5.36-7.59-5.51a14.77,14.77,0,0,0-4.11-1.19c-1.62-.15-7.42-1.44-7.42-1.44h-12l-4.77-2.58-7.88-.59s-6.4-.75-5.06,1.19,5.8,2,5.8,2a16.39,16.39,0,0,1,3.87,1.44c1,.75,6,1.64,6,1.64s1.94,3,3.87,3h7.44s2.23.3,3.72.6l10.64,2.08,4.39,5.81s.89-.45-3,0-9.07-.45-11,0a95,95,0,0,0-9.82,3.71c-.44.3-15.32,14.29-15.32,14.29l-12.35,5.5-2.09,11.31-5.35,9.08-6.4,10.86-9.82,22.62s-2.38,5.8-2.38,8.33v6.7L506,649.19,501.78,665l1.34-22.32a111.43,111.43,0,0,1,5.36-42.85S506,573,512.64,551.58c0,0,.45-20.08,17-29,0,0,2.57-6.4,17.72-7.66,0,0,22-9.6,30.48-14.66,0,0,6.25-3.72,6.4-4.17s1.34-4.41,1.34-4.41l2.53,4.12s.3.39,0,2.5a63.62,63.62,0,0,1-1.78,7.17c-.45,1.49-1.79,4.31-2.38,4.61s-6.7,3.72-6.7,3.72l1.93,2.68s2.68-3,3.13-3,6.1-2.82,5.8-3.27.76-4.46.76-4.46l.92-8Z" transform="translate(-421.43 -378.64)"/><path class="cls-6" d="M585.4,496.53v5.74c0,.66-1.48,7.8-1.48,7.8l-6.7,3.72v3.12h4.91v3.92l-3.72-.64-2.68-.3-4.16-1L564,518.7l-3.57.45s-4.17-1.79-4.62-1.79-5.28.6-5.28.6l-3.18-3.05s32.25-15,36.88-18.83l1.34-4.41Z" transform="translate(-421.43 -378.64)"/><path class="cls-6" d="M564.27,532.84l-.89,6.24-15.32,14.29-12.35,5.5-13.84,25s-5.21,8-5.51,9.38-9.67,25.44-9.67,25.44v12.65l-3.57,11.3s-2.53-23.36,5.36-42.85c0,0-2.19-29.57,4.16-48.21,0,0,6.85-22.91,16.82-26l2.23-3.57s3.42-1.68,4.31-1.14,7.74,0,7.74,0,5.36,2.78,6,3.52.3-.85-5.5,1.89a109,109,0,0,0-11.31,6.3s3.27,2.38,3.27,3.72a28.4,28.4,0,0,1-.74,6.4c-.6,2.23.89,4.76.89,4.76l3.72-5.51s2.08-6.69,2.83-7.14,2.27-3.12,4.48-3.12,6.53.74,6.53,1.19,2.53.44,3.27.44,6.55-4.16,8.48-4.16,13.69,2.23,14.14,2.23a46,46,0,0,1-5.36,1.34,34.14,34.14,0,0,0-5.65,0A26.55,26.55,0,0,1,564.27,532.84Z" transform="translate(-421.43 -378.64)"/><path class="cls-5" d="M532.28,537.75c0,.59-.89,10.41-.89,11.16s-4.46,13.68-4.46,12.49-3.72,5.36-5.06,7.44-1.79,4.17-3,6.4-2.82,6.44-2.82,6.44-.15-8.82,0-10.6,1.33-3.58,2.53-7.3,2.52-8.48,3.27-11a27.37,27.37,0,0,0,.89-6.54,19.59,19.59,0,0,1,1.38-5.21,22.28,22.28,0,0,1,2.94-3.27,33.31,33.31,0,0,1,3.57-8.19c2.38-3.72,3.87-4.61,5.06-4.61s5.54-.74,5.54-.74l-5.84,4.16-3.87,3.72Z" transform="translate(-421.43 -378.64)"/><path class="cls-5" d="M554.6,540.28l-6.54,2.23.89-7.44s-5.66,9.37-5.8,9.82-5.21,4.61-6.1,5.5-4.47,4.42-4.91,5.41-3.28,5.45-4.32,7.09-3.27,6.7-4.46,7.89-2.68,4.81-4.32,7.54-5.06,5.25-6.69,10.61-3.72,12.35-3.72,12.35,8.77-15.77,9.22-15.92,7.09-7,7.09-7l10.77-19.45,12.35-5.5,15.32-14.29s-1.93-.74-1.93-1.19.29-2.82.29-2.82l-5.8,3.72Z" transform="translate(-421.43 -378.64)"/><path class="cls-5" d="M535.26,572s-4.76,6.54-5.21,8-3.72,9.23-3.72,9.23L525,595.48s6.7,4.31,6.7,4.76,1.34,5.06,1.49,7.14.15,7.89.15,9.23-.15,5.95-.45,8.18-2.23,10.86-2.75,11.6a21.1,21.1,0,0,0-1.5,5.51c-.36,2.08-1.85,6.4-1.85,9.23a54.64,54.64,0,0,1-.89,7.58s-4.77-2.67-4.77-5.8v-8.33c0-2.53-1.48-8.33-1.48-9.82V620.18s-4.32,3.12-4.62,6-.89,6.69-.89,8.93-.15,4.16,0,7.58a48.73,48.73,0,0,0,1.87,9.08s-1.12,6.25,1.26,7.89a24.57,24.57,0,0,1,5.06,4.16,59.86,59.86,0,0,1,3.57,6.55c.14.74,10,6.7,10.86,11.31a47.51,47.51,0,0,0,3.42,9.82s5.51,3.27,7.59,4.46,9.07,3.42,11.16,4,6-.89,6-.89l-27.68-25.89s-4.31-3.72-4.16-16.82c0,0,6.2-60.21,5.65-73.65a63.79,63.79,0,0,1-1.54-6.5c0-1,5.16-12.89,5.16-12.89Z" transform="translate(-421.43 -378.64)"/><path class="cls-7" d="M532.78,578.32l-1.59,6v6.35l.8,2,2.38-4.56v-6.41c0-.73,2.77-5.5,2.77-5.5l5.16-12.89-5.55,6.84Z" transform="translate(-421.43 -378.64)"/><path class="cls-10" d="M522.86,597.21a16.26,16.26,0,0,0-.79,4.07,54.35,54.35,0,0,0,.79,6.05s-.4,5.16-.4,5.75.6,6.75.4,7.74.08,6.55,0,7.54,1,8.13,1,8.13l1.19,3.18S529.61,628,529.8,626s1.59-7.54,1.39-9.72S532.57,604,532.57,604l-.88-3.77-6.7-4.76Z" transform="translate(-421.43 -378.64)"/><polygon class="cls-8" points="102.62 219.96 102.62 225.32 104.01 227.3 107.19 227.3 107.19 223.63 107.19 221.55 105.88 219.96 102.62 219.96"/><path class="cls-7" d="M516,633.92c.71,1,0,10.91,0,10.91l1.5,6.94,1,6,3.57,3.57,3.17,2.19,3.39,3.57,3.94,5.15,4.62.95A26.76,26.76,0,0,1,533,656.33s6.4-57.43,5.65-73.65l-.94,2.23s-1.88-.79-1.74,2.78,0,6.55,0,6.55l-3.43,4.36-.88,1.64.88,3.77-1.38,12.25L529.8,626,525,639.67s2.44,10,2.28,10.79,0,5.95,0,5.95a11.21,11.21,0,0,1-2.27,1.81c-1.07.57-4.5-2.93-4.5-3.37s-.74-7.37-.74-9.16a35.84,35.84,0,0,0-1.79-8.25c-.59-1.42-.59-9.53-.59-9.53Z" transform="translate(-421.43 -378.64)"/><path class="cls-10" d="M502.15,671.7s3.87,5.54,5.43,6.65a51.18,51.18,0,0,1,5.44,4.32c1.71,1.64,5.65,5.21,6.32,5.73s.22-1.49,2.45-1.49,4.77,1.34,6.7,2.16a7.34,7.34,0,0,1,3.35,3.2c.52.81,4.54,2.75,5.28,3.79a26.69,26.69,0,0,0,4.84,4c.89.53,1.86.31,3.64,1.12s9.08,2.46,9.37,2.61,4.77,3.94,4.77,3.94-5.51-.89-5.43,0,1.93,2.75,2.75,3,3.79-1.49,4.09-1.49,1-2.08,1.49-2.23,5.58-4.32,5.58-4.32l7.36-3.12,5.06.89s8.48-.24,9.08-.38,4.09-2.37,5.21-2.6,4.61-.89,5.87-.29,7.59,2.89,7.59,2.89l4.61,2s.67,2.08,3.65,1.71,5.13-.82,7.14-1.12,6.1-.59,6.1-1.26.23-4.39,0-4.39a29.31,29.31,0,0,0-3.57-.82,26.36,26.36,0,0,1-4.24-.15c-.67-.22-4.84-1.78-4.84-1.78l13.33.84s2,6.59,2.45,7,10.86-4.61,10.86-4.61l8-2.53,4.17,2.83,14.43,4,7.89.9,1.78-2.24,5.66-.89a13.24,13.24,0,0,1,5.83-.13c2.43.73-2.93.43-2.93.43a25.64,25.64,0,0,0-3,.89c-.29.23-3.72,2.23-3.72,2.23a42.33,42.33,0,0,1-4.61,1.05c-1.11.07-3.87-.23-4.31-.23a55.51,55.51,0,0,1-5.81-.82c-.59-.22-5.8-2.38-5.8-2.38s-6.32-.82-7.14-1a48.49,48.49,0,0,1-4.54-1.79s-3.72,1.12-4.91,1.56-5.36,2.38-5.58,2.38-5.13,1.42-5.13,1.42a28.58,28.58,0,0,1-3.65,2.3c-.74.23-6.17,1.71-6.17,1.71l-4.69,1.49-4.69.75s-1.63,2.15-.07,2.75,4.61,3.35,5.58,3.05,5-2.23,5-2.23-.52-1.94-.15-2.38,1.79-2.68,2.91-2.83a28.72,28.72,0,0,0,5.13-1.27c1-.44,1.93-.44,5.06-1.56s4.68-3.79,8-2.75,7.74,3.12,7.74,4,.67,3.64.22,4.16-4.68,2.09-4.68,2.09l-8.41,2a7.47,7.47,0,0,1-3.27,2.08,30.38,30.38,0,0,1-6.11,1.26l-5.57.82a43,43,0,0,0-7.59.6c-3.43.67-6.77,1-6.77,1l-8.93.38-5.88.37-5.73,2.08,2.16,1.86,8.11-.52,9.3.52h11.61l12.64-1,9.9-1.19,5.65-1.26,8.33-5,4.39-2.53,9.3-2.08,1.27,2-7.81,2.68,5.87,1.34,6-4.69,3-3.2,4.91-.3-.89,3.87v4l4.16,1.71,5.21-6.1.89-6.7.52-1.85a25.88,25.88,0,0,1-1.78,14.06l-9.23,9.07-14.88-1.78-18,6.84-58-2.83s-10.53,2.24-8.78-6h-2.08l-10.27-6.69s-12,.18-17.85-4.32C555.2,713.17,506.84,693.91,502.15,671.7Z" transform="translate(-421.43 -378.64)"/><path class="cls-5" d="M591.5,720.12c.4-.5,0-4.37,0-4.37s3.28,2.58,3.57,2.68,15,1,15.28,1.09,8.46-.17,8.46-.17a31.49,31.49,0,0,1,7.59-.6s12-1.06,15-4.16l4.51-2.61s5.16-1.09,5.46-1.09a20.19,20.19,0,0,0,2.48-2.68s-2.68-2.08-3.47-2.87a4.63,4.63,0,0,0-2.78-1.39h-3.37a27,27,0,0,0-3.58,1.88,4.49,4.49,0,0,1-2.77,1.39,29.49,29.49,0,0,1-4,.4c-.4,0-2.66-.33-2.66-.33l-2.7,2.41-1.78,3.67s-5.06,1.64-6.2,2-5.8-.17-5.8-.17-3.58.59-4.37.29-3.27-1.29-4.86-1.78a5.66,5.66,0,0,1-2.18-1.09s0-1.29,2-2.09a12.45,12.45,0,0,1,4.76-1.09c1.39,0,2.68-.69,4.07-.79s3.87-.7,5.16-.79a50.6,50.6,0,0,0,6-1.39,27.19,27.19,0,0,1,3.47-1.69c2-.69,4.37-1.49,4.37-1.79s-1.84-7.78-1.84-7.78l-14-.89,5.41,1,4.24.95,3,.76v4.39l-12.6,3.42s-5.55-1.89-6.34-2a38.45,38.45,0,0,1-4.77-1.49,55.22,55.22,0,0,0-7.83-1.3h-4.07s-4.36,1.5-5.06,1.69-4.46.94-5.65.57a28.15,28.15,0,0,0-5.46-.57c-1.09,0-7-.31-7-.31s-4.91,5.92-5.21,5.75-1.39,1.81-2.78,2.6-4.06,2.68-4.36,2.38a36.8,36.8,0,0,0-4.46-1.39l-2.39-3,.6-2.88-5.16-.1s-.85-.6-.72.3-12.57-6.25-12.57-6.25-11.61-5.76-12.4-6.55-13.79-11.51-13.79-11.51l-5.73-9.13s.87,20.14,53.05,41.47c0,0,5,4.27,17.85,4.32l10.27,6.69H585s-1.19,8,9.22,6l58,2.83,18-6.84,14.88,1.78,9.23-9.07s3.4-9,1.78-14.06-.44.17-.44.17l-.2,8.13-2.28,4.27-7.84,4L684,718.23v-3.87s-2.77.1-4.06,1.49-4.47,3.47-6.15,3.67a21.15,21.15,0,0,1-5-.5s-3.38-.89-3.38-1.19a29.76,29.76,0,0,1,2.88-3.07l2.88-1.09-5.36.89a33.35,33.35,0,0,1-3.77,2.88c-.5.1-6.15,1.39-6.45,2s-5.26,2.28-5.93,2.43-10.24,3.52-11.92,3.52-10.81.8-11.61.8-13-.1-14.48,0-12.3-.1-13.09,0-7.24-.2-7.24-.2-2.48-2.09-1.89-2.38S591.5,720.12,591.5,720.12Z" transform="translate(-421.43 -378.64)"/><path class="cls-7" d="M577.81,706.72c.3.3,2.19,3.67,2.48,3.77s4.47,3.67,4.47,3.67,3.27-.79,4.16,0a13.44,13.44,0,0,0,2.58,1.59s2.36,5.57-2.08,7.84l1.89,2.38,16.46.79s8.43.7,8.93.7,8.13.29,9.42,0,8.83.36,9.13.13,11.8,0,11.8,0-3,.61-3.57.61-4.16-.2-7,0-12.8,1-13.19,1-7.74-.89-9.33-.89h-6.64c-.5,0-5.36-1-5.76-1s-5.45-.1-6.25-.1-5.55-.8-5.55-.8l-1.49-1-3,.3.19-1.59h-2.08l-10.27-6.69s-8.83.44-15.27-2.53c0,0,1.88-.2,2.08-1s4-.5,4-.5l5.16-.1a5.81,5.81,0,0,1,2.38-1.88c1.48-.6,4.66-1.69,4.66-1.69Z" transform="translate(-421.43 -378.64)"/><path class="cls-7" d="M636.24,709.9s-3.07,3.37-4.27,3.67-11.9,2.48-13,2.48-10.42.2-11.51,0-6.05-2-6.05-2-3.87-1.88-4.66-2.28S592.5,709,592.5,709a11.82,11.82,0,0,1,4.66-.8c2.18.2,8.63-.55,9.92,0s7,.42,7,.42l11.21-3.27,1.59-1.59-7.12.41s-4.09,1.08-4.49,1.08-3.47-.4-3.47-.4l-6.05-1.09h-4.17a2.1,2.1,0,0,0-1.29-1.42,23.93,23.93,0,0,0-4.46,0,24.91,24.91,0,0,0-3.87,1,5.76,5.76,0,0,1-1.69.6s-3.57-.3-3.87,0-3.47.39-3.47.39l4,3.38,3.08,1.45.49,1.13.39,5.15,4.17,3,15.28,1.09,8.46-.17a16.17,16.17,0,0,1,7.59-.6l4.58-1.81,5.26-.69c.69-.1,5.65-3.87,5.65-3.87l5.86-2.28,1.48-2.68-3.27-.7s-5.36.8-6,1.1S636.24,709.9,636.24,709.9Z" transform="translate(-421.43 -378.64)"/><path class="cls-8" d="M602.41,716.64l5.26.6,7.34-.3h9.62l2.78-1.49h2.68l1.88-1.19,3.08-1.39a9.39,9.39,0,0,1,2.28-1.29c.5,0,4.56-.71,4.56-.71a17.51,17.51,0,0,1-2,1.9c-.3.1-2.58,1.59-3,1.79a15,15,0,0,1-2.67.69c-.3,0-3,.8-3,.8l-2.78,1.19-2.77.74h-6.06a25.74,25.74,0,0,1-3,.75h-8c-.29,0-4.16-.75-4.16-.75Z" transform="translate(-421.43 -378.64)"/><path class="cls-8" d="M591.4,705.53l.9.8,4.06.39,2.92.7,5.12-.7s4.86,1,5.16.7,2.87-.19,3.47.05,4.56-.75,4.56-.75l5-1.19H606.09l-2.88-.49s-3.45.1-4.21,0-7.6,0-7.6,0Z" transform="translate(-421.43 -378.64)"/><path class="cls-8" d="M578.31,712.38l5.85,4.46H588l1.89,1.89V723s-3.28.75-3.57.75-3,.39-3,.39L573.05,718l-11-3.18,5.76.75s5.05-.32,5.85-.75,3.87-1.83,3.87-1.83Z" transform="translate(-421.43 -378.64)"/><path class="cls-11" d="M502.15,685.65c-1.11-.75-12-7.44-12.12-8.19s-5.95-5-7.14-5.76-11.16-4.06-11.76-4.06-12.8-.59-13.24,0-18.3,5.51-18.3,5.51l-10.27,13.54-1.79,6.54,1.79,17.64,1.49,4.53s1.34,15.78,1.34,16.52,4.46,7.89,4.61,8.48,3.12,8,3.12,8.93,4.62,16.51,5.21,17.11,12.8,13.84,12.8,13.84l11.9,3.27.45-11.46,3.87-5.06,2.38.3,2.53,5.51s8.92,8.78,8.92,9.22,13.68,11.16,13.68,11.16,10.73,2.23,11.47,2.68S524,799.47,524,799.47s-3.27,1.94-4.46,2.08-14.14,2.24-14.14,2.24H488.54l-6-3.72s-5.36,2.08-6.1,2.38-5.36-.3-5.36-.3l-2.68-4.61h-8.63s-1.93-5.06-2.38-4.76-2.83,5.8-2.83,5.8-7-.89-7,1-3.72,4.91-3.72,4.91h-7.59l-9.82,2.38-5.06,1.34,400-6.1s-2.38,0-2.38-3.87-.15-4.91-.9-5.21-4-1.48-4-1.48l-3.87-6-1.49,3.43s-6.25,1-6.4,1.78-7.14,8-7.14,8l-8.63-1.19-1.64-2.38s7-5.66,7.74-6.11,11.76-6.69,11.76-6.69l15.17-15.18,6.4-15.47-2.83-20.39-9.82-11.75-5.65-4-13.1-1.34-15.92.3-14.88,3.27-15.62,6.55-11.6,1.64-9.53,6.1c-2.08,1.34-9.22,3-10.41,3S705.18,740,705,740.4s-10.86,6.4-10.86,6.4l-7.44,1.49-3.57-8-2.68-10,4.17-.15.44-2.23-14.88-1.78-18,6.84-58-2.83s-10.12,3.13-8.78-6h-2.08L573.05,718s-11.64-.81-15.27-3c0,0-32.65-17.11-39.34-21.88l-9.67-2.82Z" transform="translate(-421.43 -378.64)"/><path class="cls-12" d="M636.93,494.8l-5,.09-4.31,13.25-7.44,9.52-4.46,1.19s-43.58,36-59.22,42c0,0-17.21,7.34-15.33,12.05l-2.53,9.82-1,19.59h2.6l.93,6.85a9.19,9.19,0,0,0-.93,3.77,41.19,41.19,0,0,0,.93,6.15l2.44,2.57-1.39,6.3s-.7,6.6-1,7.2,1,2.57,1,2.57l-1,5,1,4v11.71l-1,5.75s1.85,3.77,2.64,4.36,1.59,4.72,1.59,4.72l1.16,9.08L564.87,699l6-.75,8-3,52.37-.15,1.79,7,10.86-4.61,8-2.53,4.17,2.83,14.43,4,7.89.9,1.78-2.24,9.68-1.33,4.64,2.08,2,6.24-2.22,11.32-9.23,9.07s9.68-4.61,10.12-5.95,5.21-2.43,5.21-3.22,2.68-6.35,2.68-6.35l5.5-8.88,7.44-8.18s-.3-5.66.75-5.66,3-4.31,3.12-4.91.75-4.91.75-4.91,2.82.15,3-1.34a11.93,11.93,0,0,1,.89-3.12s.45-2.68.9-5.51-.45-9.52,0-10.41-1.19-6.1-1.19-7-1.34-3.12-1.49-4.61-1.64-7.14-1.64-7.14a18,18,0,0,0,.6-2.38c0-.45.29-4.46.29-4.46l1.64-4.62-3.27-7,.3-21,1.78-7.44-1-13.24-1.49-9.67.6-6-.3-9.17L717.83,552s-3.28-4.17-3.28-4.76-.29-6.55-.29-6.55L712,538l-1.79-3h-.74l-.45-15.63,1.93-2.82-.74-3.87-16.67-7.44-5.5-1.94-23.81-1.1-12.64-2.51a16,16,0,0,0-3-1.47c-1-.27-7.74-2.5-7.74-2.5Z" transform="translate(-421.43 -378.64)"/><path class="cls-13" d="M633.31,495.64,631.63,504,626,523.46l-3.57,28.42s-2.53,21.72-2.53,22.32v21s9.38,3.87,9.67,4.31,15.18-2.08,16.52-1.78,15.18-2.08,15.18-2.08l-7.59,7-15,3.87-15.62-.9-5.81-4.91-1.48,7.74s.29,7.29,0,8.63-1.49,5.51-1.49,5.51l4.46,2.23,12.9.45s9.57,2.08,10,2.08,14.28.45,14.73,0,8.33-3.42,8.33-3.42-4.46,4.61-4.61,5.06-10,2.23-11.31,2.38-12.2-.3-13.1,0-8,.06-11,0-12.94.11-12.94.11l-2.38,2.83-1.64,11v6.4c0,.89-2.38,12.2-2.38,12.65s-.74,8.93-.74,8.93-2.09,5.2-2.09,6.24-2.08,6.25-2.08,6.7a27.23,27.23,0,0,1-1.34,3.42s15.18-.59,15.63,0,13.39.9,13.39.9l11-3.43s2.08-2.82,2.68-2.82,5.8-1.64,5.8-1.64,1.34,4.61,1.78,4.76,5.51.6,7.29,1a47.29,47.29,0,0,0,7,.45s3.27-6.7,3.57-7.29,6.25-1.64,6.25-1.64.59,4.76,0,5.66-1.19,4.46,1,2.82,5.21-3,6.7-4.61,6.24-10,6.24-11,.15-6.4,0-8.48-.76-11.46.07-12.5a44.54,44.54,0,0,0,3.51-7.29c0-.45,2.52-8.93,2.52-10v-9.08l-7-7.14s-3.12-5.5-3.12-5.95-1.49-7.59-1.49-7.59a34.47,34.47,0,0,1,5.5,1.49c1,.59,6.1,3.12,6.1,3.12l1.34,2.53,1.94,12.8,2.23,2.83,8.48-3.87,6.4-4.47,3.87-1.78s-.45,2.83,0,3.27-3.57,2.83-4,3.13-2.23,1.63-2.23,1.63l1.19,3.72,4.46-1.48H721s-1,4.31-1,4.91-5.65,5.8-5.65,5.8-5.21,4.76-6.1,5.5-3.28.75-3.28.75-8.78,4-7.73,5.06,5.05,4.76,5.05,4.76,4.91-.3,4.91.44-2.67,4.77-2.67,4.77l-.6,4a40,40,0,0,1,5.51-1.78c.89,0,8.48-1,8.78-.6s2.08,3.57,2.08,3.57,3.12,0,3.12.75v5.65l.88,4.81s-4-3.62-4.15-5-3-5.21-3-5.21l-5.35-.59s-2.09.3-1.34.89a28.08,28.08,0,0,1,2.53,3l3.27-.15,1.34,3.87a1.86,1.86,0,0,1-1.34.3c-.74-.15-3.27-2.09-3.87-2.09s-4.91-1.34-4.76-.89a21.67,21.67,0,0,0,1.94,2.53,27.31,27.31,0,0,1,3.72-.15c.44.15,1.33,2.08,1.93,2.23s2.38.3,3,.45,2.08,3,2.08,3l.45,1.49s-3.28-1-3.43-1.49-4.31-2.08-4.31-2.08L708,674.34s-2.68,1.63-.9,2.38,7,1.34,7.44,1.93,1.34,3.28,1.79,4a17.71,17.71,0,0,1,.74,4l-1.19,2.53-3.42-6.85-2.38-2.53-5.36-.74s-2.67,0-2.23.74,5.51,3.28,5.51,3.28a18.74,18.74,0,0,0,2.23,3c.74.6.74,4.47.74,4.47s-3-2.53-4-3.58-2.38-3.27-3.13-3.72-4.61,0-4.61,0l3.72,2.83a9.45,9.45,0,0,0,2.53,2.53c1.19.6,3,3.27,3.42,3.57s1.34,3.42,1.34,3.42v4.32s-2.38-2.08-2.83-2.68-4.61-3.12-5.06-3.57-6.1-3.72-6.1-3.72l-1.34-.15L690.15,692,689,695.47l3.42,3a45,45,0,0,1,5.06,1.49c.3.3,4.17,1.93,4.17,0s4.31.93,4.31.93l2.68,2.64s-7.59,11.26-8.18,15.23L695.21,722l-10.12,5.95,9.23-9.07,2.22-11.32-2-6.24-4.64-2.08-9.68,1.33-1.78,2.24-22.32-4.91L651.91,695,633,702.16l-1.79-7-52.37.15L592,693.83l4.61-4,3.42-7.59s2.83-7.29,2.83-8.48,1-11.9,1-11.9l1.79-6.4.45-10.86s2.52-10.27,2.67-11.76,2.83-6.54,2.83-6.54l1-13.25,3.42-19v-8.63l3.72-20.68.9-10.86,2.53-22.92,2.08-18.3,2.38-4.46L632,494.89l5-.09Z" transform="translate(-421.43 -378.64)"/><path class="cls-13" d="M623.49,516.77l-6.84,4.31L611,525.84l-7.74,5.51s-8.19,5.35-9.52,8.18a33.45,33.45,0,0,1-4.62,6.4s-8.48,5.65-10.26,6.69-8.19,6.55-8.19,6.55L560,564.83l-6.7,4.16-4.91,2.53s6,1,6.4,1,3-1.34,5.36-2.23a55.11,55.11,0,0,0,9.37-5.65c.75-.75,11.76-9.08,11.76-9.08s10.56-5.8,12.64-7.29,8-6.1,8.63-7.29,3.28-3.57,5.36-4.61l9.23-4.62s-7.89,7.89-8.34,8.19-11.6,7.88-11.75,8.33-7.44,6-7.89,6.1-9.22,6.1-9.22,6.1l-8.93,7-7.44,5.06s.15,1.34.89,1.34,14.44-6.84,14.44-6.84l9.37-6.4s9.82-5.21,11-6.55,10.12-8.78,10.12-8.78l5.65-4.91s1.79,3.13,1.64,3.57-4.76,5.21-5.21,5.66-7.88,6.55-9.37,7.59S593,563,592.54,563s-8.62,3.13-10.26,3.87-7,3-8.33,3.87-5.36,1.34-7.74,3.12a36.35,36.35,0,0,1-8.18,4.32c-2.39.89-3.87.74-5.81,2.08s-3.87,5.8-3.87,5.8a37,37,0,0,0,4.32,1c.74,0,5.65-4.16,6.69-4.61l11.16-4.76,6.1-3s6.25-2.23,7-2.67-2.09,3.12-2.09,3.12l-9.52,6c-.44.3-6.1,2.53-8.48,3.57s-8.78,6.1-9.52,6.25-5.66,2.68-5.66,2.68-.74,1,0,1.34a7,7,0,0,0,4.32,0c1.49-.59,4.31-2.23,6.4-3.27s15.32-7.29,15.32-7.29l-12.79,7.58c-.75.45-9.68,6.85-9.68,6.85l5.51-2.23-.15,2.23-5.95,4.46L550,606.64l7.59-2.68,3.57-2.23L557,606.64,553.41,609s6.25-2.38,6.7-2.68,11.6-6.4,11.6-6.4l2.68-1.34-8.93,7.59s-9.07,4.22-10.56,5.16a54.67,54.67,0,0,1-6.88,2.73l-2.2-3.72s1.49-9.68,1.49-10.12S542.7,597,542.7,597v-8.19c0-.44-2.68-11.31-2.68-11.31l-1.34,5.21-1,19.59h2.6l.93,6.85-.93,3.77.93,6.15,2.44,2.57-2.44,13.5,1,2.57-1,5,1,4v11.71l-1,5.75,2.64,4.36,2.75,13.8L564.87,699l14-3.72L592,693.83l4.61-4,6.25-16.07,1-11.9,1.79-6.4.45-10.86s2.82-14.58,5.5-18.3c0,0,2.53-28.27,4.46-32.29l-6.1,2.08-11.45,12.8s-24.11,33.77-24.41,34.22l-15.92,24.29,7.74-20.57,21.28-24.55,10-14.36,15-15.55-6,3.42L579.6,623.9l-20.09,21.72s7-15,8-16.66,31.54-29.47,32.29-31,13.24-11.46,13.24-11.46L614.27,576,589,597.56,569.18,617.8l-16.51,21.87S546,654.85,546,654.4s1.79-25.59,1.49-26,4.46-11,4.46-11l7.3-2.23s-4,5.65-3.58,5.8,10.72-7.14,10.72-7.14L585.7,599.2,596,589.08s1.63-5.06.44-3.87-25.59,22.69-25.59,22.69l-7.44,3.45,15.48-13.49L596,579.41l13.24-10.72,9.52-4.31,1,.3,4.74-45.29.77-6.79Z" transform="translate(-421.43 -378.64)"/><path class="cls-14" d="M619.48,550.54l-17.41,13.24-18.9,14.88L578.86,584l4.91-1v3.72s13.09-11.46,13.54-11.76,17.11-15.77,17.11-15.77l5.06-2.08,1-.75-.75,8.34-1-.3-2.38-2.23-7,5.06L592.25,580.9l-8,8.48-2.71,1.34L576.18,594l1.63,1.34,1.05,2.53-13.1,9.52L561.45,612l3.12-.64,4.47-1.59s16.21-13.24,16.66-13.54,8.18-7,8.18-7l-17.4,15.62-11.16,8.63-3.87,2.08v-2.67l-6.55,1.48-3.27,1.19L549,619.14s-3.13,6.84-3.13,7.43-1.93,14.74-1.93,14.74l.74,15,3.57,3.28s1.49-8.78,2.83-11.91,8.63-13.83,8.63-13.83L576,612.14s12.65-11.6,13.09-12.2,12.5-11.16,12.5-11.16l9.23-6.1-.75,3.13-5.21,3.57L592.1,600.83l-13.24,12.5s-10.12,10.72-10.27,11.46-6.7,11.6-6.7,11.6L558,642.64,553.41,651l-4.16,14.73-.9,7-1.71,9.53-2.75-13.8-2.64-4.36,1-5.75V646.61l-1-4,1-5-1-2.57,1-7.2,1.39-6.3L541.25,619l-.93-6.15.93-3.77-.93-6.85h-2.6l1-19.59,1.34-5.21v6.62s1.19,3.8,1.19,4-.15,8.86-.15,8.86l1.71,2.38s1.27.59,1.42,1.63-.37,10-.37,10l1.71,3.94s3.94-.08,4.24-.22,8.78-2.71,9.52-3.4,6.55-4.79,6.55-4.79,8.33-6.84,8.55-6.84a32.17,32.17,0,0,0,1.86-4.09s-6.25,3-6.47,3.27-7.82,6.4-7.82,6.4l-3.27,1.11s2.68-4,3.87-4.39,5.06-4.16,5.36-4.24,3.5-3.12,4.39-3.57,5.58-3.57,5.58-3.57l2.38-2.38-3.42-.22s-6.33,4-6.62,4.24-8.34,4.54-8.34,4.54l-1.71,1.86-.67,1.63-3.12,2.9-4.08,2.61-.91-.6,3.5-3.2,3.87-3.42.82-2.08L558,596.3l2.31-1.86s6.54-3.13,6.77-3.13,3.49-2.68,4.24-3a47.46,47.46,0,0,0,4.24-3.06v-1.56s-4.32.45-4.84.82-9.45,5-9.45,5-6.47,3.64-6.69,3.72-4.61.89-4.61.89,6.62-3.13,6.84-3.35,8.7-5.13,8.7-5.13l7.89-3.72,10.86-7.22,8.26-6.32-6.62.82-9.67,4.83-6.4,2.38s-7.37,3.72-7.59,3.72-6.17,3-6.17,3l9.67-6.25s9.82-5.8,10.71-5.8,6.25-2.39,6.25-2.39l11.46-3.27L598.2,563l4.39-4.1,9.89-7.21,5.88-4.47-.15-5.58-.3-2.08-3.57-.52-6,5.06-32.44,23,36.23-29,4.69-1.71a45.14,45.14,0,0,1,3.72-2.82c.74-.38,1.63-4.62,2.23-5.06s1.12-4,1.12-4l-2.79,25.62Z" transform="translate(-421.43 -378.64)"/><path class="cls-14" d="M589.72,615.71,585.18,620,578,626.72s-7.88,8.48-8.33,9-7.36,8-7.66,8.48-6.47,8.7-6.47,9.15v-2.68c0-.15,1.93-4.76,1.93-4.76l3.27-5.43-3.13,3L553.41,651l-4.16,14.73-2.61,16.52,2.83-5.88s4.09-10.57,4.46-11.09,5.29-8.7,5.73-9.67,6.25-8.78,6.25-8.78l21.28-24.55,10-14.36Z" transform="translate(-421.43 -378.64)"/><path class="cls-14" d="M596.49,615.27c-.15.37-10.34,15.17-10.72,15.4s-9.67,12-9.67,12-4.17,5.73-4.2,6-5,6.69-5.17,7-4.91,7.36-5.21,8-4.69,6.48-4.69,6.48-3.57,4.61-3.42,3.94,3.35-9.15,3.8-10.42,3-6.1,3-6.1l-6.33,7.74-7.29,17L564.87,699l14-3.72L592,693.83l4.61-4,6.25-16.07,1-11.9,1.79-6.4.45-10.86-1.79,3.27-7.14,12.5-2.68,1.93a17,17,0,0,0-.3-3.57c-.3-.59,4-5.65,4-5.65l2.83-6.84L589.42,660.5l-4.17,3.87,6-8.33-10.42,8.77.71,2.57-.71,2.94L571,679.4s-6.84,8.63-6.4,6,9.67-16.82,9.67-16.82,9.53-8.92,9.68-10,8.62-13.5,8.62-13.5l4.62-2.87,9.82-9.08,2.28-1.37,2.33-5.47,2-19L609.8,615l-4.61,8.63s1.49-10.42,2.09-11.31-2.24-3.12-2.24-1.93-8.63,14.43-8.63,14.43l-19.93,31.54-18.9,24.85s3.27-9.07,3.27-9.52,19.94-28.12,19.94-28.12L593,624.79l12-21.42Z" transform="translate(-421.43 -378.64)"/><path class="cls-15" d="M602.61,621.91l-4.46,8.14,6.55-2.19,5.06-7.83a22.65,22.65,0,0,1,1.28-3v5.46s-2.08,4-2.57,5-6,7.14-6,7.14l-9.82,7.64-5.75,6s-4.46,7.83-4.46,8.33-5.06,7.34-5.06,7.34l-11.71,14.29s-3.87,3.86-4,4.46-1.09,4.36-1.09,4.36,3.08,1.79,3.87,1.39,6.25-5.65,6.25-5.65l9.36-8.53,4.73-6,4.26-4.57,3.67-6-1.19,5.56s-6.05,7.34-6.25,7.64-10.41,10.31-10.91,10.81-4.76,6.45-4.76,6.45l7.14-3.77s7.64-8.44,9-9.33,8.33-9.42,8.33-9.42,5-4.76,5.36-5.56,4.46-8.23,4.46-8.23v4.76l-1.49,5.56-1.58,6s-5.06,4.46-5.46,4.66-7.44,7.24-8.13,7.74-5.65,5.85-6.55,6.44-5.36,4.47-6.25,5.36,5.36.3,6.25,0,10.12-3,10.61-3.47,6.15-6.94,6.45-7.24,5-7.89,5-7.89l-6.25,16.07-4.61,4-13.09,1.49-14,3.72-10.47-9.65,3.08-4.79s1.29-2.77,1.69-3.47,5.65-6.84,5.65-6.84l7.94-10.42,10.81-15.27s9-11.21,9.22-12.3,5.66-11.51,5.66-11.51l6.35-11.31Z" transform="translate(-421.43 -378.64)"/><path class="cls-15" d="M577.42,642.74l-8,10.52s-10.31,15.17-10.31,15.47-6.45,8.33-6.45,8.33l-3.23,7.71,3.45,3.18s2.26-7.31,2.26-7.61,4.26-8.63,4.26-8.93,5.66-8.73,5.66-8.73l6.05-8.63s4.17-5.65,4.36-5.95l7.29-10.61Z" transform="translate(-421.43 -378.64)"/><path class="cls-11" d="M640.11,509.33s-3.57,3.77-.79,7.93S651.53,523,651.53,523l11-6.85,20.23,3.27S684,526,684,526.59s1.79,17.65,1.79,17.65,4.16,13.3,4.16,14.09v11.31l1.79,14.08,3.37,5.95s1,16.62,0,16.15L686.93,602l-3-14.08s-4.76,5.55-4.76,8.73.2,20.63.2,20.63l3.37,10.32,2,8.73,2,4.16.81,11.41-5,21.33L680,679.54,677.6,672l-4.11,8-6.25,1.64-2.13-6,7.34-7.15s-4-6.87-4-5.71-7.94,13.65-7.94,13.65l-7.73.6-2.38,5.26-13.1-.9s-13.09,2-14.88,1.79-9.12-.57-10.31,0-4.77-.59-4.17-.9,8.13-6.45,7.54-7.84-7.87-7.54-7.61-8.53,5.62-5.76,6.82-5.76,20.23-1,20.23-1,7.14-7.48,6.75-7.91-11.31-2.41-13.49-2.41-7,.4-8.54,0-8.13-6.74-8.63-7.34.7-10,.7-10l37-.14L660.1,629l4.61-5.06-8.33,3.42H641.65l-10-2.08-9-2-1.78-8.33s4.76-3.87,6.34-3.52,8.93.64,10.32,0,16.17-8.73,16.17-8.73l7.59-7-23,.68-13-1.28-2.43-12.3,8.78-20.43-2.43-12.9.39-24.9,2-13.59s4.11-7.34,4.91-7.34S640.11,509.33,640.11,509.33Z" transform="translate(-421.43 -378.64)"/><path class="cls-13" d="M635.94,496s7.94,8.14,8.53,7.54,9.53,1,12.5,1.59,24.6,1.39,24.6,1.39l9.13,1.78s8.53,4.57,9.52,5.16,5,5.76,5,7.34v6.35l-6.35-7.34-1.19,4.66-.79-10.61s-3.37.4-3.57,2.58-.8,5.95-.8,8-3.77,3.48-3.77,4.47-.59,4,1.19,6.74,5.45,11.91,5.6,12.5-.15,9.92,0,10.52,2.54,8.13,3.53,6.54,3.17-12.89,3.17-12.89l4-2.78s1.19,7.94,1.59,8.53,2.38,12.3,2.38,12.3,1.79,11.71,2.18,13.89,2.19,9.11,2.19,9.11.79,6.76.79,7.35,3.37,8.73,3.37,8.73l1.81,4,.18-12.2,1.78-7.44-1-13.24-1.49-9.67.6-6-.3-9.17-5.66-8.53-.29-6.55-4.76-5.65-.45-15.63,1.93-2.82-.74-3.87-22.17-9.38-23.81-1.1-12.64-2.51-10.72-4-4-1-5,.09Z" transform="translate(-421.43 -378.64)"/><path class="cls-15" d="M695.5,524.5l-2.42,3.67,1.21,6.75,2.56,4.36,2,7.54-1.58,10.12A85.36,85.36,0,0,1,701,549.2c1-1.39,7-3.77,7-3.77s1.19,6.15,1.19,7,1.19,7.93,1.19,7.93l3,7.54,1.39,8.53,1.39,15.48L717.48,575l-2.58-6.35,3.57,11.11v10.52l.8,8.53,1.39,2.48,1.78-7.44-1-13.24-1.49-9.67.6-6-.3-9.17-.94,4.07-1.09,1.68s-3.58-4.71-3.72-4.81-1.15-3.17-1.15-3.17l-1-3.38s-.39-1.83-.59-2.72-.65-8.29-1.29-8.29-5.41.35-5.41.35l-.74-1.93s-2-3.43-1.39-4.07,4.26-.64,4-1.49-5.51-3.87-5.51-3.87l-2.13,2.43,1.39,7.49s-3-3.87-3-4.16-.44-3.72-.34-4.72-.9-6.64-.9-6.79-1.44-2.63-1.44-2.63Z" transform="translate(-421.43 -378.64)"/><path class="cls-13" d="M703,559.92s-1.94,9.52-1.79,10.71S703,586.4,703,586.4s4.26,5.21,4.81,5.65a59.87,59.87,0,0,1,3.37,5.81v-9.67s-2.38-7-2.38-8-.44-11-.15-11.46-1.94-6.84-2.46-8.77-1-8.63-1.26-7.15S703,559.92,703,559.92Z" transform="translate(-421.43 -378.64)"/><path class="cls-15" d="M704,561.85v8.63c0,.45.3,6.4,0,7s2.15,8.78,2.15,8.78l3.36,4.91.74-2.82s-2.38-4.85-1.79-5.81-.69-9.07-.69-9.07l-.66-7.89Z" transform="translate(-421.43 -378.64)"/><path class="cls-13" d="M699.38,589.53l11.75,12.94,6.7,7.59-4.76,7.74H708.6v3.42s-4.36,0-4.63.59-1,3-1,3l-3.57-5.36a49.65,49.65,0,0,1-2.09-4.76c0-.45-.44-7.14,0-8s-.14-6.55.45-7.74a21.41,21.41,0,0,0,1.64-3.72Z" transform="translate(-421.43 -378.64)"/><path class="cls-15" d="M701.16,595.63,698.78,602,700,612.59l4.47.89s-1.94-6.84-1.49-6.32,4.81,4.19,4.81,4.19,2,3.32,2.48,3,2.68-1.63,2.53-2.38-5-4.76-5-6.17-2-4.54-2-4.54L704,598.45Z" transform="translate(-421.43 -378.64)"/><polygon class="cls-16" points="279.72 221 279.72 226.37 283 234.84 278.54 233.95 277.35 223.38 279.72 216.99 279.72 221"/><path class="cls-15" d="M708.9,626.28l3.88,4.16h3.86s-.6,2.38-1,2.53-6,0-6,0l-1.88,3.57-3.32-2.08-2.83-2.38-1.64.74s-2.23,1.79-1.19,2.83,3.82,1.74,5.19,1.84,3.89-.55,4.93,0,2.23-.8,2.23-.8l3.57-.74-.44,2.53-5.4,4.89H705l-2.53.76h-3l-1.64-1.93L694,645.07s2.07,4.27,1.48,4.72.44,3.86,0,4.31,3.28.89,3.28.89l-1,3.87L694,661.54l3.08,2.83h4.06l2.81,3,3.59,2.94h-5.95s-6-2.68-6.11-1.64a28.93,28.93,0,0,0,0,3.57l5.66,1,1.49,3,2.08,1.34a14.11,14.11,0,0,1,3,.52,23.6,23.6,0,0,0,3.87.67l2.31,2.38,1.78,4.09a11.28,11.28,0,0,1-1.71-2,36.18,36.18,0,0,0-2.9-3.6l-3.64-.81-5.29-.67-3.19-.08s-1.72,1.86-.38,2,3.2.52,3.2.52l3.5,1.79,1.93,1.26,2.38,3.94-3-3.12-3.42-2.23-3.94-.45s-2.75-.07-2.75.6a7.16,7.16,0,0,0,1.48,2.82c.23.08,4.17,2,4.17,2s1.41,2.61,1.56,2.83,2.9,3.42,2.9,3.42l.11,3.12s-5.54-5.5-5.54-5.72a23.61,23.61,0,0,0-4.09-3c-.3,0-5.36-.37-5.36-.37l-3.27,1.56a26.6,26.6,0,0,0-1.64,3v3.49l1.2,2.16,1.86,1.42-9.68,1.33-1.78,2.24-8.91-2-13.41-2.95L651.91,695,633,702.16l-2.16-7-52,.15L592,693.83s10-3.05,10.19-3.05,8.28.59,8.9.59,10.82-.22,11.19-.15,10.56.38,10.56.38,9.75-2.46,10.05-2.46,8.11,1.49,8.11,1.49,4.09,2.68,7.36,1.86,4.84-2.38,5.58-2.31,4.39-5.06,4.39-5.06l3.2-1.26-1,7s6.84-.37,7.21-.74,5.51-5.58,5.66-5.8,2.6-3.5,2.9-4.17,2.9-5.43,2.9-8.7V661.39c0-1.56-.3-6,.37-8s2.68-7.21,2.68-8.33,1.71-6.32,1.71-6.32,2.31-7.67,2.31-8-2.53-6.77-2.53-7-3.72-5.06-4.69-7.29-2.82-6.32-2.82-6.32l4.16,1.14s4.39,4.66,4.39,5.33,0,7.29.22,7.59,2.61,5.43,3,5.35l6.55-1.41Z" transform="translate(-421.43 -378.64)"/><path class="cls-16" d="M695.5,637.29l-1.83,5.45-2,7.15-.59,5.25-.6,7.44-.6,6.65V676s-4,6.7-4,7.32-3.77,5.78-3.77,5.78-2.28,2.68-2.78,2.77-7.44,1.1-7.44,1.1l-4-.5s-1.29-2.38-1.58-1.88-2.29,4.76-2.29,4.76l-4.46,2.08-3.57.45,14.43,4,7.89.9,1.78-2.24,9.68-1.33-3.13-1.69-2.28.79L683,697.2l-.3-3a17.32,17.32,0,0,1,1-3c.29-.3,1.68-2,1.68-2a22.33,22.33,0,0,1,2.68-2.38c.5-.2,6.35-.4,6.35-.4l4.56,1.09,3.37,2.28L699.63,687l-3.38-.79s-4.16-1-4.46-1h-4.07c-.79,0-.2-2.48,0-3s4.86-2.08,4.86-2.08l4.52.3-3.62-1.79s-1-.2-.8-.59S697.1,676,697.1,676l3.52,1.19-.7-2.18-4.42-.4s-2.62-1.48-2.62-1.88-.2-2.58.2-3.17a29.84,29.84,0,0,1,3.47-2.78l6.35,2.38v-1.39l-2-1.39a18.76,18.76,0,0,0-3.08-.59c-.89,0-3.37-.3-3.37-.3l-.9-1.39-.79-5.06,4.32-2.18-1.24-.35h-2.48s0-2.92.1-3.62.29-3.87.29-3.87l-.49-3L695,641Z" transform="translate(-421.43 -378.64)"/><polygon class="cls-16" points="286.82 249.12 282.95 250.51 277.89 251.31 280.97 251.31 283.45 253.19 285.24 254.68 288.71 252.89 292.38 253.29 290.29 251.9 286.82 249.12"/><path class="cls-16" d="M709.05,638.38,705.38,640a18.67,18.67,0,0,1-3.08,1.29c-.29-.1-3.67-.8-3.67-.8l-1-2.08,1.69,3.37,1.68.8h4.27l3.77-.4,2.68-2.78,1.49-2.08Z" transform="translate(-421.43 -378.64)"/><path class="cls-16" d="M696,702.76l.58,4.75-2.22,11.32-9.23,9.07,15.33-9.17v-1.29l.59-4,2.39-4.37,2.08-2.87-1-3.47s-2.19,3.67-2.38,4.16-2.78,5.56-2.88,5.85-1.09-3.57-1.09-3.57l.2-7.14Z" transform="translate(-421.43 -378.64)"/><path class="cls-12" d="M491.3,678.57l-13.87-5.77-2.18,2.89,1.78,2.88,8.33,3.66L497.07,688l12.3,6.87,5.16,6.15-8.33-3.17L486,686.89l-9.52-3.6s-5.36-5.13-6.15-5.73-13.1-7.54-13.1-7.54,4,8.33,4.57,8.33,3.37,7.74,6.35,8.14,9.91,4.76,9.91,4.76l.4,9.72L476,710.89l-3.57,5.56L471.08,726h-4.36L462,721.4s-5.15-12.1-4.76-13.29S452,698,452,698l-5.36,8.34-1.59,12.1v12.89s3.77,11.11,3.77,11.71,2.18,11.7,2.18,11.7l2.19,5.76,1.38,6s6.15,6.55,5.36,6.35-8.73-6.95-9.52-8.33-3.57-15.28-3.57-15.28-3.77-15.87-3.77-16.86,1-17.66,1-18.45,1.19-12.8.4-14.83-4.76-4-4.76-4v13.89L436.56,720v5.15s-.59-12.89,0-13.68,1.19-10.12,1.19-11.31a42.61,42.61,0,0,1,1.39-8.34c.79-2.57,5.95-8.55,5.95-8.55l-7.74,3.79-4.56,8.73-3.47,15.06,1.49,4.53,1.34,16.52,4.61,8.48,3.29,9.74,5,16.3,12.8,13.84,11.9,3.27.45-11.46,3.87-5.06,2.38.3,2.53,5.51,8.92,9.22,13.68,11.16L524,799.47l-18.6,4.32H488.54l-6-3.72L476,802.52l-4.83-.37-2.68-4.61h-8.63l-2.38-4.76-2.83,5.8-7.06.15v1.41l-3.64,4.39h-7.59l-14.88,3.72,400-6.1L819,798.28l-.9-5.21-4-1.48-3.87-6-1.49,3.43-6.4,1.78-7.14,8-8.63-1.19-1.64-2.38,19.5-12.8,12.94-14.29,3.12-10.86s-6.24,4.32-7.88,5.51-13.24,8.18-13.69,8.93,1.19-5.66,1.19-5.66-1.34-6.69-3.42-7.88-15.48-5.06-15.48-5.06l-8,.15,14.28-4.17s5.21-5.95,4.62-6.7-8.93,2.53-8.93,2.53l-7.89,2.68s10.42-5.06,10.42-6.55-6.55-2-6.55-2l-18,6.91L733.9,751l-11.31-2.38s-2.83-.29-2.53.45,5.49,1.93,5.49,1.93.42,1.64,0,1.64-10.55-1-10.55-1l-8.93-1.34,12.35-7.14,13.1-3.94s28.57-6,31.09-6.77,10.27-1.49,14.44-2.68a84.43,84.43,0,0,0,9.67-3.72s-17.86.59-18.45.59-10.57,1.34-10.57,1.34-4.16,0-3.27-.74,20.39-11.46,21.43-10.86,9.82,1.63,10.41,1.19,8.33-3.13,8.33-3.13l-15.92.3-14.88,3.27-15.62,6.55-11.6,1.64-9.53,6.1-10.41,3L705,740.4l-10.86,6.4-7.44,1.49-6-8.48-2.53,1.48s1.44,12.35,1.24,13.25a13,13,0,0,0,.84,4.91,59.79,59.79,0,0,0,3.42,6.54s-.89,3.57-1.93,4.62-5.5,6.39-5.5,6.39l4.61,4.47s1.78,4.61,2.08,5.65-8,1.19-9.08,1.19-7.44-2.23-7.44-2.23-16.21-.6-18.74-.6-24,1.34-24,1.34l-13.32,3.57-13.24,1.49-7.29.6,3-7,10.86.15L619,785l7-7.14-16.66-.3H599.09L594.18,773l.3-6.4,2.68-8.78,6.4-3.57s-2.09-7,1.63-7.89a34.5,34.5,0,0,1,7.14-.89l7.59,2.08,6.1,4.17s2.83-.3,3.87-1.49,9.08-4.31,9.08-4.31l8.78,5.35,7.59,2.38,3.57,7-11.16,6.1-6.55,2.08,7.74,1.34-14.44,7.59,8.19,2.53,15-3.43,10.11.15s12.35-6,9.23-6.25-13.54-1.48-13.54-1.48-1.94-1.34-1-1.79-.75-6.84-.75-6.84l5.66-6.85-3.42-5.5s-6.11-3-7.89-3-8.18.3-10.42-.59-10.26-8.63-10.26-8.63l17.26,1.72,15-1.72,6.24-5.21,11.16-3-14.88-1.78-18,6.84-58-2.83s-10.86,1.79-8.78-6h-2.08L573.05,718s-11.18-.87-15.27-3l-11.14-4.32-6-1.78s9.37,4.91,11.75,7,2,1.19,2,1.19H541.81s0,2.23.89,2.38,6.84.6,8.63,1.94a41.12,41.12,0,0,0,7.59,4.31c1.49.45,8.78,2.23,9.52,2.23s12.35,3.87,12.35,3.87,4.61,1.34,4.61,2.53-1,7.59-1,7.59l3.42-2.75-2.23,5.43,3.87.74-4.31,3.57-2.39-3.27-7.43-.6-14.59-2.67s.6,2.82-.89,3.27-11.31-1-11.31-1l-9.07-6.76s-13.69-12.14-15-12.59-12.35-11.75-12.35-11.75l24,14.43s18.6,9.26,20.69,9.91,18.6,2,18.6,2-3.13-5.81-5.06-6.1-15.18-2.83-15.18-2.83l-13.54-8.19S523.8,712.43,523.36,712s-18.9-10.17-19.64-9.92-17.12-5.4-17.12-5.4,4.17,9.07,4.92,9.22,8.62,2.53,11.6,5.51,8,10.26,8,10.71,5.5,8.18,5.5,8.18-8.93-8.78-9.37-8.78-9.53-3.12-9.53-3.12-3.86-1.93-4.91-1.93S482.14,715,482.14,715s-2.38,8.46-.74,8.9,9.52,4,9.52,4,5.51,5.06,11.46,11.24,5.2,5.43,5.2,5.43l6.11,6.69,6.24,5.36s5.81,18.15,6.55,18.3,17.86,4,17.86,4l13.83-4.61,12.65-2.83,9.31,4.91-9.9,7.44-20.84,2.83L534.81,784l-11.3-7.44-6.4-10.86-10.86-13.25-13.4-10.26s-10.41-14.73-11.45-14.29-11,0-11,1.49-2.83,8.18-.45,10.86,11.61,14.14,11.61,14.14,8.63,8.78,6.25,9.52-6.11-1.64-8-3.12-7.59-9.38-7.59-9.38-7.88-2.83-8.18-2.38-4.17-8.93-4.17-8.93a11.39,11.39,0,0,1-1.49,2.24,37,37,0,0,1-4.91.74s-.59-9.52-.89-10.71a84,84,0,0,1-1-8.34c0-1,1.93-5.35,1.93-5.35s3.13,5.8,4.77,6.4,7.14,2.82,7.14,2.82l9.67-1-.3-3.12,1.94.29,2.67-5.5s-1.48-7.14-1-6.85,4.47,2.68,4.76,1.34,2.38-7,1.94-7.73-1.49-7.74-1.49-7.74l2.08-3.72L500.29,699l12.2,5.2s9.08.9,9.53.9,9.22-1,9.67-.6,14.95,4.51,14.95,4.51l-28.2-16-9.67-2.82Z" transform="translate(-421.43 -378.64)"/><polygon class="cls-14" points="42.55 298.38 46.57 304.65 53.56 307.9 59.52 312.51 59.52 313.7 67.7 313.7 83.47 320.4 70.53 312.96 63.68 309.31 56.54 307.3 49.1 300.75 39.88 294.95 42.55 298.38"/><path class="cls-14" d="M482.29,677.46l5.36,1.79,6.54,4,6.1,3,8.48,4,7.44,4.76,8.78,4,6.91,1.67-8.69,2s-4.32-1.79-4.61-2.24-6.85-6.24-6.85-6.24-9.82-3.28-10.12-4.17-7-4.91-8.33-5.36-6.55-1.77-7-2.52S482.29,677.46,482.29,677.46Z" transform="translate(-421.43 -378.64)"/><path class="cls-14" d="M489.28,700.08l4.91,4.91,10.72,3.72s11.6,4.31,12.35,5.21,15.32,7.88,15.32,7.88l10.57,8,10.41,5.2s18,1.19,16.07,1.05-14.23-1.19-15.23-2.53-6.79-6.25-9.62-7.29-12.88-8.18-12.88-8.18-16.43-7.89-20.6-9.83-9.22-4.76-10.86-5.5S489.28,700.08,489.28,700.08Z" transform="translate(-421.43 -378.64)"/><path class="cls-14" d="M449.26,706.18s-2.09,8.63-2.09,9.07.6,12.8,0,13.25,1.05,9.31,1.05,9.31l3.42,10.33s1.78,6.1,2.08,6.54,3.72,8.93,3.72,8.93l3.87,7.44s-.74,3.42-1.34,3.42-7.29-4.16-7.29-4.16S447.21,760.79,447,760s-3.58-10.71-3.73-11.9-1.94-14.14-1.94-14.73.75-16.22.75-16.22l1.48-14.43-2.23-2.68v10.86c0,.74-2.53,9.37-2.53,10.27v7.73s-4.46-1.34-4.46-2.53.45-6.08,0-8.32-.6-6.7,0-8.49a36,36,0,0,0,1-7.74c0-1.63,1.64-9.22,1.64-9.22l2.53-4.69-5.6,8.41-1.84,11.31-1.34,7.73,1.34,16.52,4.61,8.48,8.33,26,12.8,13.84,11.9,3.27.45-11.46,3.87-5.06,2.38.3-1.34-6-6.85-7s-3.72-3-4.31-3.43-5.8-6.24-5.8-6.24l-3,2.67s-3.87-7.29-4-8.25-1.63-15-1.63-15.7S451.64,712,451.64,712s7.74,12,7.74,10.86-3.72-7.88-4.32-9.52-2.08-6.1-2.08-6.1l-1-7.14Z" transform="translate(-421.43 -378.64)"/><path class="cls-14" d="M477.23,733.11l9.52,11.46s12.65,11.31,13.1,11.6,8.92,11.76,8.92,11.76,13.25,8.48,13.69,8.92,11.91,9.23,11.91,9.23,11.75,4.76,15.92,3.72,24.55-3.72,27.23-4.61,7.14-12.05,7.14-12.05-9.08-4.77-10.12-4.77-22.17,5.36-24.4,5.51-6.25-1.49-9.37-3.27-8.06-3.87-8.87-4.32-9.58-6.55-10-7.89-4.61-11.9-4.61-11.9,10.41,11.31,11,11.46,14.28,5.65,14.13,4.91S526.18,751,526.18,750.22s-3.86-5.8-4.76-7.44-.89-6.4.15-5.8,8.33,4,8,3.57-10.79-7.44-10.79-7.44-.59-4.91-1-6.4-4.91-8.62-4.91-8.62l7.14,5.65,12,12.36s7.82,8.91,8,9.36,9.52,7.74,9.52,7.74,4.92-2.53,7.59-3.87a40.06,40.06,0,0,1,7.89-2.83c.59,0,6.77.6,7,.89a45.1,45.1,0,0,0,8.23,1.64c1.4,0,9.44-.89,9.44-.89l3-11.31L586,732.66l-17.56-4.76-9.52-2.23-7.59-4.31,8.33.44,10.86,1.94s6.1.74,5.66,0-12.5-3.13-12.5-3.13l-7.26-6.18s12,4.05,16.63,3.55l10.27,6.2h2.08s-3.12,6.7,8.78,6l58,2.83,18-6.84-2.38,3.72L660,734l-17.41.3s-34,.6-34.64.6-14.16-.45-14.16-.45.29,7.89.29,9.82-1.78,8-1.78,8.78-1.19,7-1.19,7.44-.3,10.41-.3,10.41l-.89,11.91-7.15,8.33v3.72l-17.11,1.19H533.33l2.23,1.93,27.52.9,1.79,7.18-143.44,2.19,14.88-3.72h7.59l3.72-4.91-.07-.89,7.06-.15,2.83-5.8,2.38,4.76h8.63l2.68,4.61,4.83.37,6.63-2.45,6,3.72h16.81l18.6-4.32-22.33-6.25-13.68-11.16L479,772.84l-1-7.44,7.59,6.4,8.93,6.54,4.91.75s3.72,1.78,3.72,2.53.6,5.2.6,5.2l7,2.53,6.25-1s-1.49-4.16-3.13-4.76-8.92-1.19-8.92-1.19l-5.06-4.17-1.34-5.2s-3.87-7.74-4.61-8.48-7.89-7.74-9.68-10.57-7.14-8.93-8.48-10.41-4.16-7.07-4.16-7.78a20.06,20.06,0,0,1,1.19-3.53Z" transform="translate(-421.43 -378.64)"/><path class="cls-15" d="M577.81,751.86,568,754.39l-9.07,1.34-18.45-3.87L530.94,744l-7.43-3.27s5.94,4.16,6,4.46,10,7.89,10,7.89l7.07,5.8,5.73,3.72s-9.22,2.38-10.71,2.08-12.13-4-12.13-4,6.92,3.92,7.52,4,15.77,5.93,16.21,5.93,7.44-2.39,7.44-2.39l12.2-.74,13.1-.74,4.85,1,.21-7.3,3-16.22-1.63,2.53-3.28,5.8s-3.72.75-4.46.75S577.81,751.86,577.81,751.86Z" transform="translate(-421.43 -378.64)"/><path class="cls-15" d="M586.3,772.84,580.79,785s-3.42,3.12-5.36,3.57-13.83,3-14.28,3-14.73.29-15.33,0-13.92-5.51-13.92-5.51L521.27,780,499.7,760l-15.77-15.62-7.44-8.67-2.83-.85,1.34,2.91,7.29,10.48,10.86,12.2,6.7,8.78s1.63,7.58,2.38,7.58,6.54.45,6.54.45l9.23,6.25,9.08,3.72-5.36,4.45h-8.48s-7.74-.88-8.33-1.47-7.15-6.7-7.15-6.7l-7.73-5.5L478,765.4l1,7.44,8.92,9.22,13.68,11.16L524,799.47l-18.6,4.32s8.48-.6,9.67,0,18.6,1,18.6,1h18.9l8.18-.89-1-4.17-25.29-.6-1-3.12h32.28l17.11-1.19v-3.72l7.15-8.33,1-15-4.85-1-10.55.6a18.11,18.11,0,0,1,3.41,1.18C580.34,769.27,586.3,772.84,586.3,772.84Z" transform="translate(-421.43 -378.64)"/><path class="cls-16" d="M581.5,788.16l-19.61,5.21-17.7-.74-13.84-5.81s-21.87-16.36-22.47-16.21-31.39-32.8-31.39-32.8l15.62,17.84,9.08,12.43,1.48,6.69,7.44.45,8.34,5.8s11.3,6.4,11.08,6.85-4.09,6.54-5.28,6.54H513.83c-1.34,0-14.88-5.95-14.88-5.95l-14.13-13.54-6.44-6.6.64,4.52,8.92,9.22,12.65,11.31,23.36,6.1-18.6,4.32h14.14l4-.6h14.21l8.92-1.64,12.13.75.89-2.53-26.78.45-3.35-4.77a6.91,6.91,0,0,1,3.8-1.34c2.08,0,14.73.3,14.73.3l15,.75s10.12-.75,10.42-1.34,4.31-1.34,4.31-1.34l10.72-10.12Z" transform="translate(-421.43 -378.64)"/><polygon class="cls-15" points="53.42 385.86 44.64 380.66 37.2 373.51 33.18 372.77 40.77 384.82 43.3 395.09 46.42 398.66 40.47 398.66 32.21 395.39 25.15 386.76 17.86 365.48 18.61 371.5 23.66 387.8 36.45 401.64 48.36 404.91 48.8 393.45 52.67 388.39 55.05 388.69 53.42 385.86"/><path class="cls-16" d="M590.85,755.65H580.13s-6.48,1.56-7.23,1.12-10.11.08-10.11.08l-4,5.27,7.29,1.72L576.18,766l14-1.48.9-4Z" transform="translate(-421.43 -378.64)"/><path class="cls-14" d="M685.09,795.8v-3.37s-3.91-2.58-5.6-2.58-13.19,1-13.19,1-16.87-2-18.55-2-13.2,1.19-14.39,2.38-28,1.19-29.36,1.09-15.47,3.47-15.47,3.47l-4.37-1.59,3,4.17-5.64,4-2.64-4.76a25.56,25.56,0,0,0-4,1.19c-1.26.59-10,7.28-10,7.28l126-1.92Z" transform="translate(-421.43 -378.64)"/><path class="cls-15" d="M675.62,796.2s-11.51.59-14.88,0a129.4,129.4,0,0,0-13-1.59c-2.09,0-9.63,4.56-13,4.56s-21.23,1.19-23.71,1.19H604.2c-1.59,0-9.22-1.78-10.17-1.78s-5.5,1-5.5,1l-8.4,4.22-4.1-1.44L568.89,806l122-1.86L684.15,799l-2.58-.6Z" transform="translate(-421.43 -378.64)"/><path class="cls-14" d="M684.55,748.09l1.09,7.14v21l1.69,11.51-2.24,8,5.8,8.34,130.5-2L819,798.28l-.9-5.21-4-1.48-3.87-6-1.49,3.43-6.4,1.78-7.14,8-8.63-1.19-1.64-2.38,12.5-12.4,6.35-3.77L813.7,766,798,776.11a25.37,25.37,0,0,0-2.78,2.23c-1,1-14.09,8.53-14.09,8.53l.2-6.94,3.77-3.82L773,783.3l-16.47,5.56H740.69l-15.14,5.75-18-1-12.27-3.37h10.19l9-.2,17.06-3.37,15.87-3.38,10.91-4.76-6.55,6.94,11.11-4.76,10.91-3.57L769.26,775l14.88-5.11,5.16,3.32,2-.19,4.17-4.57-1-5-7.94-.39,3.77-4.76-7.35-4.61-12.09,3-4.76-4.56L779.58,750l8.53-3.57-5.76,1-10.11,2.78-2.58-2.38,9.52-5.16-1.79-1.93-11.9,6.5-9.92,1.19L733.9,751l4.41,2.19,19.44.2-23.8,2.3-12.3-.92-7.74-1.38-10.51-3-8.11-.2Z" transform="translate(-421.43 -378.64)"/><path class="cls-15" d="M694.27,767l11.21,1.39s2.87,4.23,4.07,4,8.33,1.22,9.12,0,10.12-9.55,10.12-9.55,7.74-2.26,8.33-1.53,17.06,1.53,17.06,1.53,4.57,2.18,7.94,1.39,13.09-5.36,13.09-5.36h7.14v4.37s-6.15,5.55-7.73,5.75-10.52,5.75-11.51,5.75-13.69-.79-14.88,0-10.91,8.14-10.91,8.14-8.07,1.78-11.77,1.78-5.29.79-8.47,0a61,61,0,0,0-7.53-1.19l-3,4-10.32,1.39-1,4.16-3.2,4.44-1.2,6.68-5.8-8.34,2.24-8-1.69-11.51v-21l-1.09-7.14,9.52,3.87,13.49,2,18,1.71-6.09,1.66s2.58,5.36,2,5.36-12.1.4-12.1.4h-8.93Z" transform="translate(-421.43 -378.64)"/><path class="cls-16" d="M688.71,766s9.92,10.67,10.52,10.12,11.11,0,11.11,0l11.7,0,10.52-6.25s8.13-3.32,8.73-3.87,15.08,1,15.08,1,9.91-1.28,10.51-1,8.73-4.65,8.73-4.65l2.38,1.73s-6,6.38-7.14,5.67-12.3,1.87-12.3,1.87H743.67l-10.22,7.73-5.65,4s-17.46-.59-18.25-1-14.26-3.18-14.26-3.18l-6.58-7.34V777s4.82,3.18,6.58,3.77,9.1,2.58,9.1,2.58l-5.56,2.58-6.15-2.18-1.79-.6-2.18,4.77,4.17,2-2,4.76-5.8,1.19,2.24-8-1.69-11.51V761.34Z" transform="translate(-421.43 -378.64)"/><path class="cls-16" d="M690.89,760.82l12.9-.93,11.91.47-3.58-1.66,5-2s-12.89-.35-13.88-1.07-12.31-3.1-12.31-3.1l5.56,3.1-4.36,2.85-2.19-2.85-4.26-.42v6.11Z" transform="translate(-421.43 -378.64)"/><path class="cls-16" d="M765.49,754.34,754.18,757H743.07l-17.52-1.3v4H740.3s12.49,2.5,14.48,1.65,16.07-4.62,16.07-4.62Z" transform="translate(-421.43 -378.64)"/><polygon class="cls-17" points="342.67 377.88 330.76 379.86 322.33 380.36 308.84 379.29 304.11 377.01 321.64 378.31 332.75 378.31 344.06 375.7 342.67 377.88"/><path class="cls-15" d="M796,780.82c-.49,0-17.46,10.12-19.14,10.12s-13.59,2.78-13.59,2.78-9,4.36-9.33,4.46l-14.77,5.22,82.18-1.25L819,798.28s1.44-4.17-.9-5.21l-4-1.48-3.87-6-1.49,3.43-6.4,1.78-7.14,8-8.63-1.19L782.85,793s6.55-4.06,6.84-4.26,7.54-7,7.54-7l7.34-6.84Z" transform="translate(-421.43 -378.64)"/><path class="cls-15" d="M767.48,788.86c-.4-.2-14.51,4.46-14.51,4.46s-3.25,3.37-3.55,3.57-8.33-.49-8.33-.49l-5.36,2.67S726,802,724.23,802s-6.45-.2-7.15,0-7.63-1.49-8.63-2.08-6.34-3.08-7.09-3.57-5.5-2.48-5.5-2.48l.49-1,4.6-1,2.74,2.22,8.14,1.39s2.08.29,2.38.39,10.51,1.66,10.51,1.66l8-3.25s6.64-3.17,7-3.17,9.52-1,9.52-1l7.94-.2L774.91,784l5-3.08-5.15,4.47Z" transform="translate(-421.43 -378.64)"/><path class="cls-7" d="M740,706.82l-2.88-4.76s-5.85-1.78-6.15-1.78-10.91,4.06-11.8,4.46-9.92,6.94-9.92,6.94l-8.83,7.05-15.33,9.17-.44,2.23-4.17.15,2.68,10,3.57,8,7.44-1.49L705,740.4l11.61-5.21,10.41-3,9.53-6.1,11.6-1.64s6.1-2.78,6.1-3.27a22.24,22.24,0,0,0-1.31-3.28l-5.53-.29-1.19-3.21-2.58-1.75-1.49-.4.2-3.87Z" transform="translate(-421.43 -378.64)"/><path class="cls-7" d="M467.91,783.55l-2.58,1,1.88,7.94,2.18.49s.1,4.61.6,4.44a13.13,13.13,0,0,1,3.17.62l2.29,1.49,2.08,2.37,5.06-1.87,6,3.72h16.81l18.6-4.32-23.36-6.1L479,772.84l-2.53-5.51-2.38-.3-3.87,5.06-.45,11.46Z" transform="translate(-421.43 -378.64)"/><path class="cls-18" d="M732.36,705.93l-4.66,6.65-8.43,2.87-6.15,6.25a2.61,2.61,0,0,0,2.48,1.39c1.88,0,9.72-1.49,9.72-1.49s-4.66,5.46-5.46,5.86L709,732.71l-5.46,2.09h-4.66c-.3,0-5.35,2.28-5.35,2.58s-1.1.09-2.58,0-4.27-2.58-4.27-2.58l-6.15-4.52,2.68,10,3.57,8,7.44-1.49L705,740.4l11.61-5.21,10.41-3,9.53-6.1,11.6-1.64L745,722.79l.79-2.77-.49-2.68-3.48-1.29-1.68-1.69v-2l-2.09-4-1.38-1.79Z" transform="translate(-421.43 -378.64)"/><path class="cls-8" d="M734.15,717.83,731.47,720l-3.38.59-8.53.79s-1.29.1-1.29-.69,2.68-4,2.68-4,7.54-2.18,8.14-2.58,1.58-5.15,2.08-5.15a34.36,34.36,0,0,0,3.77-1.19l1.88,1.58h-2.58l-.09,4.17s2.08.2,2.18.49a10.74,10.74,0,0,0,3,2.09c.4,0,6,1.19,6,1.19l.49,2.68-.79,2.77,3.22,1.69-11.6,1.64-9.53,6.1-10.41,3L705,740.4l-11.26,6.48-7,1.41-3.57-8-2.68-10s2.58,6.3,3.08,6.4,3,7.84,4,7.64,6.65.4,6.65-1,2.68-4.76,2.68-4.76l9.22-3.67,11.71-4.67s9.22-4.56,9.52-4.66,6.55-1.49,6.75-2.18,1-4.37,1-4.37Z" transform="translate(-421.43 -378.64)"/><path class="cls-19" d="M738.81,717.34l2,3.87-5.06,2.67s-6.84,4.77-7.14,4.77-7,2.28-7.84,2.28-11.6,4.66-11.6,4.66-12.3,6.75-12.6,6.75-9.82,5.95-9.82,5.95l7.44-1.49L705,740.4l11.61-5.21,10.41-3,9.53-6.1,11.6-1.64L745,722.79l.79-2.77-.49-2.68-6-1.19-1.58.69Z" transform="translate(-421.43 -378.64)"/><path class="cls-19" d="M732.16,710.3l-1.59,4.16-5,2.18L721,719.12s.2.4,1,.4,7.35-.89,7.64-.89,5.86-2.48,5.86-2.48l-2.19-1.24Z" transform="translate(-421.43 -378.64)"/><path class="cls-19" d="M472.17,784v5l-.39,1.78s-3.28-.2-3.28-1.19a41.22,41.22,0,0,0-.79-4.56v5.75l2.78,1.59,3.47.5s1,1.88,0,1.88-2.91,2.84-2.91,2.84l2.11.53,2.29,1.49v-2.28l3-.6-.89,5.25,5.06-1.87,5.34,3.33,17.42.39,18.6-4.32-23.36-6.1L479,772.84l-2.53-5.51-2.38-.3-3.9,5.85-.42,10.67Z" transform="translate(-421.43 -378.64)"/><path class="cls-20" d="M480.8,779.14l-3.67,5.55-4.36-1,.69,3.87-.69,3.07,5.35,1.59-2.58,2.08L479,795.5l.9,1.79,4.75-.5,2.28,2.28s2.48,1.89,3,1.89,15.42,2.83,15.42,2.83l18.6-4.32-23.36-6.1s-21.34-20-21.57-20.53a43.67,43.67,0,0,0-2.88-3.42l2.58,4.66Z" transform="translate(-421.43 -378.64)"/><path class="cls-7" d="M474.75,770.41l3.67,5.06s1.19,2.87,1.49,2.87-4,4.37-4,4.37h-4.56s-1.4-3.92-1.39-4.25,1.69-5.08,1.69-5.57S474.75,770.41,474.75,770.41Z" transform="translate(-421.43 -378.64)"/></g></svg>