<?xml version="1.0" encoding="UTF-8"?>
<svg width="55px" height="38px" viewBox="0 0 55 38" version="1.1" xmlns="http://www.w3.org/2000/svg" xmlns:xlink="http://www.w3.org/1999/xlink">
    <!-- Generator: Sketch 55.1 (78136) - https://sketchapp.com -->
    <title>amex@2x</title>
    <desc>Created with Sketch.</desc>
    <g id="Page-1" stroke="none" stroke-width="1" fill="none" fill-rule="evenodd">
        <g id="Get-tickets" transform="translate(-1160.000000, -1241.000000)">
            <g id="Group-10" transform="translate(430.000000, 750.000000)">
                <g id="Group-8">
                    <g id="Group-7" transform="translate(0.000000, 480.000000)">
                        <g id="Group-2" transform="translate(719.000000, 0.000000)">
                            <g id="amex" transform="translate(11.000000, 11.000000)">
                                <path d="M0,2.46400685 C0,1.10317344 1.09642636,0 2.46509398,0 L52.4237949,0 C53.7852287,0 54.8888889,1.09628487 54.8888889,2.46400685 L54.8888889,35.5359931 C54.8888889,36.8968266 53.7924625,38 52.4237949,38 L2.46509398,38 C1.10366017,38 0,36.9037151 0,35.5359931 L0,2.46400685 Z" id="amex-bg" fill="#007ECD"></path>
                                <path d="M48.2164603,25.822938 L45.8068103,25.822938 L45.8068103,24.6467639 L47.9098519,24.6467639 C47.9098519,24.6467639 48.6766649,24.7331745 48.6766649,24.2422305 C48.6766649,23.7821081 47.5302415,23.8178832 47.5302415,23.8178832 C47.5302415,23.8178832 45.6619744,23.9736423 45.6619744,22.2966173 C45.6619744,20.6283985 47.3497806,20.7236152 47.3497806,20.7236152 L49.9416435,20.7236152 L49.9416435,21.9163008 L47.8555384,21.9163008 C47.8555384,21.9163008 47.1331106,21.7770533 47.1331106,22.2801057 C47.1331106,22.7017011 48.1171776,22.6417091 48.1171776,22.6417091 C48.1171776,22.6417091 50.1840102,22.4953065 50.1840102,24.0336344 C50.1840102,25.6825897 48.8524537,25.8295427 48.3799848,25.8295427 C48.278366,25.8295427 48.2164603,25.822938 48.2164603,25.822938 L48.2164603,25.822938 Z M36.1944911,25.8311938 L36.1944911,20.7324213 L40.4175108,20.7324213 L40.4175108,21.9163008 L37.5564164,21.9163008 L37.5564164,22.7017011 L40.3462608,22.7017011 L40.3462608,23.8608133 L37.5564164,23.8608133 L37.5564164,24.7260195 L40.4175108,24.7260195 L40.4175108,25.8311938 L36.1944911,25.8311938 Z M43.4421296,25.822938 L41.0318956,25.822938 L41.0318956,24.6467639 L43.1442814,24.6467639 C43.1442814,24.6467639 43.9023342,24.7331745 43.9023342,24.2422305 C43.9023342,23.7821081 42.7559108,23.8178832 42.7559108,23.8178832 C42.7559108,23.8178832 40.8876436,23.9736423 40.8876436,22.2966173 C40.8876436,20.6283985 42.5754499,20.7236152 42.5754499,20.7236152 L45.1760731,20.7236152 L45.1760731,21.9163008 L43.0817917,21.9163008 C43.0817917,21.9163008 42.3587799,21.7770533 42.3587799,22.2801057 C42.3587799,22.7017011 43.3416788,22.6417091 43.3416788,22.6417091 C43.3416788,22.6417091 45.4096795,22.4953065 45.4096795,24.0336344 C45.4096795,25.6825897 44.078123,25.8295427 43.6056541,25.8295427 C43.5034513,25.8295427 43.4421296,25.822938 43.4421296,25.822938 L43.4421296,25.822938 Z M25.1822856,25.8317442 L24.0002373,25.8317442 L22.5647259,24.3181837 L21.1210384,25.8317442 L20.2993279,25.8317442 L16.0844845,25.8317442 L16.0844845,20.7153594 L20.2993279,20.7153594 L21.0124114,20.7153594 L22.5647259,22.3400978 L24.1263847,20.7241656 L25.1647651,20.7241656 L25.1647651,20.7153594 L28.4498551,20.7153594 C28.4498551,20.7153594 30.1651101,20.5337321 30.1651101,22.2179122 C30.1651101,23.7221161 29.5951104,24.1893935 27.8453985,24.1893935 L26.5185142,24.1893935 L26.5185142,25.8317442 L25.1822856,25.8317442 L25.1822856,25.8317442 Z M23.4857192,23.3175826 L25.1647651,25.0969794 L25.1647651,21.5447905 L23.4857192,23.3175826 L23.4857192,23.3175826 Z M17.4475778,24.7254691 L20.2993279,24.7254691 L21.6355565,23.3175826 L20.2993279,21.9168512 L17.4475778,21.9168512 L17.4475778,22.7022515 L20.227494,22.7022515 L20.227494,23.8613637 L17.4475778,23.8613637 L17.4475778,24.7254691 L17.4475778,24.7254691 Z M26.5185142,22.8574603 L27.9172325,22.8574603 C28.3237076,22.8574603 28.6577648,22.6417091 28.6577648,22.3736713 C28.6577648,22.1067343 28.3237076,21.8898823 27.9172325,21.8898823 L26.5185142,21.8898823 L26.5185142,22.8574603 L26.5185142,22.8574603 Z M34.2088368,25.84 L34.2088368,24.8460035 C34.2088368,24.8460035 34.1533553,24.0683087 33.30478,24.0683087 L31.988408,24.0683087 L31.988408,25.84 L30.6334909,25.84 L30.6334909,20.7324213 L33.9197489,20.7324213 C33.9197489,20.7324213 35.6344198,20.5337321 35.6344198,22.2272687 C35.6344198,23.1089865 34.876367,23.4199544 34.876367,23.4199544 C34.876367,23.4199544 35.5263768,23.7138603 35.5263768,24.5774154 L35.5263768,25.84 L34.2088368,25.84 L34.2088368,25.84 Z M31.988408,22.8668168 L33.3871263,22.8668168 C33.7936014,22.8668168 34.1270745,22.6510656 34.1270745,22.3830278 C34.1270745,22.11499 33.7936014,21.8992389 33.3871263,21.8992389 L31.988408,21.8992389 L31.988408,22.8668168 L31.988408,22.8668168 Z M30.968132,18.8484513 L32.3300573,18.8484513 L32.3300573,13.7243611 L30.968132,13.7243611 L30.968132,18.8484513 Z M20.4797889,18.830839 L20.4797889,13.7238107 L24.7039765,13.7238107 L24.7039765,14.915946 L21.8428822,14.915946 L21.8428822,15.702447 L24.6321426,15.702447 L24.6321426,16.8604584 L21.8428822,16.8604584 L21.8428822,17.7256646 L24.7039765,17.7256646 L24.7039765,18.830839 L20.4797889,18.830839 Z M18.3586428,18.8313894 L18.3586428,15.3050686 L16.6620763,18.8313894 L15.5518619,18.8313894 L13.8459512,15.3221306 L13.8459512,18.8313894 L12.6633188,18.8313894 L12.4828579,18.8313894 L11.1740781,18.8313894 L10.7045292,17.7597885 L8.23180551,17.7597885 L7.75349641,18.8313894 L6.27301587,18.8313894 L8.52030941,13.7232603 L10.4247856,13.7232603 L12.4828579,18.4163986 L12.4828579,13.7232603 L14.6221085,13.7232603 L16.1113493,16.8951327 L17.5912458,13.7232603 L19.7304963,13.7232603 L19.7304963,18.8313894 L18.3586428,18.8313894 Z M8.80939732,16.4542738 L10.1269374,16.4542738 L9.46816736,14.9335583 L8.80939732,16.4542738 Z M44.9576511,18.8313894 L42.8108083,15.4173473 L42.8108083,18.8313894 L41.6462804,18.8313894 L41.4284424,18.8313894 L40.1570396,18.8313894 L39.6787305,17.7597885 L37.2054228,17.7597885 L36.7352899,18.8313894 L35.4895838,18.8313894 L35.2641537,18.8313894 L34.6141439,18.8313894 C34.6141439,18.8313894 32.792014,18.5804135 32.792014,16.4201499 C32.792014,13.5851135 34.8588466,13.6973922 34.9300965,13.6803302 L36.5997982,13.7232603 L36.5997982,14.8730159 L35.2291127,14.8900779 C35.2291127,14.8900779 34.3349842,14.8900779 34.2257732,16.0051591 C34.2140929,16.1339494 34.2076687,16.2506311 34.2088368,16.3601579 C34.2140929,18.0867176 35.7734156,17.5511924 35.824809,17.5346808 L37.503271,13.7232603 L39.3978188,13.7232603 L41.4284424,18.3558562 L41.4284424,13.7232603 L43.3422629,13.7232603 L45.4634089,17.0855661 L45.4634089,13.7232603 L46.8270863,13.7232603 L46.8270863,18.8313894 L44.9576511,18.8313894 L44.9576511,18.8313894 Z M37.7830146,16.4542738 L39.1011387,16.4542738 L38.4511289,14.9335583 L37.7830146,16.4542738 L37.7830146,16.4542738 Z M28.9818937,18.8313894 L28.9818937,17.8373929 C28.9818937,17.8373929 28.9281642,17.059698 28.0795889,17.059698 L26.7620489,17.059698 L26.7620489,18.8313894 L25.4077158,18.8313894 L25.4077158,13.7232603 L28.6933898,13.7232603 C28.6933898,13.7232603 30.4080607,13.5245711 30.4080607,15.2186581 C30.4080607,16.1003759 29.6500079,16.4113437 29.6500079,16.4113437 C29.6500079,16.4113437 30.308778,16.7052497 30.308778,17.5693551 L30.308778,18.8313894 L28.9818937,18.8313894 Z M26.7620489,15.8582062 L28.1607672,15.8582062 C28.5672423,15.8582062 28.9007154,15.6419046 28.9007154,15.3738668 C28.9007154,15.1063794 28.5672423,14.8900779 28.1607672,14.8900779 L26.7620489,14.8900779 L26.7620489,15.8582062 Z" id="amex-logo" fill="#FFFFFF"></path>
                            </g>
                        </g>
                    </g>
                </g>
            </g>
        </g>
    </g>
</svg>