<svg id="Group_7_Copy" data-name="Group 7 Copy" xmlns="http://www.w3.org/2000/svg" xmlns:xlink="http://www.w3.org/1999/xlink" width="245" height="226" viewBox="0 0 245 226">
  <defs>
    <clipPath id="clip-path">
      <rect id="Mask" width="245" height="226" fill="#f6bd3b"/>
    </clipPath>
  </defs>
  <rect id="Mask-2" data-name="Mask" width="245" height="226" fill="#f6bd3b"/>
  <g id="Group_7_Copy-2" data-name="Group 7 Copy" clip-path="url(#clip-path)">
    <g id="Line_Shape" data-name="Line Shape" transform="translate(-289 -244)" opacity="0.7">
      <path id="Rectangle_Copy_6" data-name="Rectangle Copy 6" d="M0,0,1.123.036,11.988,1200l-1.123-.036Z" transform="matrix(0.259, 0.966, -0.966, 0.259, 1159.515, 0.076)" fill="#fff" opacity="0.2"/>
      <path id="Rectangle_Copy_7" data-name="Rectangle Copy 7" d="M0,0,1.123.036,11.988,1200l-1.123-.036Z" transform="matrix(0.259, 0.966, -0.966, 0.259, 1159.515, 8.076)" fill="#fff" opacity="0.2"/>
      <path id="Rectangle_Copy_9" data-name="Rectangle Copy 9" d="M0,0,1.123.036,11.988,1200l-1.123-.036Z" transform="matrix(0.259, 0.966, -0.966, 0.259, 1159.515, 16.076)" fill="#fff" opacity="0.2"/>
      <path id="Rectangle_Copy_8" data-name="Rectangle Copy 8" d="M0,0,1.123.036,11.988,1200l-1.123-.036Z" transform="matrix(0.259, 0.966, -0.966, 0.259, 1159.515, 24.076)" fill="#fff" opacity="0.2"/>
      <path id="Rectangle_Copy_11" data-name="Rectangle Copy 11" d="M0,0,1.123.036,11.988,1200l-1.123-.036Z" transform="matrix(0.259, 0.966, -0.966, 0.259, 1159.515, 32.076)" fill="#fff" opacity="0.2"/>
      <path id="Rectangle_Copy_10" data-name="Rectangle Copy 10" d="M0,0,1.123.036,11.988,1200l-1.123-.036Z" transform="matrix(0.259, 0.966, -0.966, 0.259, 1159.515, 39.076)" fill="#fff" opacity="0.2"/>
      <path id="Rectangle_Copy_17" data-name="Rectangle Copy 17" d="M0,0,1.123.036,11.988,1200l-1.123-.036Z" transform="matrix(0.259, 0.966, -0.966, 0.259, 1159.515, 47.076)" fill="#fff" opacity="0.2"/>
      <path id="Rectangle_Copy_16" data-name="Rectangle Copy 16" d="M0,0,1.123.036,11.988,1200l-1.123-.036Z" transform="matrix(0.259, 0.966, -0.966, 0.259, 1159.515, 55.076)" fill="#fff" opacity="0.2"/>
      <path id="Rectangle_Copy_15" data-name="Rectangle Copy 15" d="M0,0,1.123.036,11.988,1200l-1.123-.036Z" transform="matrix(0.259, 0.966, -0.966, 0.259, 1159.515, 63.076)" fill="#fff" opacity="0.2"/>
      <path id="Rectangle_Copy_14" data-name="Rectangle Copy 14" d="M0,0,1.123.036,11.988,1200l-1.123-.036Z" transform="matrix(0.259, 0.966, -0.966, 0.259, 1159.515, 71.076)" fill="#fff" opacity="0.2"/>
      <path id="Rectangle_Copy_13" data-name="Rectangle Copy 13" d="M0,0,1.123.036,11.988,1200l-1.123-.036Z" transform="matrix(0.259, 0.966, -0.966, 0.259, 1159.515, 79.076)" fill="#fff" opacity="0.2"/>
      <path id="Rectangle_Copy_12" data-name="Rectangle Copy 12" d="M0,0,1.123.036,11.988,1200l-1.123-.036Z" transform="matrix(0.259, 0.966, -0.966, 0.259, 1159.515, 87.076)" fill="#fff" opacity="0.2"/>
      <path id="Rectangle_Copy_29" data-name="Rectangle Copy 29" d="M0,0,1.123.036,11.988,1200l-1.123-.036Z" transform="matrix(0.259, 0.966, -0.966, 0.259, 1159.515, 96.076)" fill="#fff" opacity="0.2"/>
      <path id="Rectangle_Copy_28" data-name="Rectangle Copy 28" d="M0,0,1.123.036,11.988,1200l-1.123-.036Z" transform="matrix(0.259, 0.966, -0.966, 0.259, 1159.515, 104.076)" fill="#fff" opacity="0.2"/>
      <path id="Rectangle_Copy_27" data-name="Rectangle Copy 27" d="M0,0,1.123.036,11.988,1200l-1.123-.036Z" transform="matrix(0.259, 0.966, -0.966, 0.259, 1159.515, 112.076)" fill="#fff" opacity="0.2"/>
      <path id="Rectangle_Copy_26" data-name="Rectangle Copy 26" d="M0,0,1.123.036,11.988,1200l-1.123-.036Z" transform="matrix(0.259, 0.966, -0.966, 0.259, 1159.515, 120.076)" fill="#fff" opacity="0.2"/>
      <path id="Rectangle_Copy_25" data-name="Rectangle Copy 25" d="M0,0,1.123.036,11.988,1200l-1.123-.036Z" transform="matrix(0.259, 0.966, -0.966, 0.259, 1159.515, 127.076)" fill="#fff" opacity="0.2"/>
      <path id="Rectangle_Copy_24" data-name="Rectangle Copy 24" d="M0,0,1.123.036,11.988,1200l-1.123-.036Z" transform="matrix(0.259, 0.966, -0.966, 0.259, 1159.515, 135.076)" fill="#fff" opacity="0.2"/>
      <path id="Rectangle_Copy_23" data-name="Rectangle Copy 23" d="M0,0,1.123.036,11.988,1200l-1.123-.036Z" transform="matrix(0.259, 0.966, -0.966, 0.259, 1159.515, 143.076)" fill="#fff" opacity="0.2"/>
      <path id="Rectangle_Copy_22" data-name="Rectangle Copy 22" d="M0,0,1.123.036,11.988,1200l-1.123-.036Z" transform="matrix(0.259, 0.966, -0.966, 0.259, 1159.515, 151.076)" fill="#fff" opacity="0.2"/>
      <path id="Rectangle_Copy_21" data-name="Rectangle Copy 21" d="M0,0,1.123.036,11.988,1200l-1.123-.036Z" transform="matrix(0.259, 0.966, -0.966, 0.259, 1159.515, 159.076)" fill="#fff" opacity="0.2"/>
      <path id="Rectangle_Copy_20" data-name="Rectangle Copy 20" d="M0,0,1.123.036,11.988,1200l-1.123-.036Z" transform="matrix(0.259, 0.966, -0.966, 0.259, 1159.515, 167.076)" fill="#fff" opacity="0.2"/>
      <path id="Rectangle_Copy_19" data-name="Rectangle Copy 19" d="M0,0,1.123.036,11.988,1200l-1.123-.036Z" transform="matrix(0.259, 0.966, -0.966, 0.259, 1159.515, 175.076)" fill="#fff" opacity="0.2"/>
      <path id="Rectangle_Copy_18" data-name="Rectangle Copy 18" d="M0,0,1.123.036,11.988,1200l-1.123-.036Z" transform="matrix(0.259, 0.966, -0.966, 0.259, 1159.515, 183.076)" fill="#fff" opacity="0.2"/>
      <path id="Rectangle_Copy_53" data-name="Rectangle Copy 53" d="M0,0,1.123.036,11.988,1200l-1.123-.036Z" transform="matrix(0.259, 0.966, -0.966, 0.259, 1159.515, 192.076)" fill="#fff" opacity="0.2"/>
      <path id="Rectangle_Copy_52" data-name="Rectangle Copy 52" d="M0,0,1.123.036,11.988,1200l-1.123-.036Z" transform="matrix(0.259, 0.966, -0.966, 0.259, 1159.515, 200.076)" fill="#fff" opacity="0.2"/>
      <path id="Rectangle_Copy_51" data-name="Rectangle Copy 51" d="M0,0,1.123.036,11.988,1200l-1.123-.036Z" transform="matrix(0.259, 0.966, -0.966, 0.259, 1159.515, 207.076)" fill="#fff" opacity="0.2"/>
      <path id="Rectangle_Copy_50" data-name="Rectangle Copy 50" d="M0,0,1.123.036,11.988,1200l-1.123-.036Z" transform="matrix(0.259, 0.966, -0.966, 0.259, 1159.515, 215.076)" fill="#fff" opacity="0.2"/>
      <path id="Rectangle_Copy_49" data-name="Rectangle Copy 49" d="M0,0,1.123.036,11.988,1200l-1.123-.036Z" transform="matrix(0.259, 0.966, -0.966, 0.259, 1159.515, 223.076)" fill="#fff" opacity="0.2"/>
      <path id="Rectangle_Copy_48" data-name="Rectangle Copy 48" d="M0,0,1.123.036,11.988,1200l-1.123-.036Z" transform="matrix(0.259, 0.966, -0.966, 0.259, 1159.515, 231.076)" fill="#fff" opacity="0.2"/>
      <path id="Rectangle_Copy_47" data-name="Rectangle Copy 47" d="M0,0,1.123.036,11.988,1200l-1.123-.036Z" transform="matrix(0.259, 0.966, -0.966, 0.259, 1159.515, 239.076)" fill="#fff" opacity="0.2"/>
      <path id="Rectangle_Copy_46" data-name="Rectangle Copy 46" d="M0,0,1.123.036,11.988,1200l-1.123-.036Z" transform="matrix(0.259, 0.966, -0.966, 0.259, 1159.515, 247.076)" fill="#fff" opacity="0.2"/>
      <path id="Rectangle_Copy_45" data-name="Rectangle Copy 45" d="M0,0,1.123.036,11.988,1200l-1.123-.036Z" transform="matrix(0.259, 0.966, -0.966, 0.259, 1159.515, 255.076)" fill="#fff" opacity="0.2"/>
      <path id="Rectangle_Copy_44" data-name="Rectangle Copy 44" d="M0,0,1.123.036,11.988,1200l-1.123-.036Z" transform="matrix(0.259, 0.966, -0.966, 0.259, 1159.515, 263.076)" fill="#fff" opacity="0.2"/>
      <path id="Rectangle_Copy_43" data-name="Rectangle Copy 43" d="M0,0,1.123.036,11.988,1200l-1.123-.036Z" transform="matrix(0.259, 0.966, -0.966, 0.259, 1159.515, 271.076)" fill="#fff" opacity="0.2"/>
      <path id="Rectangle_Copy_42" data-name="Rectangle Copy 42" d="M0,0,1.123.036,11.988,1200l-1.123-.036Z" transform="matrix(0.259, 0.966, -0.966, 0.259, 1159.515, 279.076)" fill="#fff" opacity="0.2"/>
      <path id="Rectangle_Copy_41" data-name="Rectangle Copy 41" d="M0,0,1.123.036,11.988,1200l-1.123-.036Z" transform="matrix(0.259, 0.966, -0.966, 0.259, 1159.515, 288.076)" fill="#fff" opacity="0.2"/>
      <path id="Rectangle_Copy_40" data-name="Rectangle Copy 40" d="M0,0,1.123.036,11.988,1200l-1.123-.036Z" transform="matrix(0.259, 0.966, -0.966, 0.259, 1159.515, 295.076)" fill="#fff" opacity="0.2"/>
      <path id="Rectangle_Copy_39" data-name="Rectangle Copy 39" d="M0,0,1.123.036,11.988,1200l-1.123-.036Z" transform="matrix(0.259, 0.966, -0.966, 0.259, 1159.515, 303.076)" fill="#fff" opacity="0.2"/>
      <path id="Rectangle_Copy_38" data-name="Rectangle Copy 38" d="M0,0,1.123.036,11.988,1200l-1.123-.036Z" transform="matrix(0.259, 0.966, -0.966, 0.259, 1159.515, 311.076)" fill="#fff" opacity="0.2"/>
      <path id="Rectangle_Copy_37" data-name="Rectangle Copy 37" d="M0,0,1.123.036,11.988,1200l-1.123-.036Z" transform="matrix(0.259, 0.966, -0.966, 0.259, 1159.515, 319.076)" fill="#fff" opacity="0.2"/>
      <path id="Rectangle_Copy_36" data-name="Rectangle Copy 36" d="M0,0,1.123.036,11.988,1200l-1.123-.036Z" transform="matrix(0.259, 0.966, -0.966, 0.259, 1159.515, 327.076)" fill="#fff" opacity="0.2"/>
      <path id="Rectangle_Copy_35" data-name="Rectangle Copy 35" d="M0,0,1.123.036,11.988,1200l-1.123-.036Z" transform="matrix(0.259, 0.966, -0.966, 0.259, 1159.515, 335.076)" fill="#fff" opacity="0.2"/>
      <path id="Rectangle_Copy_34" data-name="Rectangle Copy 34" d="M0,0,1.123.036,11.988,1200l-1.123-.036Z" transform="matrix(0.259, 0.966, -0.966, 0.259, 1159.515, 343.076)" fill="#fff" opacity="0.2"/>
      <path id="Rectangle_Copy_33" data-name="Rectangle Copy 33" d="M0,0,1.123.036,11.988,1200l-1.123-.036Z" transform="matrix(0.259, 0.966, -0.966, 0.259, 1159.515, 351.076)" fill="#fff" opacity="0.2"/>
      <path id="Rectangle_Copy_32" data-name="Rectangle Copy 32" d="M0,0,1.123.036,11.988,1200l-1.123-.036Z" transform="matrix(0.259, 0.966, -0.966, 0.259, 1159.515, 359.076)" fill="#fff" opacity="0.2"/>
      <path id="Rectangle_Copy_31" data-name="Rectangle Copy 31" d="M0,0,1.123.036,11.988,1200l-1.123-.036Z" transform="matrix(0.259, 0.966, -0.966, 0.259, 1159.515, 366.076)" fill="#fff" opacity="0.2"/>
      <path id="Rectangle_Copy_30" data-name="Rectangle Copy 30" d="M0,0,1.123.036,11.988,1200l-1.123-.036Z" transform="matrix(0.259, 0.966, -0.966, 0.259, 1159.515, 374.076)" fill="#fff" opacity="0.2"/>
      <path id="Rectangle_Copy_101" data-name="Rectangle Copy 101" d="M0,0,1.123.036,11.988,1200l-1.123-.036Z" transform="matrix(0.259, 0.966, -0.966, 0.259, 1159.515, 383.076)" fill="#fff" opacity="0.2"/>
      <path id="Rectangle_Copy_100" data-name="Rectangle Copy 100" d="M0,0,1.123.036,11.988,1200l-1.123-.036Z" transform="matrix(0.259, 0.966, -0.966, 0.259, 1159.515, 391.076)" fill="#fff" opacity="0.2"/>
      <path id="Rectangle_Copy_99" data-name="Rectangle Copy 99" d="M0,0,1.123.036,11.988,1200l-1.123-.036Z" transform="matrix(0.259, 0.966, -0.966, 0.259, 1159.515, 399.076)" fill="#fff" opacity="0.2"/>
      <path id="Rectangle_Copy_98" data-name="Rectangle Copy 98" d="M0,0,1.123.036,11.988,1200l-1.123-.036Z" transform="matrix(0.259, 0.966, -0.966, 0.259, 1159.515, 407.076)" fill="#fff" opacity="0.2"/>
      <path id="Rectangle_Copy_97" data-name="Rectangle Copy 97" d="M0,0,1.123.036,11.988,1200l-1.123-.036Z" transform="matrix(0.259, 0.966, -0.966, 0.259, 1159.515, 415.076)" fill="#fff" opacity="0.2"/>
      <path id="Rectangle_Copy_96" data-name="Rectangle Copy 96" d="M0,0,1.123.036,11.988,1200l-1.123-.036Z" transform="matrix(0.259, 0.966, -0.966, 0.259, 1159.515, 423.076)" fill="#fff" opacity="0.2"/>
      <path id="Rectangle_Copy_95" data-name="Rectangle Copy 95" d="M0,0,1.123.036,11.988,1200l-1.123-.036Z" transform="matrix(0.259, 0.966, -0.966, 0.259, 1159.515, 431.076)" fill="#fff" opacity="0.2"/>
      <path id="Rectangle_Copy_94" data-name="Rectangle Copy 94" d="M0,0,1.123.036,11.988,1200l-1.123-.036Z" transform="matrix(0.259, 0.966, -0.966, 0.259, 1159.515, 439.076)" fill="#fff" opacity="0.2"/>
      <path id="Rectangle_Copy_93" data-name="Rectangle Copy 93" d="M0,0,1.123.036,11.988,1200l-1.123-.036Z" transform="matrix(0.259, 0.966, -0.966, 0.259, 1159.515, 447.076)" fill="#fff" opacity="0.2"/>
      <path id="Rectangle_Copy_69" data-name="Rectangle Copy 69" d="M0,0,1.123.036,11.988,1200l-1.123-.036Z" transform="matrix(0.259, 0.966, -0.966, 0.259, 1159.515, 455.076)" fill="#fff" opacity="0.2"/>
      <path id="Rectangle_Copy_68" data-name="Rectangle Copy 68" d="M0,0,1.123.036,11.988,1200l-1.123-.036Z" transform="matrix(0.259, 0.966, -0.966, 0.259, 1159.515, 464.076)" fill="#fff" opacity="0.2"/>
      <path id="Rectangle_Copy_67" data-name="Rectangle Copy 67" d="M0,0,1.123.036,11.988,1200l-1.123-.036Z" transform="matrix(0.259, 0.966, -0.966, 0.259, 1159.515, 471.076)" fill="#fff" opacity="0.2"/>
      <path id="Rectangle_Copy_66" data-name="Rectangle Copy 66" d="M0,0,1.123.036,11.988,1200l-1.123-.036Z" transform="matrix(0.259, 0.966, -0.966, 0.259, 1159.515, 479.076)" fill="#fff" opacity="0.2"/>
      <path id="Rectangle_Copy_65" data-name="Rectangle Copy 65" d="M0,0,1.123.036,11.988,1200l-1.123-.036Z" transform="matrix(0.259, 0.966, -0.966, 0.259, 1159.515, 487.076)" fill="#fff" opacity="0.2"/>
      <path id="Rectangle_Copy_64" data-name="Rectangle Copy 64" d="M0,0,1.123.036,11.988,1200l-1.123-.036Z" transform="matrix(0.259, 0.966, -0.966, 0.259, 1159.515, 495.076)" fill="#fff" opacity="0.2"/>
      <path id="Rectangle_Copy_63" data-name="Rectangle Copy 63" d="M0,0,1.123.036,11.988,1200l-1.123-.036Z" transform="matrix(0.259, 0.966, -0.966, 0.259, 1159.515, 503.076)" fill="#fff" opacity="0.2"/>
      <path id="Rectangle_Copy_62" data-name="Rectangle Copy 62" d="M0,0,1.123.036,11.988,1200l-1.123-.036Z" transform="matrix(0.259, 0.966, -0.966, 0.259, 1159.515, 511.076)" fill="#fff" opacity="0.2"/>
      <path id="Rectangle_Copy_61" data-name="Rectangle Copy 61" d="M0,0,1.123.036,11.988,1200l-1.123-.036Z" transform="matrix(0.259, 0.966, -0.966, 0.259, 1159.515, 519.076)" fill="#fff" opacity="0.2"/>
      <path id="Rectangle_Copy_60" data-name="Rectangle Copy 60" d="M0,0,1.123.036,11.988,1200l-1.123-.036Z" transform="matrix(0.259, 0.966, -0.966, 0.259, 1159.515, 527.076)" fill="#fff" opacity="0.2"/>
      <path id="Rectangle_Copy_59" data-name="Rectangle Copy 59" d="M0,0,1.123.036,11.988,1200l-1.123-.036Z" transform="matrix(0.259, 0.966, -0.966, 0.259, 1159.515, 535.076)" fill="#fff" opacity="0.2"/>
      <path id="Rectangle_Copy_58" data-name="Rectangle Copy 58" d="M0,0,1.123.036,11.988,1200l-1.123-.036Z" transform="matrix(0.259, 0.966, -0.966, 0.259, 1159.515, 542.076)" fill="#fff" opacity="0.2"/>
      <path id="Rectangle_Copy_56" data-name="Rectangle Copy 56" d="M0,0,1.123.036,11.988,1200l-1.123-.036Z" transform="matrix(0.259, 0.966, -0.966, 0.259, 1159.515, 550.076)" fill="#fff" opacity="0.2"/>
      <path id="Rectangle_Copy_110" data-name="Rectangle Copy 110" d="M0,0,1.123.036,11.988,1200l-1.123-.036Z" transform="matrix(0.259, 0.966, -0.966, 0.259, 1159.515, 559.076)" fill="#fff" opacity="0.2"/>
      <path id="Rectangle_Copy_109" data-name="Rectangle Copy 109" d="M0,0,1.123.036,11.988,1200l-1.123-.036Z" transform="matrix(0.259, 0.966, -0.966, 0.259, 1159.515, 567.076)" fill="#fff" opacity="0.2"/>
      <path id="Rectangle_Copy_108" data-name="Rectangle Copy 108" d="M0,0,1.123.036,11.988,1200l-1.123-.036Z" transform="matrix(0.259, 0.966, -0.966, 0.259, 1159.515, 575.076)" fill="#fff" opacity="0.2"/>
      <path id="Rectangle_Copy_107" data-name="Rectangle Copy 107" d="M0,0,1.123.036,11.988,1200l-1.123-.036Z" transform="matrix(0.259, 0.966, -0.966, 0.259, 1159.515, 583.076)" fill="#fff" opacity="0.2"/>
      <path id="Rectangle_Copy_106" data-name="Rectangle Copy 106" d="M0,0,1.123.036,11.988,1200l-1.123-.036Z" transform="matrix(0.259, 0.966, -0.966, 0.259, 1159.515, 591.076)" fill="#fff" opacity="0.2"/>
      <path id="Rectangle_Copy_105" data-name="Rectangle Copy 105" d="M0,0,1.123.036,11.988,1200l-1.123-.036Z" transform="matrix(0.259, 0.966, -0.966, 0.259, 1159.515, 599.076)" fill="#fff" opacity="0.2"/>
      <path id="Rectangle_Copy_104" data-name="Rectangle Copy 104" d="M0,0,1.123.036,11.988,1200l-1.123-.036Z" transform="matrix(0.259, 0.966, -0.966, 0.259, 1159.515, 607.076)" fill="#fff" opacity="0.2"/>
      <path id="Rectangle_Copy_103" data-name="Rectangle Copy 103" d="M0,0,1.123.036,11.988,1200l-1.123-.036Z" transform="matrix(0.259, 0.966, -0.966, 0.259, 1159.515, 615.076)" fill="#fff" opacity="0.2"/>
      <path id="Rectangle_Copy_102" data-name="Rectangle Copy 102" d="M0,0,1.123.036,11.988,1200l-1.123-.036Z" transform="matrix(0.259, 0.966, -0.966, 0.259, 1159.515, 623.076)" fill="#fff" opacity="0.2"/>
      <path id="Rectangle_Copy_86" data-name="Rectangle Copy 86" d="M0,0,1.123.036,11.988,1200l-1.123-.036Z" transform="matrix(0.259, 0.966, -0.966, 0.259, 1159.515, 631.076)" fill="#fff" opacity="0.2"/>
      <path id="Rectangle_Copy_85" data-name="Rectangle Copy 85" d="M0,0,1.123.036,11.988,1200l-1.123-.036Z" transform="matrix(0.259, 0.966, -0.966, 0.259, 1159.515, 639.076)" fill="#fff" opacity="0.2"/>
      <path id="Rectangle_Copy_84" data-name="Rectangle Copy 84" d="M0,0,1.123.036,11.988,1200l-1.123-.036Z" transform="matrix(0.259, 0.966, -0.966, 0.259, 1159.515, 646.076)" fill="#fff" opacity="0.2"/>
      <path id="Rectangle_Copy_83" data-name="Rectangle Copy 83" d="M0,0,1.123.036,11.988,1200l-1.123-.036Z" transform="matrix(0.259, 0.966, -0.966, 0.259, 1159.515, 654.076)" fill="#fff" opacity="0.2"/>
      <path id="Rectangle_Copy_128" data-name="Rectangle Copy 128" d="M0,0,1.123.036,11.988,1200l-1.123-.036Z" transform="matrix(0.259, 0.966, -0.966, 0.259, 1159.515, 663.076)" fill="#fff" opacity="0.2"/>
      <path id="Rectangle_Copy_127" data-name="Rectangle Copy 127" d="M0,0,1.123.036,11.988,1200l-1.123-.036Z" transform="matrix(0.259, 0.966, -0.966, 0.259, 1159.515, 671.076)" fill="#fff" opacity="0.2"/>
      <path id="Rectangle_Copy_126" data-name="Rectangle Copy 126" d="M0,0,1.123.036,11.988,1200l-1.123-.036Z" transform="matrix(0.259, 0.966, -0.966, 0.259, 1159.515, 679.076)" fill="#fff" opacity="0.2"/>
      <path id="Rectangle_Copy_125" data-name="Rectangle Copy 125" d="M0,0,1.123.036,11.988,1200l-1.123-.036Z" transform="matrix(0.259, 0.966, -0.966, 0.259, 1159.515, 687.076)" fill="#fff" opacity="0.2"/>
      <path id="Rectangle_Copy_124" data-name="Rectangle Copy 124" d="M0,0,1.123.036,11.988,1200l-1.123-.036Z" transform="matrix(0.259, 0.966, -0.966, 0.259, 1159.515, 695.076)" fill="#fff" opacity="0.2"/>
      <path id="Rectangle_Copy_123" data-name="Rectangle Copy 123" d="M0,0,1.123.036,11.988,1200l-1.123-.036Z" transform="matrix(0.259, 0.966, -0.966, 0.259, 1159.515, 703.076)" fill="#fff" opacity="0.2"/>
      <path id="Rectangle_Copy_122" data-name="Rectangle Copy 122" d="M0,0,1.123.036,11.988,1200l-1.123-.036Z" transform="matrix(0.259, 0.966, -0.966, 0.259, 1159.515, 711.076)" fill="#fff" opacity="0.2"/>
      <path id="Rectangle_Copy_121" data-name="Rectangle Copy 121" d="M0,0,1.123.036,11.988,1200l-1.123-.036Z" transform="matrix(0.259, 0.966, -0.966, 0.259, 1159.515, 719.076)" fill="#fff" opacity="0.2"/>
      <path id="Rectangle_Copy_120" data-name="Rectangle Copy 120" d="M0,0,1.123.036,11.988,1200l-1.123-.036Z" transform="matrix(0.259, 0.966, -0.966, 0.259, 1159.515, 727.076)" fill="#fff" opacity="0.2"/>
      <path id="Rectangle_Copy_82" data-name="Rectangle Copy 82" d="M0,0,1.123.036,11.988,1200l-1.123-.036Z" transform="matrix(0.259, 0.966, -0.966, 0.259, 1159.515, 735.076)" fill="#fff" opacity="0.2"/>
      <path id="Rectangle_Copy_81" data-name="Rectangle Copy 81" d="M0,0,1.123.036,11.988,1200l-1.123-.036Z" transform="matrix(0.259, 0.966, -0.966, 0.259, 1159.515, 744.076)" fill="#fff" opacity="0.2"/>
      <path id="Rectangle_Copy_80" data-name="Rectangle Copy 80" d="M0,0,1.123.036,11.988,1200l-1.123-.036Z" transform="matrix(0.259, 0.966, -0.966, 0.259, 1159.515, 751.076)" fill="#fff" opacity="0.2"/>
      <path id="Rectangle_Copy_79" data-name="Rectangle Copy 79" d="M0,0,1.123.036,11.988,1200l-1.123-.036Z" transform="matrix(0.259, 0.966, -0.966, 0.259, 1159.515, 759.076)" fill="#fff" opacity="0.2"/>
      <path id="Rectangle_Copy_78" data-name="Rectangle Copy 78" d="M0,0,1.123.036,11.988,1200l-1.123-.036Z" transform="matrix(0.259, 0.966, -0.966, 0.259, 1159.515, 767.076)" fill="#fff" opacity="0.2"/>
      <path id="Rectangle_Copy_77" data-name="Rectangle Copy 77" d="M0,0,1.123.036,11.988,1200l-1.123-.036Z" transform="matrix(0.259, 0.966, -0.966, 0.259, 1159.515, 775.076)" fill="#fff" opacity="0.2"/>
      <path id="Rectangle_Copy_76" data-name="Rectangle Copy 76" d="M0,0,1.123.036,11.988,1200l-1.123-.036Z" transform="matrix(0.259, 0.966, -0.966, 0.259, 1159.515, 783.076)" fill="#fff" opacity="0.2"/>
      <path id="Rectangle_Copy_138" data-name="Rectangle Copy 138" d="M0,0,1.123.036,11.988,1200l-1.123-.036Z" transform="matrix(0.259, 0.966, -0.966, 0.259, 1159.515, 791.076)" fill="#fff" opacity="0.2"/>
      <path id="Rectangle_Copy_119" data-name="Rectangle Copy 119" d="M0,0,1.123.036,11.988,1200l-1.123-.036Z" transform="matrix(0.259, 0.966, -0.966, 0.259, 1159.515, 799.076)" fill="#fff" opacity="0.2"/>
      <path id="Rectangle_Copy_118" data-name="Rectangle Copy 118" d="M0,0,1.123.036,11.988,1200l-1.123-.036Z" transform="matrix(0.259, 0.966, -0.966, 0.259, 1159.515, 807.076)" fill="#fff" opacity="0.2"/>
      <path id="Rectangle_Copy_117" data-name="Rectangle Copy 117" d="M0,0,1.123.036,11.988,1200l-1.123-.036Z" transform="matrix(0.259, 0.966, -0.966, 0.259, 1159.515, 815.076)" fill="#fff" opacity="0.2"/>
      <path id="Rectangle_Copy_116" data-name="Rectangle Copy 116" d="M0,0,1.123.036,11.988,1200l-1.123-.036Z" transform="matrix(0.259, 0.966, -0.966, 0.259, 1159.515, 823.076)" fill="#fff" opacity="0.2"/>
      <path id="Rectangle_Copy_115" data-name="Rectangle Copy 115" d="M0,0,1.123.036,11.988,1200l-1.123-.036Z" transform="matrix(0.259, 0.966, -0.966, 0.259, 1159.515, 831.076)" fill="#fff" opacity="0.2"/>
      <path id="Rectangle_Copy_114" data-name="Rectangle Copy 114" d="M0,0,1.123.036,11.988,1200l-1.123-.036Z" transform="matrix(0.259, 0.966, -0.966, 0.259, 1159.515, 839.076)" fill="#fff" opacity="0.2"/>
      <path id="Rectangle_Copy_113" data-name="Rectangle Copy 113" d="M0,0,1.123.036,11.988,1200l-1.123-.036Z" transform="matrix(0.259, 0.966, -0.966, 0.259, 1159.515, 846.076)" fill="#fff" opacity="0.2"/>
      <path id="Rectangle_Copy_112" data-name="Rectangle Copy 112" d="M0,0,1.123.036,11.988,1200l-1.123-.036Z" transform="matrix(0.259, 0.966, -0.966, 0.259, 1159.515, 854.076)" fill="#fff" opacity="0.2"/>
      <path id="Rectangle_Copy_137" data-name="Rectangle Copy 137" d="M0,0,1.123.036,11.988,1200l-1.123-.036Z" transform="matrix(0.259, 0.966, -0.966, 0.259, 1159.515, 863.076)" fill="#fff" opacity="0.2"/>
      <path id="Rectangle_Copy_136" data-name="Rectangle Copy 136" d="M0,0,1.123.036,11.988,1200l-1.123-.036Z" transform="matrix(0.259, 0.966, -0.966, 0.259, 1159.515, 871.076)" fill="#fff" opacity="0.2"/>
      <path id="Rectangle_Copy_135" data-name="Rectangle Copy 135" d="M0,0,1.123.036,11.988,1200l-1.123-.036Z" transform="matrix(0.259, 0.966, -0.966, 0.259, 1159.515, 879.076)" fill="#fff" opacity="0.2"/>
      <path id="Rectangle_Copy_134" data-name="Rectangle Copy 134" d="M0,0,1.123.036,11.988,1200l-1.123-.036Z" transform="matrix(0.259, 0.966, -0.966, 0.259, 1159.515, 887.076)" fill="#fff" opacity="0.2"/>
      <path id="Rectangle_Copy_133" data-name="Rectangle Copy 133" d="M0,0,1.123.036,11.988,1200l-1.123-.036Z" transform="matrix(0.259, 0.966, -0.966, 0.259, 1159.515, 895.076)" fill="#fff" opacity="0.2"/>
      <path id="Rectangle_Copy_132" data-name="Rectangle Copy 132" d="M0,0,1.123.036,11.988,1200l-1.123-.036Z" transform="matrix(0.259, 0.966, -0.966, 0.259, 1159.515, 903.076)" fill="#fff" opacity="0.2"/>
      <path id="Rectangle_Copy_131" data-name="Rectangle Copy 131" d="M0,0,1.123.036,11.988,1200l-1.123-.036Z" transform="matrix(0.259, 0.966, -0.966, 0.259, 1159.515, 911.076)" fill="#fff" opacity="0.2"/>
      <path id="Rectangle_Copy_130" data-name="Rectangle Copy 130" d="M0,0,1.123.036,11.988,1200l-1.123-.036Z" transform="matrix(0.259, 0.966, -0.966, 0.259, 1159.515, 919.076)" fill="#fff" opacity="0.2"/>
      <path id="Rectangle_Copy_129" data-name="Rectangle Copy 129" d="M0,0,1.123.036,11.988,1200l-1.123-.036Z" transform="matrix(0.259, 0.966, -0.966, 0.259, 1159.515, 927.076)" fill="#fff" opacity="0.2"/>
      <path id="Rectangle_Copy_111" data-name="Rectangle Copy 111" d="M0,0,1.123.036,11.988,1200l-1.123-.036Z" transform="matrix(0.259, 0.966, -0.966, 0.259, 1159.515, 935.076)" fill="#fff" opacity="0.2"/>
      <path id="Rectangle_Copy_92" data-name="Rectangle Copy 92" d="M0,0,1.123.036,11.988,1200l-1.123-.036Z" transform="matrix(0.259, 0.966, -0.966, 0.259, 1159.515, 944.076)" fill="#fff" opacity="0.2"/>
      <path id="Rectangle_Copy_91" data-name="Rectangle Copy 91" d="M0,0,1.123.036,11.988,1200l-1.123-.036Z" transform="matrix(0.259, 0.966, -0.966, 0.259, 1159.515, 951.076)" fill="#fff" opacity="0.2"/>
      <path id="Rectangle_Copy_90" data-name="Rectangle Copy 90" d="M0,0,1.123.036,11.988,1200l-1.123-.036Z" transform="matrix(0.259, 0.966, -0.966, 0.259, 1159.515, 959.076)" fill="#fff" opacity="0.2"/>
      <path id="Rectangle_Copy_89" data-name="Rectangle Copy 89" d="M0,0,1.123.036,11.988,1200l-1.123-.036Z" transform="matrix(0.259, 0.966, -0.966, 0.259, 1159.515, 967.076)" fill="#fff" opacity="0.2"/>
      <path id="Rectangle_Copy_88" data-name="Rectangle Copy 88" d="M0,0,1.123.036,11.988,1200l-1.123-.036Z" transform="matrix(0.259, 0.966, -0.966, 0.259, 1159.515, 975.076)" fill="#fff" opacity="0.2"/>
      <path id="Rectangle_Copy_87" data-name="Rectangle Copy 87" d="M0,0,1.123.036,11.988,1200l-1.123-.036Z" transform="matrix(0.259, 0.966, -0.966, 0.259, 1159.515, 983.076)" fill="#fff" opacity="0.2"/>
      <path id="Rectangle_Copy_163" data-name="Rectangle Copy 163" d="M0,0,1.123.036,11.988,1200l-1.123-.036Z" transform="matrix(0.259, 0.966, -0.966, 0.259, 1159.515, 991.076)" fill="#fff" opacity="0.2"/>
      <path id="Rectangle_Copy_162" data-name="Rectangle Copy 162" d="M0,0,1.123.036,11.988,1200l-1.123-.036Z" transform="matrix(0.259, 0.966, -0.966, 0.259, 1159.515, 999.076)" fill="#fff" opacity="0.2"/>
      <path id="Rectangle_Copy_161" data-name="Rectangle Copy 161" d="M0,0,1.123.036,11.988,1200l-1.123-.036Z" transform="matrix(0.259, 0.966, -0.966, 0.259, 1159.515, 1007.076)" fill="#fff" opacity="0.2"/>
      <path id="Rectangle_Copy_160" data-name="Rectangle Copy 160" d="M0,0,1.123.036,11.988,1200l-1.123-.036Z" transform="matrix(0.259, 0.966, -0.966, 0.259, 1159.515, 1015.076)" fill="#fff" opacity="0.2"/>
      <path id="Rectangle_Copy_159" data-name="Rectangle Copy 159" d="M0,0,1.123.036,11.988,1200l-1.123-.036Z" transform="matrix(0.259, 0.966, -0.966, 0.259, 1159.515, 1023.076)" fill="#fff" opacity="0.2"/>
      <path id="Rectangle_Copy_158" data-name="Rectangle Copy 158" d="M0,0,1.123.036,11.988,1200l-1.123-.036Z" transform="matrix(0.259, 0.966, -0.966, 0.259, 1159.515, 1031.076)" fill="#fff" opacity="0.2"/>
      <path id="Rectangle_Copy_157" data-name="Rectangle Copy 157" d="M0,0,1.123.036,11.988,1200l-1.123-.036Z" transform="matrix(0.259, 0.966, -0.966, 0.259, 1159.515, 1039.076)" fill="#fff" opacity="0.2"/>
      <path id="Rectangle_Copy_156" data-name="Rectangle Copy 156" d="M0,0,1.123.036,11.988,1200l-1.123-.036Z" transform="matrix(0.259, 0.966, -0.966, 0.259, 1159.515, 1046.076)" fill="#fff" opacity="0.2"/>
      <path id="Rectangle_Copy_155" data-name="Rectangle Copy 155" d="M0,0,1.123.036,11.988,1200l-1.123-.036Z" transform="matrix(0.259, 0.966, -0.966, 0.259, 1159.515, 1054.076)" fill="#fff" opacity="0.2"/>
      <path id="Rectangle_Copy_154" data-name="Rectangle Copy 154" d="M0,0,1.123.036,11.988,1200l-1.123-.036Z" transform="matrix(0.259, 0.966, -0.966, 0.259, 1159.515, 1063.076)" fill="#fff" opacity="0.2"/>
      <path id="Rectangle_Copy_153" data-name="Rectangle Copy 153" d="M0,0,1.123.036,11.988,1200l-1.123-.036Z" transform="matrix(0.259, 0.966, -0.966, 0.259, 1159.515, 1071.076)" fill="#fff" opacity="0.2"/>
      <path id="Rectangle_Copy_152" data-name="Rectangle Copy 152" d="M0,0,1.123.036,11.988,1200l-1.123-.036Z" transform="matrix(0.259, 0.966, -0.966, 0.259, 1159.515, 1079.076)" fill="#fff" opacity="0.2"/>
      <path id="Rectangle_Copy_151" data-name="Rectangle Copy 151" d="M0,0,1.123.036,11.988,1200l-1.123-.036Z" transform="matrix(0.259, 0.966, -0.966, 0.259, 1159.515, 1087.076)" fill="#fff" opacity="0.2"/>
      <path id="Rectangle_Copy_150" data-name="Rectangle Copy 150" d="M0,0,1.123.036,11.988,1200l-1.123-.036Z" transform="matrix(0.259, 0.966, -0.966, 0.259, 1159.515, 1095.076)" fill="#fff" opacity="0.2"/>
      <path id="Rectangle_Copy_149" data-name="Rectangle Copy 149" d="M0,0,1.123.036,11.988,1200l-1.123-.036Z" transform="matrix(0.259, 0.966, -0.966, 0.259, 1159.515, 1103.076)" fill="#fff" opacity="0.2"/>
      <path id="Rectangle_Copy_148" data-name="Rectangle Copy 148" d="M0,0,1.123.036,11.988,1200l-1.123-.036Z" transform="matrix(0.259, 0.966, -0.966, 0.259, 1159.515, 1111.076)" fill="#fff" opacity="0.2"/>
      <path id="Rectangle_Copy_147" data-name="Rectangle Copy 147" d="M0,0,1.123.036,11.988,1200l-1.123-.036Z" transform="matrix(0.259, 0.966, -0.966, 0.259, 1159.515, 1119.076)" fill="#fff" opacity="0.2"/>
      <path id="Rectangle_Copy_146" data-name="Rectangle Copy 146" d="M0,0,1.123.036,11.988,1200l-1.123-.036Z" transform="matrix(0.259, 0.966, -0.966, 0.259, 1159.515, 1127.076)" fill="#fff" opacity="0.2"/>
      <path id="Rectangle_Copy_145" data-name="Rectangle Copy 145" d="M0,0,1.123.036,11.988,1200l-1.123-.036Z" transform="matrix(0.259, 0.966, -0.966, 0.259, 1159.515, 1135.076)" fill="#fff" opacity="0.2"/>
      <path id="Rectangle_Copy_144" data-name="Rectangle Copy 144" d="M0,0,1.123.036,11.988,1200l-1.123-.036Z" transform="matrix(0.259, 0.966, -0.966, 0.259, 1159.515, 1144.076)" fill="#fff" opacity="0.2"/>
      <path id="Rectangle_Copy_143" data-name="Rectangle Copy 143" d="M0,0,1.123.036,11.988,1200l-1.123-.036Z" transform="matrix(0.259, 0.966, -0.966, 0.259, 1159.515, 1151.076)" fill="#fff" opacity="0.2"/>
      <path id="Rectangle_Copy_142" data-name="Rectangle Copy 142" d="M0,0,1.123.036,11.988,1200l-1.123-.036Z" transform="matrix(0.259, 0.966, -0.966, 0.259, 1159.515, 1159.076)" fill="#fff" opacity="0.2"/>
      <path id="Rectangle_Copy_141" data-name="Rectangle Copy 141" d="M0,0,1.123.036,11.988,1200l-1.123-.036Z" transform="matrix(0.259, 0.966, -0.966, 0.259, 1159.515, 1167.076)" fill="#fff" opacity="0.2"/>
      <path id="Rectangle_Copy_140" data-name="Rectangle Copy 140" d="M0,0,1.123.036,11.988,1200l-1.123-.036Z" transform="matrix(0.259, 0.966, -0.966, 0.259, 1159.515, 1175.076)" fill="#fff" opacity="0.2"/>
      <path id="Rectangle_Copy_139" data-name="Rectangle Copy 139" d="M0,0,1.123.036,11.988,1200l-1.123-.036Z" transform="matrix(0.259, 0.966, -0.966, 0.259, 1159.515, 1183.076)" fill="#fff" opacity="0.2"/>
    </g>
  </g>
</svg>
