<svg id="Group_7_Copy" data-name="Group 7 Copy" xmlns="http://www.w3.org/2000/svg" xmlns:xlink="http://www.w3.org/1999/xlink" width="279" height="258" viewBox="0 0 279 258">
  <defs>
    <clipPath id="clip-path">
      <rect id="Mask" width="279" height="258" fill="#f8633b"/>
    </clipPath>
  </defs>
  <rect id="Mask-2" data-name="Mask" width="279" height="258" fill="#f8633b"/>
  <g id="Group_7_Copy-2" data-name="Group 7 Copy" clip-path="url(#clip-path)">
    <g id="Line_Shape" data-name="Line Shape" transform="translate(-289 -226.446)" opacity="0.7">
      <path id="Rectangle_Copy_6" data-name="Rectangle Copy 6" d="M11.446,0l1.047.016L1.047,1194,0,1193.985Z" transform="matrix(0.259, 0.966, -0.966, 0.259, 1156.552, -10.986)" fill="#fff" opacity="0.2"/>
      <path id="Rectangle_Copy_7" data-name="Rectangle Copy 7" d="M11.446,0l1.047.016L1.047,1194,0,1193.985Z" transform="matrix(0.259, 0.966, -0.966, 0.259, 1156.552, -3.561)" fill="#fff" opacity="0.2"/>
      <path id="Rectangle_Copy_9" data-name="Rectangle Copy 9" d="M11.446,0l1.047.016L1.047,1194,0,1193.985Z" transform="matrix(0.259, 0.966, -0.966, 0.259, 1156.552, 3.863)" fill="#fff" opacity="0.2"/>
      <path id="Rectangle_Copy_8" data-name="Rectangle Copy 8" d="M11.446,0l1.047.016L1.047,1194,0,1193.985Z" transform="matrix(0.259, 0.966, -0.966, 0.259, 1156.552, 11.288)" fill="#fff" opacity="0.2"/>
      <path id="Rectangle_Copy_11" data-name="Rectangle Copy 11" d="M11.446,0l1.047.016L1.047,1194,0,1193.985Z" transform="matrix(0.259, 0.966, -0.966, 0.259, 1156.552, 18.712)" fill="#fff" opacity="0.2"/>
      <path id="Rectangle_Copy_10" data-name="Rectangle Copy 10" d="M11.446,0l1.047.016L1.047,1194,0,1193.985Z" transform="matrix(0.259, 0.966, -0.966, 0.259, 1156.552, 25.209)" fill="#fff" opacity="0.2"/>
      <path id="Rectangle_Copy_17" data-name="Rectangle Copy 17" d="M11.446,0l1.047.016L1.047,1194,0,1193.985Z" transform="matrix(0.259, 0.966, -0.966, 0.259, 1156.552, 32.633)" fill="#fff" opacity="0.2"/>
      <path id="Rectangle_Copy_16" data-name="Rectangle Copy 16" d="M11.446,0l1.047.016L1.047,1194,0,1193.985Z" transform="matrix(0.259, 0.966, -0.966, 0.259, 1156.552, 40.058)" fill="#fff" opacity="0.2"/>
      <path id="Rectangle_Copy_15" data-name="Rectangle Copy 15" d="M11.446,0l1.047.016L1.047,1194,0,1193.985Z" transform="matrix(0.259, 0.966, -0.966, 0.259, 1156.552, 47.482)" fill="#fff" opacity="0.2"/>
      <path id="Rectangle_Copy_14" data-name="Rectangle Copy 14" d="M11.446,0l1.047.016L1.047,1194,0,1193.985Z" transform="matrix(0.259, 0.966, -0.966, 0.259, 1156.552, 54.907)" fill="#fff" opacity="0.2"/>
      <path id="Rectangle_Copy_13" data-name="Rectangle Copy 13" d="M11.446,0l1.047.016L1.047,1194,0,1193.985Z" transform="matrix(0.259, 0.966, -0.966, 0.259, 1156.552, 62.331)" fill="#fff" opacity="0.2"/>
      <path id="Rectangle_Copy_12" data-name="Rectangle Copy 12" d="M11.446,0l1.047.016L1.047,1194,0,1193.985Z" transform="matrix(0.259, 0.966, -0.966, 0.259, 1156.552, 69.755)" fill="#fff" opacity="0.2"/>
      <path id="Rectangle_Copy_29" data-name="Rectangle Copy 29" d="M11.446,0l1.047.016L1.047,1194,0,1193.985Z" transform="matrix(0.259, 0.966, -0.966, 0.259, 1156.552, 78.108)" fill="#fff" opacity="0.2"/>
      <path id="Rectangle_Copy_28" data-name="Rectangle Copy 28" d="M11.446,0l1.047.016L1.047,1194,0,1193.985Z" transform="matrix(0.259, 0.966, -0.966, 0.259, 1156.552, 85.532)" fill="#fff" opacity="0.2"/>
      <path id="Rectangle_Copy_27" data-name="Rectangle Copy 27" d="M11.446,0l1.047.016L1.047,1194,0,1193.985Z" transform="matrix(0.259, 0.966, -0.966, 0.259, 1156.552, 92.957)" fill="#fff" opacity="0.2"/>
      <path id="Rectangle_Copy_26" data-name="Rectangle Copy 26" d="M11.446,0l1.047.016L1.047,1194,0,1193.985Z" transform="matrix(0.259, 0.966, -0.966, 0.259, 1156.552, 100.381)" fill="#fff" opacity="0.2"/>
      <path id="Rectangle_Copy_25" data-name="Rectangle Copy 25" d="M11.446,0l1.047.016L1.047,1194,0,1193.985Z" transform="matrix(0.259, 0.966, -0.966, 0.259, 1156.552, 106.878)" fill="#fff" opacity="0.2"/>
      <path id="Rectangle_Copy_24" data-name="Rectangle Copy 24" d="M11.446,0l1.047.016L1.047,1194,0,1193.985Z" transform="matrix(0.259, 0.966, -0.966, 0.259, 1156.552, 114.302)" fill="#fff" opacity="0.2"/>
      <path id="Rectangle_Copy_23" data-name="Rectangle Copy 23" d="M11.446,0l1.047.016L1.047,1194,0,1193.985Z" transform="matrix(0.259, 0.966, -0.966, 0.259, 1156.552, 121.727)" fill="#fff" opacity="0.2"/>
      <path id="Rectangle_Copy_22" data-name="Rectangle Copy 22" d="M11.446,0l1.047.016L1.047,1194,0,1193.985Z" transform="matrix(0.259, 0.966, -0.966, 0.259, 1156.552, 129.151)" fill="#fff" opacity="0.2"/>
      <path id="Rectangle_Copy_21" data-name="Rectangle Copy 21" d="M11.446,0l1.047.016L1.047,1194,0,1193.985Z" transform="matrix(0.259, 0.966, -0.966, 0.259, 1156.552, 136.576)" fill="#fff" opacity="0.2"/>
      <path id="Rectangle_Copy_20" data-name="Rectangle Copy 20" d="M11.446,0l1.047.016L1.047,1194,0,1193.985Z" transform="matrix(0.259, 0.966, -0.966, 0.259, 1156.552, 144)" fill="#fff" opacity="0.2"/>
      <path id="Rectangle_Copy_19" data-name="Rectangle Copy 19" d="M11.446,0l1.047.016L1.047,1194,0,1193.985Z" transform="matrix(0.259, 0.966, -0.966, 0.259, 1156.552, 151.425)" fill="#fff" opacity="0.2"/>
      <path id="Rectangle_Copy_18" data-name="Rectangle Copy 18" d="M11.446,0l1.047.016L1.047,1194,0,1193.985Z" transform="matrix(0.259, 0.966, -0.966, 0.259, 1156.552, 158.849)" fill="#fff" opacity="0.2"/>
      <path id="Rectangle_Copy_53" data-name="Rectangle Copy 53" d="M11.446,0l1.047.016L1.047,1194,0,1193.985Z" transform="matrix(0.259, 0.966, -0.966, 0.259, 1156.552, 167.202)" fill="#fff" opacity="0.2"/>
      <path id="Rectangle_Copy_52" data-name="Rectangle Copy 52" d="M11.446,0l1.047.016L1.047,1194,0,1193.985Z" transform="matrix(0.259, 0.966, -0.966, 0.259, 1156.552, 174.626)" fill="#fff" opacity="0.2"/>
      <path id="Rectangle_Copy_51" data-name="Rectangle Copy 51" d="M11.446,0l1.047.016L1.047,1194,0,1193.985Z" transform="matrix(0.259, 0.966, -0.966, 0.259, 1156.552, 181.122)" fill="#fff" opacity="0.2"/>
      <path id="Rectangle_Copy_50" data-name="Rectangle Copy 50" d="M11.446,0l1.047.016L1.047,1194,0,1193.985Z" transform="matrix(0.259, 0.966, -0.966, 0.259, 1156.552, 188.547)" fill="#fff" opacity="0.2"/>
      <path id="Rectangle_Copy_49" data-name="Rectangle Copy 49" d="M11.446,0l1.047.016L1.047,1194,0,1193.985Z" transform="matrix(0.259, 0.966, -0.966, 0.259, 1156.552, 195.971)" fill="#fff" opacity="0.2"/>
      <path id="Rectangle_Copy_48" data-name="Rectangle Copy 48" d="M11.446,0l1.047.016L1.047,1194,0,1193.985Z" transform="matrix(0.259, 0.966, -0.966, 0.259, 1156.552, 203.396)" fill="#fff" opacity="0.2"/>
      <path id="Rectangle_Copy_47" data-name="Rectangle Copy 47" d="M11.446,0l1.047.016L1.047,1194,0,1193.985Z" transform="matrix(0.259, 0.966, -0.966, 0.259, 1156.552, 210.82)" fill="#fff" opacity="0.2"/>
      <path id="Rectangle_Copy_46" data-name="Rectangle Copy 46" d="M11.446,0l1.047.016L1.047,1194,0,1193.985Z" transform="matrix(0.259, 0.966, -0.966, 0.259, 1156.552, 218.245)" fill="#fff" opacity="0.2"/>
      <path id="Rectangle_Copy_45" data-name="Rectangle Copy 45" d="M11.446,0l1.047.016L1.047,1194,0,1193.985Z" transform="matrix(0.259, 0.966, -0.966, 0.259, 1156.552, 225.669)" fill="#fff" opacity="0.2"/>
      <path id="Rectangle_Copy_44" data-name="Rectangle Copy 44" d="M11.446,0l1.047.016L1.047,1194,0,1193.985Z" transform="matrix(0.259, 0.966, -0.966, 0.259, 1156.552, 233.094)" fill="#fff" opacity="0.2"/>
      <path id="Rectangle_Copy_43" data-name="Rectangle Copy 43" d="M11.446,0l1.047.016L1.047,1194,0,1193.985Z" transform="matrix(0.259, 0.966, -0.966, 0.259, 1156.552, 240.518)" fill="#fff" opacity="0.2"/>
      <path id="Rectangle_Copy_42" data-name="Rectangle Copy 42" d="M11.446,0l1.047.016L1.047,1194,0,1193.985Z" transform="matrix(0.259, 0.966, -0.966, 0.259, 1156.552, 247.943)" fill="#fff" opacity="0.2"/>
      <path id="Rectangle_Copy_41" data-name="Rectangle Copy 41" d="M11.446,0l1.047.016L1.047,1194,0,1193.985Z" transform="matrix(0.259, 0.966, -0.966, 0.259, 1156.552, 256.295)" fill="#fff" opacity="0.2"/>
      <path id="Rectangle_Copy_40" data-name="Rectangle Copy 40" d="M11.446,0l1.047.016L1.047,1194,0,1193.985Z" transform="matrix(0.259, 0.966, -0.966, 0.259, 1156.552, 262.791)" fill="#fff" opacity="0.2"/>
      <path id="Rectangle_Copy_39" data-name="Rectangle Copy 39" d="M11.446,0l1.047.016L1.047,1194,0,1193.985Z" transform="matrix(0.259, 0.966, -0.966, 0.259, 1156.552, 270.216)" fill="#fff" opacity="0.2"/>
      <path id="Rectangle_Copy_38" data-name="Rectangle Copy 38" d="M11.446,0l1.047.016L1.047,1194,0,1193.985Z" transform="matrix(0.259, 0.966, -0.966, 0.259, 1156.552, 277.64)" fill="#fff" opacity="0.2"/>
      <path id="Rectangle_Copy_37" data-name="Rectangle Copy 37" d="M11.446,0l1.047.016L1.047,1194,0,1193.985Z" transform="matrix(0.259, 0.966, -0.966, 0.259, 1156.552, 285.065)" fill="#fff" opacity="0.2"/>
      <path id="Rectangle_Copy_36" data-name="Rectangle Copy 36" d="M11.446,0l1.047.016L1.047,1194,0,1193.985Z" transform="matrix(0.259, 0.966, -0.966, 0.259, 1156.552, 292.489)" fill="#fff" opacity="0.2"/>
      <path id="Rectangle_Copy_35" data-name="Rectangle Copy 35" d="M11.446,0l1.047.016L1.047,1194,0,1193.985Z" transform="matrix(0.259, 0.966, -0.966, 0.259, 1156.552, 299.914)" fill="#fff" opacity="0.2"/>
      <path id="Rectangle_Copy_34" data-name="Rectangle Copy 34" d="M11.446,0l1.047.016L1.047,1194,0,1193.985Z" transform="matrix(0.259, 0.966, -0.966, 0.259, 1156.552, 307.338)" fill="#fff" opacity="0.2"/>
      <path id="Rectangle_Copy_33" data-name="Rectangle Copy 33" d="M11.446,0l1.047.016L1.047,1194,0,1193.985Z" transform="matrix(0.259, 0.966, -0.966, 0.259, 1156.552, 314.763)" fill="#fff" opacity="0.2"/>
      <path id="Rectangle_Copy_32" data-name="Rectangle Copy 32" d="M11.446,0l1.047.016L1.047,1194,0,1193.985Z" transform="matrix(0.259, 0.966, -0.966, 0.259, 1156.552, 322.187)" fill="#fff" opacity="0.2"/>
      <path id="Rectangle_Copy_31" data-name="Rectangle Copy 31" d="M11.446,0l1.047.016L1.047,1194,0,1193.985Z" transform="matrix(0.259, 0.966, -0.966, 0.259, 1156.552, 328.684)" fill="#fff" opacity="0.2"/>
      <path id="Rectangle_Copy_30" data-name="Rectangle Copy 30" d="M11.446,0l1.047.016L1.047,1194,0,1193.985Z" transform="matrix(0.259, 0.966, -0.966, 0.259, 1156.552, 336.108)" fill="#fff" opacity="0.2"/>
      <path id="Rectangle_Copy_101" data-name="Rectangle Copy 101" d="M11.446,0l1.047.016L1.047,1194,0,1193.985Z" transform="matrix(0.259, 0.966, -0.966, 0.259, 1156.552, 344.461)" fill="#fff" opacity="0.2"/>
      <path id="Rectangle_Copy_100" data-name="Rectangle Copy 100" d="M11.446,0l1.047.016L1.047,1194,0,1193.985Z" transform="matrix(0.259, 0.966, -0.966, 0.259, 1156.552, 351.885)" fill="#fff" opacity="0.2"/>
      <path id="Rectangle_Copy_99" data-name="Rectangle Copy 99" d="M11.446,0l1.047.016L1.047,1194,0,1193.985Z" transform="matrix(0.259, 0.966, -0.966, 0.259, 1156.552, 359.309)" fill="#fff" opacity="0.2"/>
      <path id="Rectangle_Copy_98" data-name="Rectangle Copy 98" d="M11.446,0l1.047.016L1.047,1194,0,1193.985Z" transform="matrix(0.259, 0.966, -0.966, 0.259, 1156.552, 366.734)" fill="#fff" opacity="0.2"/>
      <path id="Rectangle_Copy_97" data-name="Rectangle Copy 97" d="M11.446,0l1.047.016L1.047,1194,0,1193.985Z" transform="matrix(0.259, 0.966, -0.966, 0.259, 1156.552, 374.158)" fill="#fff" opacity="0.2"/>
      <path id="Rectangle_Copy_96" data-name="Rectangle Copy 96" d="M11.446,0l1.047.016L1.047,1194,0,1193.985Z" transform="matrix(0.259, 0.966, -0.966, 0.259, 1156.552, 381.583)" fill="#fff" opacity="0.2"/>
      <path id="Rectangle_Copy_95" data-name="Rectangle Copy 95" d="M11.446,0l1.047.016L1.047,1194,0,1193.985Z" transform="matrix(0.259, 0.966, -0.966, 0.259, 1156.552, 389.007)" fill="#fff" opacity="0.2"/>
      <path id="Rectangle_Copy_94" data-name="Rectangle Copy 94" d="M11.446,0l1.047.016L1.047,1194,0,1193.985Z" transform="matrix(0.259, 0.966, -0.966, 0.259, 1156.552, 396.432)" fill="#fff" opacity="0.2"/>
      <path id="Rectangle_Copy_93" data-name="Rectangle Copy 93" d="M11.446,0l1.047.016L1.047,1194,0,1193.985Z" transform="matrix(0.259, 0.966, -0.966, 0.259, 1156.552, 403.856)" fill="#fff" opacity="0.2"/>
      <path id="Rectangle_Copy_69" data-name="Rectangle Copy 69" d="M11.446,0l1.047.016L1.047,1194,0,1193.985Z" transform="matrix(0.259, 0.966, -0.966, 0.259, 1156.552, 411.281)" fill="#fff" opacity="0.2"/>
      <path id="Rectangle_Copy_68" data-name="Rectangle Copy 68" d="M11.446,0l1.047.016L1.047,1194,0,1193.985Z" transform="matrix(0.259, 0.966, -0.966, 0.259, 1156.552, 419.633)" fill="#fff" opacity="0.2"/>
      <path id="Rectangle_Copy_67" data-name="Rectangle Copy 67" d="M11.446,0l1.047.016L1.047,1194,0,1193.985Z" transform="matrix(0.259, 0.966, -0.966, 0.259, 1156.552, 426.13)" fill="#fff" opacity="0.2"/>
      <path id="Rectangle_Copy_66" data-name="Rectangle Copy 66" d="M11.446,0l1.047.016L1.047,1194,0,1193.985Z" transform="matrix(0.259, 0.966, -0.966, 0.259, 1156.552, 433.554)" fill="#fff" opacity="0.2"/>
      <path id="Rectangle_Copy_65" data-name="Rectangle Copy 65" d="M11.446,0l1.047.016L1.047,1194,0,1193.985Z" transform="matrix(0.259, 0.966, -0.966, 0.259, 1156.552, 440.979)" fill="#fff" opacity="0.2"/>
      <path id="Rectangle_Copy_64" data-name="Rectangle Copy 64" d="M11.446,0l1.047.016L1.047,1194,0,1193.985Z" transform="matrix(0.259, 0.966, -0.966, 0.259, 1156.552, 448.403)" fill="#fff" opacity="0.2"/>
      <path id="Rectangle_Copy_63" data-name="Rectangle Copy 63" d="M11.446,0l1.047.016L1.047,1194,0,1193.985Z" transform="matrix(0.259, 0.966, -0.966, 0.259, 1156.552, 455.827)" fill="#fff" opacity="0.2"/>
      <path id="Rectangle_Copy_62" data-name="Rectangle Copy 62" d="M11.446,0l1.047.016L1.047,1194,0,1193.985Z" transform="matrix(0.259, 0.966, -0.966, 0.259, 1156.552, 463.252)" fill="#fff" opacity="0.2"/>
      <path id="Rectangle_Copy_61" data-name="Rectangle Copy 61" d="M11.446,0l1.047.016L1.047,1194,0,1193.985Z" transform="matrix(0.259, 0.966, -0.966, 0.259, 1156.552, 470.676)" fill="#fff" opacity="0.2"/>
      <path id="Rectangle_Copy_60" data-name="Rectangle Copy 60" d="M11.446,0l1.047.016L1.047,1194,0,1193.985Z" transform="matrix(0.259, 0.966, -0.966, 0.259, 1156.552, 478.101)" fill="#fff" opacity="0.2"/>
      <path id="Rectangle_Copy_59" data-name="Rectangle Copy 59" d="M11.446,0l1.047.016L1.047,1194,0,1193.985Z" transform="matrix(0.259, 0.966, -0.966, 0.259, 1156.552, 485.525)" fill="#fff" opacity="0.2"/>
      <path id="Rectangle_Copy_58" data-name="Rectangle Copy 58" d="M11.446,0l1.047.016L1.047,1194,0,1193.985Z" transform="matrix(0.259, 0.966, -0.966, 0.259, 1156.552, 492.022)" fill="#fff" opacity="0.2"/>
      <path id="Rectangle_Copy_56" data-name="Rectangle Copy 56" d="M11.446,0l1.047.016L1.047,1194,0,1193.985Z" transform="matrix(0.259, 0.966, -0.966, 0.259, 1156.552, 499.446)" fill="#fff" opacity="0.2"/>
      <path id="Rectangle_Copy_110" data-name="Rectangle Copy 110" d="M11.446,0l1.047.016L1.047,1194,0,1193.985Z" transform="matrix(0.259, 0.966, -0.966, 0.259, 1156.552, 507.799)" fill="#fff" opacity="0.2"/>
      <path id="Rectangle_Copy_109" data-name="Rectangle Copy 109" d="M11.446,0l1.047.016L1.047,1194,0,1193.985Z" transform="matrix(0.259, 0.966, -0.966, 0.259, 1156.552, 515.223)" fill="#fff" opacity="0.2"/>
      <path id="Rectangle_Copy_108" data-name="Rectangle Copy 108" d="M11.446,0l1.047.016L1.047,1194,0,1193.985Z" transform="matrix(0.259, 0.966, -0.966, 0.259, 1156.552, 522.648)" fill="#fff" opacity="0.2"/>
      <path id="Rectangle_Copy_107" data-name="Rectangle Copy 107" d="M11.446,0l1.047.016L1.047,1194,0,1193.985Z" transform="matrix(0.259, 0.966, -0.966, 0.259, 1156.552, 530.072)" fill="#fff" opacity="0.2"/>
      <path id="Rectangle_Copy_106" data-name="Rectangle Copy 106" d="M11.446,0l1.047.016L1.047,1194,0,1193.985Z" transform="matrix(0.259, 0.966, -0.966, 0.259, 1156.552, 537.497)" fill="#fff" opacity="0.2"/>
      <path id="Rectangle_Copy_105" data-name="Rectangle Copy 105" d="M11.446,0l1.047.016L1.047,1194,0,1193.985Z" transform="matrix(0.259, 0.966, -0.966, 0.259, 1156.552, 544.921)" fill="#fff" opacity="0.2"/>
      <path id="Rectangle_Copy_104" data-name="Rectangle Copy 104" d="M11.446,0l1.047.016L1.047,1194,0,1193.985Z" transform="matrix(0.259, 0.966, -0.966, 0.259, 1156.552, 552.345)" fill="#fff" opacity="0.2"/>
      <path id="Rectangle_Copy_103" data-name="Rectangle Copy 103" d="M11.446,0l1.047.016L1.047,1194,0,1193.985Z" transform="matrix(0.259, 0.966, -0.966, 0.259, 1156.552, 559.77)" fill="#fff" opacity="0.2"/>
      <path id="Rectangle_Copy_102" data-name="Rectangle Copy 102" d="M11.446,0l1.047.016L1.047,1194,0,1193.985Z" transform="matrix(0.259, 0.966, -0.966, 0.259, 1156.552, 567.194)" fill="#fff" opacity="0.2"/>
      <path id="Rectangle_Copy_86" data-name="Rectangle Copy 86" d="M11.446,0l1.047.016L1.047,1194,0,1193.985Z" transform="matrix(0.259, 0.966, -0.966, 0.259, 1156.552, 574.619)" fill="#fff" opacity="0.2"/>
      <path id="Rectangle_Copy_85" data-name="Rectangle Copy 85" d="M11.446,0l1.047.016L1.047,1194,0,1193.985Z" transform="matrix(0.259, 0.966, -0.966, 0.259, 1156.552, 582.043)" fill="#fff" opacity="0.2"/>
      <path id="Rectangle_Copy_84" data-name="Rectangle Copy 84" d="M11.446,0l1.047.016L1.047,1194,0,1193.985Z" transform="matrix(0.259, 0.966, -0.966, 0.259, 1156.552, 588.54)" fill="#fff" opacity="0.2"/>
      <path id="Rectangle_Copy_83" data-name="Rectangle Copy 83" d="M11.446,0l1.047.016L1.047,1194,0,1193.985Z" transform="matrix(0.259, 0.966, -0.966, 0.259, 1156.552, 595.964)" fill="#fff" opacity="0.2"/>
      <path id="Rectangle_Copy_128" data-name="Rectangle Copy 128" d="M11.446,0l1.047.016L1.047,1194,0,1193.985Z" transform="matrix(0.259, 0.966, -0.966, 0.259, 1156.552, 604.317)" fill="#fff" opacity="0.2"/>
      <path id="Rectangle_Copy_127" data-name="Rectangle Copy 127" d="M11.446,0l1.047.016L1.047,1194,0,1193.985Z" transform="matrix(0.259, 0.966, -0.966, 0.259, 1156.552, 611.741)" fill="#fff" opacity="0.2"/>
      <path id="Rectangle_Copy_126" data-name="Rectangle Copy 126" d="M11.446,0l1.047.016L1.047,1194,0,1193.985Z" transform="matrix(0.259, 0.966, -0.966, 0.259, 1156.552, 619.166)" fill="#fff" opacity="0.2"/>
      <path id="Rectangle_Copy_125" data-name="Rectangle Copy 125" d="M11.446,0l1.047.016L1.047,1194,0,1193.985Z" transform="matrix(0.259, 0.966, -0.966, 0.259, 1156.552, 626.59)" fill="#fff" opacity="0.2"/>
      <path id="Rectangle_Copy_124" data-name="Rectangle Copy 124" d="M11.446,0l1.047.016L1.047,1194,0,1193.985Z" transform="matrix(0.259, 0.966, -0.966, 0.259, 1156.552, 634.014)" fill="#fff" opacity="0.2"/>
      <path id="Rectangle_Copy_123" data-name="Rectangle Copy 123" d="M11.446,0l1.047.016L1.047,1194,0,1193.985Z" transform="matrix(0.259, 0.966, -0.966, 0.259, 1156.552, 641.439)" fill="#fff" opacity="0.2"/>
      <path id="Rectangle_Copy_122" data-name="Rectangle Copy 122" d="M11.446,0l1.047.016L1.047,1194,0,1193.985Z" transform="matrix(0.259, 0.966, -0.966, 0.259, 1156.552, 648.863)" fill="#fff" opacity="0.2"/>
      <path id="Rectangle_Copy_121" data-name="Rectangle Copy 121" d="M11.446,0l1.047.016L1.047,1194,0,1193.985Z" transform="matrix(0.259, 0.966, -0.966, 0.259, 1156.552, 656.288)" fill="#fff" opacity="0.2"/>
      <path id="Rectangle_Copy_120" data-name="Rectangle Copy 120" d="M11.446,0l1.047.016L1.047,1194,0,1193.985Z" transform="matrix(0.259, 0.966, -0.966, 0.259, 1156.552, 663.712)" fill="#fff" opacity="0.2"/>
      <path id="Rectangle_Copy_82" data-name="Rectangle Copy 82" d="M11.446,0l1.047.016L1.047,1194,0,1193.985Z" transform="matrix(0.259, 0.966, -0.966, 0.259, 1156.552, 671.137)" fill="#fff" opacity="0.2"/>
      <path id="Rectangle_Copy_81" data-name="Rectangle Copy 81" d="M11.446,0l1.047.016L1.047,1194,0,1193.985Z" transform="matrix(0.259, 0.966, -0.966, 0.259, 1156.552, 679.489)" fill="#fff" opacity="0.2"/>
      <path id="Rectangle_Copy_80" data-name="Rectangle Copy 80" d="M11.446,0l1.047.016L1.047,1194,0,1193.985Z" transform="matrix(0.259, 0.966, -0.966, 0.259, 1156.552, 685.986)" fill="#fff" opacity="0.2"/>
      <path id="Rectangle_Copy_79" data-name="Rectangle Copy 79" d="M11.446,0l1.047.016L1.047,1194,0,1193.985Z" transform="matrix(0.259, 0.966, -0.966, 0.259, 1156.552, 693.41)" fill="#fff" opacity="0.2"/>
      <path id="Rectangle_Copy_78" data-name="Rectangle Copy 78" d="M11.446,0l1.047.016L1.047,1194,0,1193.985Z" transform="matrix(0.259, 0.966, -0.966, 0.259, 1156.552, 700.835)" fill="#fff" opacity="0.2"/>
      <path id="Rectangle_Copy_77" data-name="Rectangle Copy 77" d="M11.446,0l1.047.016L1.047,1194,0,1193.985Z" transform="matrix(0.259, 0.966, -0.966, 0.259, 1156.552, 708.259)" fill="#fff" opacity="0.2"/>
      <path id="Rectangle_Copy_76" data-name="Rectangle Copy 76" d="M11.446,0l1.047.016L1.047,1194,0,1193.985Z" transform="matrix(0.259, 0.966, -0.966, 0.259, 1156.552, 715.684)" fill="#fff" opacity="0.2"/>
      <path id="Rectangle_Copy_138" data-name="Rectangle Copy 138" d="M11.446,0l1.047.016L1.047,1194,0,1193.985Z" transform="matrix(0.259, 0.966, -0.966, 0.259, 1156.552, 723.108)" fill="#fff" opacity="0.2"/>
      <path id="Rectangle_Copy_119" data-name="Rectangle Copy 119" d="M11.446,0l1.047.016L1.047,1194,0,1193.985Z" transform="matrix(0.259, 0.966, -0.966, 0.259, 1156.552, 730.532)" fill="#fff" opacity="0.2"/>
      <path id="Rectangle_Copy_118" data-name="Rectangle Copy 118" d="M11.446,0l1.047.016L1.047,1194,0,1193.985Z" transform="matrix(0.259, 0.966, -0.966, 0.259, 1156.552, 737.957)" fill="#fff" opacity="0.2"/>
      <path id="Rectangle_Copy_117" data-name="Rectangle Copy 117" d="M11.446,0l1.047.016L1.047,1194,0,1193.985Z" transform="matrix(0.259, 0.966, -0.966, 0.259, 1156.552, 745.381)" fill="#fff" opacity="0.2"/>
      <path id="Rectangle_Copy_116" data-name="Rectangle Copy 116" d="M11.446,0l1.047.016L1.047,1194,0,1193.985Z" transform="matrix(0.259, 0.966, -0.966, 0.259, 1156.552, 752.806)" fill="#fff" opacity="0.2"/>
      <path id="Rectangle_Copy_115" data-name="Rectangle Copy 115" d="M11.446,0l1.047.016L1.047,1194,0,1193.985Z" transform="matrix(0.259, 0.966, -0.966, 0.259, 1156.552, 760.23)" fill="#fff" opacity="0.2"/>
      <path id="Rectangle_Copy_114" data-name="Rectangle Copy 114" d="M11.446,0l1.047.016L1.047,1194,0,1193.985Z" transform="matrix(0.259, 0.966, -0.966, 0.259, 1156.552, 767.655)" fill="#fff" opacity="0.2"/>
      <path id="Rectangle_Copy_113" data-name="Rectangle Copy 113" d="M11.446,0l1.047.016L1.047,1194,0,1193.985Z" transform="matrix(0.259, 0.966, -0.966, 0.259, 1156.552, 774.151)" fill="#fff" opacity="0.2"/>
      <path id="Rectangle_Copy_112" data-name="Rectangle Copy 112" d="M11.446,0l1.047.016L1.047,1194,0,1193.985Z" transform="matrix(0.259, 0.966, -0.966, 0.259, 1156.552, 781.576)" fill="#fff" opacity="0.2"/>
      <path id="Rectangle_Copy_137" data-name="Rectangle Copy 137" d="M11.446,0l1.047.016L1.047,1194,0,1193.985Z" transform="matrix(0.259, 0.966, -0.966, 0.259, 1156.552, 789.928)" fill="#fff" opacity="0.2"/>
      <path id="Rectangle_Copy_136" data-name="Rectangle Copy 136" d="M11.446,0l1.047.016L1.047,1194,0,1193.985Z" transform="matrix(0.259, 0.966, -0.966, 0.259, 1156.552, 797.353)" fill="#fff" opacity="0.2"/>
      <path id="Rectangle_Copy_135" data-name="Rectangle Copy 135" d="M11.446,0l1.047.016L1.047,1194,0,1193.985Z" transform="matrix(0.259, 0.966, -0.966, 0.259, 1156.552, 804.777)" fill="#fff" opacity="0.2"/>
      <path id="Rectangle_Copy_134" data-name="Rectangle Copy 134" d="M11.446,0l1.047.016L1.047,1194,0,1193.985Z" transform="matrix(0.259, 0.966, -0.966, 0.259, 1156.552, 812.202)" fill="#fff" opacity="0.2"/>
      <path id="Rectangle_Copy_133" data-name="Rectangle Copy 133" d="M11.446,0l1.047.016L1.047,1194,0,1193.985Z" transform="matrix(0.259, 0.966, -0.966, 0.259, 1156.552, 819.626)" fill="#fff" opacity="0.2"/>
      <path id="Rectangle_Copy_132" data-name="Rectangle Copy 132" d="M11.446,0l1.047.016L1.047,1194,0,1193.985Z" transform="matrix(0.259, 0.966, -0.966, 0.259, 1156.552, 827.05)" fill="#fff" opacity="0.2"/>
      <path id="Rectangle_Copy_131" data-name="Rectangle Copy 131" d="M11.446,0l1.047.016L1.047,1194,0,1193.985Z" transform="matrix(0.259, 0.966, -0.966, 0.259, 1156.552, 834.475)" fill="#fff" opacity="0.2"/>
      <path id="Rectangle_Copy_130" data-name="Rectangle Copy 130" d="M11.446,0l1.047.016L1.047,1194,0,1193.985Z" transform="matrix(0.259, 0.966, -0.966, 0.259, 1156.552, 841.899)" fill="#fff" opacity="0.2"/>
      <path id="Rectangle_Copy_129" data-name="Rectangle Copy 129" d="M11.446,0l1.047.016L1.047,1194,0,1193.985Z" transform="matrix(0.259, 0.966, -0.966, 0.259, 1156.552, 849.324)" fill="#fff" opacity="0.2"/>
      <path id="Rectangle_Copy_111" data-name="Rectangle Copy 111" d="M11.446,0l1.047.016L1.047,1194,0,1193.985Z" transform="matrix(0.259, 0.966, -0.966, 0.259, 1156.552, 856.748)" fill="#fff" opacity="0.2"/>
      <path id="Rectangle_Copy_92" data-name="Rectangle Copy 92" d="M11.446,0l1.047.016L1.047,1194,0,1193.985Z" transform="matrix(0.259, 0.966, -0.966, 0.259, 1156.552, 865.101)" fill="#fff" opacity="0.2"/>
      <path id="Rectangle_Copy_91" data-name="Rectangle Copy 91" d="M11.446,0l1.047.016L1.047,1194,0,1193.985Z" transform="matrix(0.259, 0.966, -0.966, 0.259, 1156.552, 871.597)" fill="#fff" opacity="0.2"/>
      <path id="Rectangle_Copy_90" data-name="Rectangle Copy 90" d="M11.446,0l1.047.016L1.047,1194,0,1193.985Z" transform="matrix(0.259, 0.966, -0.966, 0.259, 1156.552, 879.022)" fill="#fff" opacity="0.2"/>
      <path id="Rectangle_Copy_89" data-name="Rectangle Copy 89" d="M11.446,0l1.047.016L1.047,1194,0,1193.985Z" transform="matrix(0.259, 0.966, -0.966, 0.259, 1156.552, 886.446)" fill="#fff" opacity="0.2"/>
      <path id="Rectangle_Copy_88" data-name="Rectangle Copy 88" d="M11.446,0l1.047.016L1.047,1194,0,1193.985Z" transform="matrix(0.259, 0.966, -0.966, 0.259, 1156.552, 893.871)" fill="#fff" opacity="0.2"/>
      <path id="Rectangle_Copy_87" data-name="Rectangle Copy 87" d="M11.446,0l1.047.016L1.047,1194,0,1193.985Z" transform="matrix(0.259, 0.966, -0.966, 0.259, 1156.552, 901.295)" fill="#fff" opacity="0.2"/>
      <path id="Rectangle_Copy_163" data-name="Rectangle Copy 163" d="M11.446,0l1.047.016L1.047,1194,0,1193.985Z" transform="matrix(0.259, 0.966, -0.966, 0.259, 1156.552, 908.72)" fill="#fff" opacity="0.2"/>
      <path id="Rectangle_Copy_162" data-name="Rectangle Copy 162" d="M11.446,0l1.047.016L1.047,1194,0,1193.985Z" transform="matrix(0.259, 0.966, -0.966, 0.259, 1156.552, 916.144)" fill="#fff" opacity="0.2"/>
      <path id="Rectangle_Copy_161" data-name="Rectangle Copy 161" d="M11.446,0l1.047.016L1.047,1194,0,1193.985Z" transform="matrix(0.259, 0.966, -0.966, 0.259, 1156.552, 923.568)" fill="#fff" opacity="0.2"/>
      <path id="Rectangle_Copy_160" data-name="Rectangle Copy 160" d="M11.446,0l1.047.016L1.047,1194,0,1193.985Z" transform="matrix(0.259, 0.966, -0.966, 0.259, 1156.552, 930.993)" fill="#fff" opacity="0.2"/>
      <path id="Rectangle_Copy_159" data-name="Rectangle Copy 159" d="M11.446,0l1.047.016L1.047,1194,0,1193.985Z" transform="matrix(0.259, 0.966, -0.966, 0.259, 1156.552, 938.417)" fill="#fff" opacity="0.2"/>
      <path id="Rectangle_Copy_158" data-name="Rectangle Copy 158" d="M11.446,0l1.047.016L1.047,1194,0,1193.985Z" transform="matrix(0.259, 0.966, -0.966, 0.259, 1156.552, 945.842)" fill="#fff" opacity="0.2"/>
      <path id="Rectangle_Copy_157" data-name="Rectangle Copy 157" d="M11.446,0l1.047.016L1.047,1194,0,1193.985Z" transform="matrix(0.259, 0.966, -0.966, 0.259, 1156.552, 953.266)" fill="#fff" opacity="0.2"/>
      <path id="Rectangle_Copy_156" data-name="Rectangle Copy 156" d="M11.446,0l1.047.016L1.047,1194,0,1193.985Z" transform="matrix(0.259, 0.966, -0.966, 0.259, 1156.552, 959.763)" fill="#fff" opacity="0.2"/>
      <path id="Rectangle_Copy_155" data-name="Rectangle Copy 155" d="M11.446,0l1.047.016L1.047,1194,0,1193.985Z" transform="matrix(0.259, 0.966, -0.966, 0.259, 1156.552, 967.187)" fill="#fff" opacity="0.2"/>
      <path id="Rectangle_Copy_154" data-name="Rectangle Copy 154" d="M11.446,0l1.047.016L1.047,1194,0,1193.985Z" transform="matrix(0.259, 0.966, -0.966, 0.259, 1156.552, 975.54)" fill="#fff" opacity="0.2"/>
      <path id="Rectangle_Copy_153" data-name="Rectangle Copy 153" d="M11.446,0l1.047.016L1.047,1194,0,1193.985Z" transform="matrix(0.259, 0.966, -0.966, 0.259, 1156.552, 982.964)" fill="#fff" opacity="0.2"/>
      <path id="Rectangle_Copy_152" data-name="Rectangle Copy 152" d="M11.446,0l1.047.016L1.047,1194,0,1193.985Z" transform="matrix(0.259, 0.966, -0.966, 0.259, 1156.552, 990.389)" fill="#fff" opacity="0.2"/>
      <path id="Rectangle_Copy_151" data-name="Rectangle Copy 151" d="M11.446,0l1.047.016L1.047,1194,0,1193.985Z" transform="matrix(0.259, 0.966, -0.966, 0.259, 1156.552, 997.813)" fill="#fff" opacity="0.2"/>
      <path id="Rectangle_Copy_150" data-name="Rectangle Copy 150" d="M11.446,0l1.047.016L1.047,1194,0,1193.985Z" transform="matrix(0.259, 0.966, -0.966, 0.259, 1156.552, 1005.237)" fill="#fff" opacity="0.2"/>
      <path id="Rectangle_Copy_149" data-name="Rectangle Copy 149" d="M11.446,0l1.047.016L1.047,1194,0,1193.985Z" transform="matrix(0.259, 0.966, -0.966, 0.259, 1156.552, 1012.662)" fill="#fff" opacity="0.2"/>
      <path id="Rectangle_Copy_148" data-name="Rectangle Copy 148" d="M11.446,0l1.047.016L1.047,1194,0,1193.985Z" transform="matrix(0.259, 0.966, -0.966, 0.259, 1156.552, 1020.086)" fill="#fff" opacity="0.2"/>
      <path id="Rectangle_Copy_147" data-name="Rectangle Copy 147" d="M11.446,0l1.047.016L1.047,1194,0,1193.985Z" transform="matrix(0.259, 0.966, -0.966, 0.259, 1156.552, 1027.511)" fill="#fff" opacity="0.2"/>
      <path id="Rectangle_Copy_146" data-name="Rectangle Copy 146" d="M11.446,0l1.047.016L1.047,1194,0,1193.985Z" transform="matrix(0.259, 0.966, -0.966, 0.259, 1156.552, 1034.935)" fill="#fff" opacity="0.2"/>
      <path id="Rectangle_Copy_145" data-name="Rectangle Copy 145" d="M11.446,0l1.047.016L1.047,1194,0,1193.985Z" transform="matrix(0.259, 0.966, -0.966, 0.259, 1156.552, 1042.36)" fill="#fff" opacity="0.2"/>
      <path id="Rectangle_Copy_144" data-name="Rectangle Copy 144" d="M11.446,0l1.047.016L1.047,1194,0,1193.985Z" transform="matrix(0.259, 0.966, -0.966, 0.259, 1156.552, 1050.712)" fill="#fff" opacity="0.2"/>
      <path id="Rectangle_Copy_143" data-name="Rectangle Copy 143" d="M11.446,0l1.047.016L1.047,1194,0,1193.985Z" transform="matrix(0.259, 0.966, -0.966, 0.259, 1156.552, 1057.209)" fill="#fff" opacity="0.2"/>
      <path id="Rectangle_Copy_142" data-name="Rectangle Copy 142" d="M11.446,0l1.047.016L1.047,1194,0,1193.985Z" transform="matrix(0.259, 0.966, -0.966, 0.259, 1156.552, 1064.633)" fill="#fff" opacity="0.2"/>
      <path id="Rectangle_Copy_141" data-name="Rectangle Copy 141" d="M11.446,0l1.047.016L1.047,1194,0,1193.985Z" transform="matrix(0.259, 0.966, -0.966, 0.259, 1156.552, 1072.058)" fill="#fff" opacity="0.2"/>
      <path id="Rectangle_Copy_140" data-name="Rectangle Copy 140" d="M11.446,0l1.047.016L1.047,1194,0,1193.985Z" transform="matrix(0.259, 0.966, -0.966, 0.259, 1156.552, 1079.482)" fill="#fff" opacity="0.2"/>
      <path id="Rectangle_Copy_139" data-name="Rectangle Copy 139" d="M11.446,0l1.047.016L1.047,1194,0,1193.985Z" transform="matrix(0.259, 0.966, -0.966, 0.259, 1156.552, 1086.907)" fill="#fff" opacity="0.2"/>
    </g>
  </g>
</svg>
