<?xml version="1.0" encoding="UTF-8"?>
<svg width="168px" height="37px" viewBox="0 0 168 37" version="1.1" xmlns="http://www.w3.org/2000/svg" xmlns:xlink="http://www.w3.org/1999/xlink">
    <!-- Generator: Sketch 55.1 (78136) - https://sketchapp.com -->
    <title>Group 7</title>
    <desc>Created with Sketch.</desc>
    <g id="Page-1" stroke="none" stroke-width="1" fill="none" fill-rule="evenodd">
        <g id="Homepage-v22" transform="translate(-265.000000, -37.000000)">
            <g id="Group-7" transform="translate(265.000000, 37.000000)">
                <g id="Group-6">
                    <g id="Group-3">
                        <circle id="Oval" fill="#030041" cx="18.5" cy="18.5" r="18.5"></circle>
                        <g id="Group" transform="translate(11.000000, 9.000000)"></g>
                    </g>
                    <g id="Group-5" transform="translate(10.000000, 10.000000)" fill="#FFFFFF" fill-rule="nonzero">
                        <path d="M14.030137,12.8470588 L18,12.8470588 C17.2931472,14.4313805 16.1835692,15.6862699 14.6712329,16.6117647 C13.1588965,17.5372595 11.4657628,18 9.59178082,18 C6.92875381,18 4.66439289,17.1176559 2.79863014,15.3529412 C0.932867384,13.5882265 0,11.4509929 0,8.94117647 C0,6.47841906 0.916429192,4.37255776 2.74931507,2.62352941 C4.58220095,0.874501059 6.78902819,0 9.36986301,0 C11.3095987,0 13.0397184,0.466662 14.560274,1.4 C16.0808295,2.333338 17.2273934,3.63136424 18,5.29411765 L14.2273973,5.29411765 C13.0438297,3.83528682 11.4493251,3.10588235 9.44383562,3.10588235 C7.71779959,3.10588235 6.27945781,3.66273953 5.12876712,4.77647059 C3.97807644,5.89020165 3.40273973,7.28626612 3.40273973,8.96470588 C3.40273973,10.5960866 3.99451463,11.9921511 5.17808219,13.1529412 C6.36164975,14.3137313 7.80821063,14.8941176 9.51780822,14.8941176 C10.4219223,14.8941176 11.206846,14.7450995 11.8726027,14.4470588 C12.5383595,14.1490181 13.2575304,13.6156901 14.030137,12.8470588 Z" id="C-Copy"></path>
                    </g>
                </g>
                <text id="onference" font-family="Avalon-Bold, Avalon" font-size="25" font-weight="bold" fill="#FFFFFF">
                    <tspan x="43" y="27">onference</tspan>
                </text>
            </g>
        </g>
    </g>
</svg>