<?xml version="1.0" encoding="UTF-8"?>
<svg width="56px" height="38px" viewBox="0 0 56 38" version="1.1" xmlns="http://www.w3.org/2000/svg" xmlns:xlink="http://www.w3.org/1999/xlink">
    <!-- Generator: Sketch 55.1 (78136) - https://sketchapp.com -->
    <title>discover</title>
    <desc>Created with Sketch.</desc>
    <g id="Page-1" stroke="none" stroke-width="1" fill="none" fill-rule="evenodd">
        <g id="Homepage-Copy-4" transform="translate(-1165.000000, -1513.000000)">
            <g id="Group-46" transform="translate(436.000000, 350.000000)">
                <g id="20x14" transform="translate(632.000000, 1163.000000)">
                    <g id="discover" transform="translate(97.500000, 0.000000)">
                        <path d="M0,2.49328613 C0,1.11628222 1.12356889,0 2.48808988,0 L52.5119101,0 C53.8860442,0 55,1.11668827 55,2.49328613 L55,35.5067139 C55,36.8837178 53.8764311,38 52.5119101,38 L2.48808988,38 C1.11395578,38 0,36.8833117 0,35.5067139 L0,2.49328613 Z" id="discover-bg" fill="#FFA200"></path>
                        <path d="M46.9587089,18.7252071 L46.5428904,18.7252071 L46.5428904,16.5860726 L46.9587089,16.5860726 C47.8735097,16.5860726 48.2893283,16.9822086 48.2893283,17.6160262 C48.2893283,18.329071 47.8735097,18.7252071 46.9587089,18.7252071 L46.9587089,18.7252071 Z M49.7862751,17.536799 C49.7862751,16.1899366 48.8714743,15.4768918 47.2082001,15.4768918 L45.1291073,15.4768918 L45.1291073,22.5281128 L46.5428904,22.5281128 L46.5428904,19.6759335 L46.7092178,19.6759335 L48.6219831,22.5281128 L50.3684211,22.5281128 L48.1230009,19.5967063 C49.1209654,19.4382519 49.8694388,18.5667527 49.7862751,17.536799 L49.7862751,17.536799 Z M40.2224484,22.5281128 L44.2143065,22.5281128 L44.2143065,21.3397047 L41.6362315,21.3397047 L41.6362315,19.4382519 L44.1311428,19.4382519 L44.1311428,18.2498438 L41.6362315,18.2498438 L41.6362315,16.6652998 L44.2143065,16.6652998 L44.2143065,15.4768918 L40.2224484,15.4768918 L40.2224484,22.5281128 L40.2224484,22.5281128 Z M36.0642629,20.2305239 L34.1514975,15.4768918 L32.6545507,15.4768918 L35.731608,22.6865672 L36.4800814,22.6865672 L39.5571387,15.4768918 L38.0601919,15.4768918 L36.0642629,20.2305239 L36.0642629,20.2305239 Z M19.1820297,19.0421159 C19.1820297,21.0227959 20.8453039,22.6865672 22.9243966,22.6865672 C23.5897063,22.6865672 24.1718523,22.5281128 24.7539983,22.2904312 L24.7539983,20.7058871 C24.3381797,21.1812503 23.7560337,21.4981591 23.090724,21.4981591 C21.7601047,21.4981591 20.6789764,20.5474327 20.6789764,19.2797975 L20.6789764,19.1213431 C20.5958127,17.8537078 21.676941,16.744527 23.0075603,16.6652998 C23.67287,16.6652998 24.3381797,16.9822086 24.7539983,17.4575718 L24.7539983,15.8730278 C24.255016,15.556119 23.5897063,15.4768918 23.0075603,15.4768918 C20.8453039,15.3184374 19.1820297,16.9822086 19.1820297,19.0421159 L19.1820297,19.0421159 Z M16.6039546,18.1706166 C15.7723175,17.8537078 15.5228264,17.6952534 15.5228264,17.2991174 C15.6059901,16.8237542 16.0218087,16.4276182 16.5207909,16.5068454 C16.9366095,16.5068454 17.352428,16.744527 17.6850829,17.0614358 L18.4335563,16.1107094 C17.8514103,15.6353462 17.1029369,15.3184374 16.3544635,15.3184374 C15.1901716,15.2392102 14.192207,16.1107094 14.1090433,17.2198902 L14.1090433,17.2991174 C14.1090433,18.2498438 14.5248619,18.8044343 15.8554812,19.2005703 C16.1881361,19.2797975 16.5207909,19.4382519 16.8534458,19.5967063 C17.1029369,19.7551607 17.2692643,19.9928423 17.2692643,20.3097511 C17.2692643,20.8643415 16.7702821,21.3397047 16.2712998,21.3397047 L16.1881361,21.3397047 C15.5228264,21.3397047 14.9406804,20.9435687 14.6911893,20.3889783 L13.7763885,21.2604775 C14.2753707,22.1319767 15.2733353,22.60734 16.2712998,22.60734 C17.6019192,22.6865672 18.6830474,21.7358407 18.7662111,20.4682055 L18.7662111,20.2305239 C18.6830474,19.2797975 18.2672288,18.8044343 16.6039546,18.1706166 L16.6039546,18.1706166 Z M11.7804594,22.5281128 L13.1942425,22.5281128 L13.1942425,15.4768918 L11.7804594,15.4768918 L11.7804594,22.5281128 L11.7804594,22.5281128 Z M8.95289328,20.7851143 C8.45391102,21.1812503 7.70543763,21.4189319 7.04012794,21.3397047 L6.62430939,21.3397047 L6.62430939,16.6652998 L7.04012794,16.6652998 C7.70543763,16.5860726 8.45391102,16.8237542 8.95289328,17.2198902 C9.45187555,17.6952534 9.70136668,18.329071 9.70136668,18.9628887 C9.70136668,19.6759335 9.45187555,20.3097511 8.95289328,20.7851143 L8.95289328,20.7851143 Z M7.28961908,15.4768918 L5.21052632,15.4768918 L5.21052632,22.5281128 L7.28961908,22.5281128 C8.20441989,22.60734 9.1192207,22.2904312 9.8676941,21.7358407 C10.6993312,21.0227959 11.1983135,20.0720695 11.1983135,19.0421159 C11.2814772,17.140663 9.70136668,15.556119 7.70543763,15.4768918 L7.28961908,15.4768918 L7.28961908,15.4768918 Z M28.9953475,15.3134328 C26.9162547,15.3134328 25.1698168,16.8979769 25.1698168,18.9578841 C25.1698168,20.9385642 26.833091,22.6023354 28.9953475,22.6815626 C31.157604,22.7607898 32.8208782,21.0970186 32.9040419,19.0371113 C32.8208782,16.9772041 31.157604,15.3134328 28.9953475,15.3134328 L28.9953475,15.3134328 Z" id="discover-logo" fill="#FFFFFF"></path>
                    </g>
                </g>
            </g>
        </g>
    </g>
</svg>