<?xml version="1.0" encoding="UTF-8"?>
<svg width="376px" height="176px" viewBox="0 0 376 176" version="1.1" xmlns="http://www.w3.org/2000/svg" xmlns:xlink="http://www.w3.org/1999/xlink">
    <!-- Generator: Sketch 55.1 (78136) - https://sketchapp.com -->
    <title>Group Copy</title>
    <desc>Created with Sketch.</desc>
    <g id="Page-1" stroke="none" stroke-width="1" fill="none" fill-rule="evenodd" opacity="0.400000006">
        <g id="Homepage-v1" transform="translate(-1003.000000, -4492.000000)" fill="#361E1D">
            <g id="Group-54" transform="translate(-231.000000, 4451.000000)">
                <g id="Group-51" transform="translate(231.000000, 41.000000)">
                    <g id="Group-Copy" transform="translate(1003.000000, 0.000000)">
                        <path d="M100.240429,10.8388982 L100.502674,10.869338 C105.06854,11.3493497 111.310898,1.81233684 106.37508,0.854654971 C103.422487,0.283323977 99.645696,4.18429708 98.6716446,7.29617778 C98.135448,9.01251228 98.4515464,10.4923532 100.240429,10.8388982" id="Fill-433"></path>
                        <path d="M185.284951,49.1438316 C180.702694,48.2563953 174.120823,58.1516608 179.1503,59.1280749 C183.732556,60.0155111 190.314428,50.1202456 185.284951,49.1438316" id="Fill-434"></path>
                        <path d="M145.707088,64.4526924 C146.308846,63.9211673 146.814603,63.3053474 147.22436,62.6052327 C147.854216,61.5047181 148.523876,60.1208795 148.324851,58.8166526 C148.177339,57.8566292 147.720752,56.7537731 146.629627,56.5430363 C146.287773,56.4774737 145.945918,56.4095696 145.604063,56.344007 C144.384158,56.1075135 143.253228,56.4119111 142.176152,57.0136819 C141.501809,57.3836421 140.907075,57.8519462 140.394293,58.4162526 C139.790194,58.9477778 139.284437,59.5635977 138.874679,60.2637025 C138.247166,61.3642269 137.575164,62.7480655 137.77653,64.0522924 C137.921701,65.0146573 138.380629,66.1151719 139.471754,66.3259088 C139.813609,66.3938129 140.155463,66.4593754 140.494977,66.524938 C141.714882,66.7614316 142.848154,66.4570339 143.922888,65.8552632 C144.599573,65.4853029 145.194306,65.0169988 145.707088,64.4526924" id="Fill-435"></path>
                        <path d="M130.548413,31.7229193 C135.130669,32.6126971 141.712541,22.7174316 136.680722,21.7410175 C132.100808,20.8512398 125.516595,30.7488468 130.548413,31.7229193" id="Fill-436"></path>
                        <path d="M93.6913385,34.4320585 C93.3494839,34.3664959 93.0076293,34.2985918 92.6657748,34.2330292 C91.445869,33.9965357 90.3125977,34.3009333 89.2378631,34.9027041 C88.5635198,35.2726643 87.9687865,35.7409684 87.4560046,36.3052749 C86.8519055,36.8368 86.346148,37.4526199 85.9363908,38.1527247 C85.3065355,39.2532491 84.6368751,40.6370877 84.8359,41.9413146 C84.9834126,42.901338 85.4399992,44.0041942 86.5311241,44.214931 C86.8729787,44.2828351 87.2148333,44.3483977 87.5566878,44.4139602 C88.7765936,44.6504538 89.9098649,44.3460561 90.9845995,43.7442854 C91.6589428,43.3743251 92.2536761,42.9060211 92.7664579,42.3417146 C93.3705571,41.8101895 93.8763146,41.1943696 94.2860718,40.494255 C94.9135857,39.3937404 95.5855875,38.0099018 95.3865626,36.7056749 C95.23905,35.7456515 94.7824634,34.6427953 93.6913385,34.4320585" id="Fill-437"></path>
                        <path d="M41.471881,25.1174901 C42.8463237,24.6304538 44.1200832,23.7336515 45.0449638,22.6073801 C45.9838931,21.4647181 46.7425293,20.1885895 47.0281886,18.7157731 C47.0937498,18.3739111 47.1616524,18.0320491 47.2272136,17.6901871 C47.4168726,16.7067485 47.26936,15.4025216 46.4592115,14.697724 C45.6514044,13.9976094 44.3308155,14.0210246 43.3872032,14.355862 C42.0127605,14.8428982 40.7413425,15.7397006 39.8141204,16.8659719 C38.8751911,18.0086339 38.1165549,19.2847626 37.8308956,20.7575789 C37.7653345,21.0994409 37.6997733,21.4389614 37.6342121,21.7808234 C37.4422116,22.7666035 37.5897242,24.0708304 38.4022142,24.7756281 C39.2076798,25.4757427 40.5306102,25.449986 41.471881,25.1174901" id="Fill-438"></path>
                        <path d="M8.75452474,43.6318924 C5.15100286,42.9317778 0.315867904,48.8956304 0.856747407,51.9536561 C1.00191853,52.7872374 1.54279803,53.4053988 2.6198741,53.6137942 C4.96602675,54.0703906 7.83666861,51.6937474 9.40311185,49.136807 C10.8946281,46.7039673 11.2060435,44.1072211 8.75452474,43.6318924" id="Fill-439"></path>
                        <path d="M57.5273388,59.4652538 C52.9450826,58.5778175 46.3632112,68.473083 51.3926882,69.4494971 C55.9749444,70.3369333 62.5568157,60.4416678 57.5273388,59.4652538" id="Fill-440"></path>
                        <path d="M254.559673,76.3944468 C255.934116,75.9074105 257.207876,75.0106082 258.132756,73.8843368 C259.071686,72.7416749 259.830322,71.4655462 260.115981,69.9927298 C260.181542,69.6508678 260.247103,69.3090058 260.315006,68.9671439 C260.504665,67.9837053 260.357152,66.6794784 259.544662,65.9746807 C258.739197,65.2745661 257.416267,65.3003228 256.474996,65.6328187 C255.100553,66.119855 253.826793,67.0166573 252.901913,68.1429287 C251.962984,69.2855906 251.204347,70.5617193 250.918688,72.0345357 C250.853127,72.3763977 250.787566,72.7182596 250.719663,73.0601216 C250.530004,74.0435602 250.677517,75.3477871 251.490007,76.0525848 C252.295472,76.7526994 253.618403,76.7269427 254.559673,76.3944468" id="Fill-441"></path>
                        <path d="M217.042304,61.1581731 C218.721138,61.4836444 220.669241,60.3573731 222.214611,58.7557731 C224.888569,55.9880959 226.363695,51.7920912 223.176955,51.1739298 C221.221828,50.7946035 218.903773,52.3821544 217.278793,54.3982035 C215.094202,57.1096842 214.157614,60.5985497 217.042304,61.1581731" id="Fill-442"></path>
                        <path d="M192.449848,83.517352 C187.867592,82.6299158 181.283379,92.5251813 186.315197,93.5015953 C190.897454,94.3890316 197.479325,84.4937661 192.449848,83.517352" id="Fill-443"></path>
                        <path d="M115.181347,70.6577216 C114.839493,70.5921591 114.497638,70.5265965 114.155784,70.4586924 C112.935878,70.2221988 111.802607,70.528938 110.727872,71.1307088 C110.053529,71.500669 109.458796,71.9666316 108.946014,72.5332795 C108.341914,73.0648047 107.836157,73.6806246 107.4264,74.3807392 C106.796544,75.4789123 106.126884,76.8650924 106.325909,78.1693193 C106.473422,79.1293427 106.930008,80.2298573 108.021133,80.4429357 C108.362988,80.5084982 108.704842,80.5740608 109.046697,80.6419649 C110.266603,80.8784585 111.399874,80.5717193 112.474609,79.9699485 C113.148952,79.5999883 113.743685,79.1340257 114.256467,78.5673778 C114.860566,78.0358526 115.366324,77.4200327 115.776081,76.7199181 C116.405936,75.621745 117.075596,74.2355649 116.876572,72.931338 C116.729059,71.9713146 116.272472,70.8708 115.181347,70.6577216" id="Fill-444"></path>
                        <path d="M215.283861,93.1667579 C219.866117,94.0541942 226.447988,84.1589287 221.418511,83.1825146 C216.836255,82.2950784 210.254384,92.1903439 215.283861,93.1667579" id="Fill-445"></path>
                        <path d="M294.196073,141.455935 C298.775987,142.343371 305.3602,132.448105 300.328382,131.471691 C295.746126,130.584255 289.164254,140.47952 294.196073,141.455935" id="Fill-446"></path>
                        <path d="M257.221925,139.341542 C256.54524,139.711502 255.950506,140.179806 255.437725,140.744112 C254.835967,141.275637 254.327868,141.891457 253.920452,142.591562 C253.290597,143.692087 252.620937,145.075925 252.819961,146.39186 C252.965133,147.351883 253.424061,148.452398 254.515186,148.663135 C254.85704,148.709965 255.198895,148.780211 255.540749,148.850456 C256.760655,149.084608 257.891585,148.780211 258.968661,148.171415 C259.643004,147.820187 260.237738,147.351883 260.750519,146.789918 C261.354619,146.251368 261.860376,145.642573 262.267792,144.933092 C262.897647,143.832578 263.569649,142.448739 263.368283,141.144512 C263.223111,140.184489 262.764183,139.081633 261.673058,138.870896 C261.331204,138.802992 260.989349,138.737429 260.649836,138.671867 C259.42993,138.435373 258.296659,138.739771 257.221925,139.341542" id="Fill-447"></path>
                        <path d="M251.726495,104.068877 C247.144239,103.179099 240.562368,113.076706 245.591844,114.050779 C250.174101,114.940557 256.755972,105.045291 251.726495,104.068877" id="Fill-448"></path>
                        <path d="M210.429994,119.033535 C210.282481,118.073511 209.825895,116.970655 208.73477,116.759918 C208.392915,116.692014 208.051061,116.626451 207.709206,116.560889 C206.4893,116.324395 205.35837,116.628793 204.281294,117.230564 C203.606951,117.600524 203.012218,118.068828 202.499436,118.633135 C201.895337,119.16466 201.389579,119.78048 200.979822,120.480584 C200.396796,121.503839 199.785673,122.770601 199.8606,123.992875 L199.879331,124.269174 C200.026844,125.229198 200.483431,126.332054 201.576897,126.542791 C201.91641,126.610695 202.258265,126.676257 202.600119,126.74182 C203.820025,126.978313 204.953296,126.673916 206.028031,126.072145 C206.704716,125.702185 207.297107,125.233881 207.812231,124.669574 C208.413988,124.138049 208.919746,123.522229 209.329503,122.822115 L209.359942,122.765918 C209.980432,121.67477 210.626677,120.316688 210.429994,119.033535" id="Fill-449"></path>
                        <path d="M158.432976,96.6837216 C157.056192,97.1707579 155.784774,98.0675602 154.859893,99.1938316 C153.918622,100.336494 153.159986,101.612622 152.876668,103.083097 C152.808766,103.424959 152.743205,103.766821 152.677643,104.108683 C152.485643,105.094463 152.635497,106.39869 153.445645,107.103488 C154.251111,107.803602 155.574041,107.777846 156.515312,107.44535 C157.889755,106.958313 159.163515,106.061511 160.088395,104.93524 C161.027324,103.792578 161.785961,102.516449 162.07162,101.043633 C162.139523,100.701771 162.205084,100.359909 162.270645,100.018047 C162.462645,99.0346082 162.312791,97.7303813 161.502643,97.0255836 C160.697177,96.325469 159.374247,96.3488842 158.432976,96.6837216" id="Fill-450"></path>
                        <path d="M123.797956,125.959752 C119.2157,125.069974 112.633828,134.96524 117.663305,135.941654 C122.245562,136.831432 128.827433,126.933825 123.797956,125.959752" id="Fill-451"></path>
                        <path d="M166.436119,151.777357 C168.644125,152.19883 171.315742,150.138292 172.929015,147.749942 C174.57741,145.31476 175.118289,142.586889 172.926673,141.889116 L172.57077,141.793113 C167.988514,140.905677 161.406643,150.793918 166.436119,151.777357" id="Fill-452"></path>
                        <path d="M332.085736,143.486033 C333.497642,143.759991 335.096866,143.008363 336.49004,141.811846 L336.49004,133.621207 C332.212175,134.885628 327.665041,142.626695 332.085736,143.486033" id="Fill-453"></path>
                        <path d="M301.358629,175.824772 C305.940885,176.71455 312.522756,166.809918 307.493279,165.849895 C302.911023,164.960117 296.329152,174.841333 301.358629,175.824772" id="Fill-454"></path>
                        <path d="M230.224779,152.994947 C229.882924,152.924702 229.54107,152.854456 229.199215,152.784211 C227.979309,152.550058 226.848379,152.854456 225.771303,153.463251 C225.09696,153.837895 224.502227,154.306199 223.989445,154.868164 C223.385346,155.383298 222.879588,156.015509 222.469831,156.717965 C221.842317,157.81848 221.170315,159.199977 221.36934,160.487813 C221.516853,161.447836 221.97344,162.548351 223.066906,162.759088 C223.40876,162.829333 223.748274,162.899579 224.090128,162.969825 C225.310034,163.203977 226.443305,162.899579 227.51804,162.290784 C228.194725,161.939556 228.787116,161.471251 229.30224,160.885871 C229.903997,160.370737 230.409755,159.738526 230.819512,159.059485 C231.449367,157.958971 232.119028,156.554058 231.920003,155.266222 C231.77249,154.306199 231.315904,153.205684 230.224779,152.994947" id="Fill-455"></path>
                        <path d="M371.518427,147.960678 C370.143984,148.452398 368.872566,149.342175 367.945344,150.466105 C367.006415,151.61345 366.247779,152.877871 365.962119,154.353029 C365.896558,154.704257 365.830997,155.055485 365.765436,155.383298 C365.573435,156.366737 365.720948,157.677988 366.533438,158.380444 C367.338904,159.082901 368.661834,159.059485 369.603105,158.731673 C370.977547,158.239953 372.251307,157.32676 373.176188,156.20283 C374.115117,155.078901 374.873753,153.791064 375.159412,152.315906 C375.224974,151.988094 375.292876,151.636865 375.358437,151.285637 C375.548096,150.302199 375.400584,149.014363 374.590435,148.311906 C373.782628,147.60945 372.462039,147.632865 371.518427,147.960678" id="Fill-460"></path>
                        <path d="M338.220386,133.501789 C337.665458,133.39408 337.08009,133.447935 336.49004,133.621207 L336.49004,141.811846 C339.620585,139.12378 341.702152,134.178489 338.220386,133.501789" id="Fill-461"></path>
                    </g>
                </g>
            </g>
        </g>
    </g>
</svg>