<?xml version="1.0" encoding="UTF-8"?>
<svg width="55px" height="38px" viewBox="0 0 55 38" version="1.1" xmlns="http://www.w3.org/2000/svg" xmlns:xlink="http://www.w3.org/1999/xlink">
    <!-- Generator: Sketch 55.1 (78136) - https://sketchapp.com -->
    <title>mastercard</title>
    <desc>Created with Sketch.</desc>
    <g id="Page-1" stroke="none" stroke-width="1" fill="none" fill-rule="evenodd">
        <g id="Homepage-Copy-4" transform="translate(-1198.000000, -1513.000000)">
            <g id="Group-46" transform="translate(436.000000, 350.000000)">
                <g id="20x14" transform="translate(632.000000, 1163.000000)">
                    <g id="mastercard" transform="translate(130.000000, 0.000000)">
                        <rect id="mastercard-bg" fill="#353A48" x="0" y="0" width="55" height="38" rx="2.46315803"></rect>
                        <g id="mastercard-logo" transform="translate(9.842105, 8.507463)">
                            <path d="M17.9473684,2.69950539 C19.8176488,1.13652065 22.2437156,0.192978978 24.8947368,0.192978978 C30.8099972,0.192978978 35.6052632,4.89064795 35.6052632,10.6855163 C35.6052632,16.4803846 30.8099972,21.1780536 24.8947368,21.1780536 C22.2437156,21.1780536 19.8176488,20.2345119 17.9473684,18.6715272 C16.077088,20.2345119 13.6510212,21.1780536 11,21.1780536 C5.08473965,21.1780536 0.289473684,16.4803846 0.289473684,10.6855163 C0.289473684,4.89064795 5.08473965,0.192978978 11,0.192978978 C13.6510212,0.192978978 16.077088,1.13652065 17.9473684,2.69950539 Z" id="Combined-Shape" fill="#FF5E00"></path>
                            <path d="M17.9473684,2.69950539 C15.6444662,4.62403015 14.1842105,7.4877135 14.1842105,10.6855163 C14.1842105,13.8833191 15.6444662,16.7470024 17.9473684,18.6715272 C16.077088,20.2345119 13.6510212,21.1780536 11,21.1780536 C5.08473965,21.1780536 0.289473684,16.4803846 0.289473684,10.6855163 C0.289473684,4.89064795 5.08473965,0.192978978 11,0.192978978 C13.6510212,0.192978978 16.077088,1.13652065 17.9473684,2.69950539 Z" id="Combined-Shape" fill="#ED0006"></path>
                            <path d="M17.9473684,18.6715272 C20.2502706,16.7470024 21.7105263,13.8833191 21.7105263,10.6855163 C21.7105263,7.4877135 20.2502706,4.62403015 17.9473684,2.69950539 C19.8176488,1.13652065 22.2437156,0.192978978 24.8947368,0.192978978 C30.8099972,0.192978978 35.6052632,4.89064795 35.6052632,10.6855163 C35.6052632,16.4803846 30.8099972,21.1780536 24.8947368,21.1780536 C22.2437156,21.1780536 19.8176488,20.2345119 17.9473684,18.6715272 Z" id="Combined-Shape" fill="#F9A000"></path>
                        </g>
                    </g>
                </g>
            </g>
        </g>
    </g>
</svg>