<?xml version="1.0" encoding="UTF-8"?>
<svg width="57px" height="47px" viewBox="0 0 57 47" version="1.1" xmlns="http://www.w3.org/2000/svg" xmlns:xlink="http://www.w3.org/1999/xlink">
    <!-- Generator: Sketch 55.1 (78136) - https://sketchapp.com -->
    <title>Group@3x</title>
    <desc>Created with Sketch.</desc>
    <g id="Page-1" stroke="none" stroke-width="1" fill="none" fill-rule="evenodd">
        <g id="Single-Blog" transform="translate(-325.000000, -1887.000000)" fill="#A64025" fill-rule="nonzero">
            <g id="Group-25" transform="translate(265.000000, 500.000000)">
                <g id="Group-15" transform="translate(30.000000, 1357.000000)">
                    <g id="noun_Quotation-Marks_1966603">
                        <g transform="translate(30.000000, 30.000000)" id="Group">
                            <g>
                                <path d="M13.942724,0.344362897 C10.4420839,0.344362897 7.37902381,1.65710294 4.75354372,4.28258304 C2.12806362,6.90806313 0.815323573,9.82526324 0.815323573,13.1800434 C0.815323573,16.3889635 1.83634361,19.3061636 4.02424369,21.7857837 C6.21214377,24.4112638 9.71278389,24.9947038 12.629984,25.1405638 C12.192404,29.2246439 9.8586439,33.6004441 7.52488382,36.6635042 C7.23316381,37.1010842 6.79558379,37.5386642 6.35800377,38.1221043 C5.77456375,38.8514043 5.77456375,39.8724243 6.35800377,40.6017244 L11.1713839,45.7068245 C11.900684,46.4361246 13.067564,46.4361246 13.796864,45.7068245 C15.8389041,43.3730645 17.7350842,40.8934444 19.6312643,38.1221043 C24.4446444,30.683244 26.7784045,23.0985237 26.7784045,15.5138034 C26.7784045,11.1380033 25.4656645,7.49150316 22.8401844,4.72016306 C20.5064243,1.65710294 17.4433642,0.344362897 13.942724,0.344362897 Z" id="Path"></path>
                                <path d="M43.8028858,0.344362897 C40.3022457,0.344362897 37.2391856,1.65710294 34.6137055,4.28258304 C31.9882254,6.90806313 30.6754854,9.82526324 30.6754854,13.1800434 C30.6754854,16.3889635 31.6965054,19.3061636 33.8844055,21.7857837 C36.0723056,24.4112638 39.5729457,24.9947038 42.4901458,25.1405638 C42.0525658,29.2246439 39.7188057,33.6004441 37.3850456,36.6635042 C37.0933256,37.1010842 36.6557456,37.5386642 36.2181656,38.1221043 C35.6347255,38.8514043 35.6347255,39.8724243 36.2181656,40.6017244 L41.0315457,45.7068245 C41.7608458,46.4361246 42.9277258,46.4361246 43.6570258,45.7068245 C45.6990659,43.3730645 47.595246,40.8934444 49.491426,38.1221043 C54.3048062,30.683244 56.6385663,23.0985237 56.6385663,15.5138034 C56.6385663,11.1380033 55.3258263,7.49150316 52.7003462,4.72016306 C50.3665861,1.65710294 47.303526,0.344362897 43.8028858,0.344362897 Z" id="Path"></path>
                            </g>
                        </g>
                    </g>
                </g>
            </g>
        </g>
    </g>
</svg>