<?xml version="1.0" encoding="UTF-8"?>
<svg width="324px" height="163px" viewBox="0 0 324 163" version="1.1" xmlns="http://www.w3.org/2000/svg" xmlns:xlink="http://www.w3.org/1999/xlink">
    <!-- Generator: Sketch 55.1 (78136) - https://sketchapp.com -->
    <title>Group 15@3x</title>
    <desc>Created with Sketch.</desc>
    <defs>
        <circle id="path-1" cx="25.5999985" cy="25.5999985" r="25.5999985"></circle>
        <filter x="-42.0%" y="-22.5%" width="184.0%" height="184.0%" filterUnits="objectBoundingBox" id="filter-2">
            <feOffset dx="0" dy="10" in="SourceAlpha" result="shadowOffsetOuter1"></feOffset>
            <feGaussianBlur stdDeviation="5.5" in="shadowOffsetOuter1" result="shadowBlurOuter1"></feGaussianBlur>
            <feColorMatrix values="0 0 0 0 0.610703656   0 0 0 0 0.610703656   0 0 0 0 0.610703656  0 0 0 0.25 0" type="matrix" in="shadowBlurOuter1"></feColorMatrix>
        </filter>
    </defs>
    <g id="Page-1" stroke="none" stroke-width="1" fill="none" fill-rule="evenodd">
        <g id="Ticket-Purchase-Successful" transform="translate(-673.000000, -297.000000)">
            <g id="Group-66">
                <g id="Group-17" transform="translate(460.000000, 255.000000)">
                    <g id="Group-16" transform="translate(148.000000, 43.000000)">
                        <g id="Group-15" transform="translate(76.000000, 0.000000)">
                            <g id="Group-13" transform="translate(20.000000, 20.000000)">
                                <path d="M292.78879,65.9618559 C286.429686,65.9618559 281.27304,60.8024121 281.27304,54.4359755 C281.27304,48.0707399 286.429686,42.912497 292.78879,42.912497 C292.860793,42.912497 292.929197,42.920904 293,42.9221049 L293,32.1096113 C292.929197,32.1096113 292.860793,32.1192192 292.78879,32.1192192 C286.429686,32.1192192 281.27304,26.9585744 281.27304,20.5933387 C281.27304,14.2269021 286.429686,9.06865929 292.78879,9.06865929 C292.860793,9.06865929 292.929197,9.07826719 293,9.07946818 L293,0 L0,0 L0,9.0674583 C6.36150396,9.0674583 11.5181504,14.2269021 11.5181504,20.5933387 C11.5181504,26.9585744 6.36150396,32.1180182 0,32.1180182 L0,42.912497 C6.36150396,42.912497 11.5181504,48.0707399 11.5181504,54.4359755 C11.5181504,60.8024121 6.36150396,65.9618559 0,65.9618559 L0,76.7527318 C6.36150396,76.7527318 11.5181504,81.9133766 11.5181504,88.2786123 C11.5181504,94.6450489 6.36150396,99.8044927 0,99.8044927 L0,110.59657 C6.36150396,110.59657 11.5181504,115.756013 11.5181504,122.123651 C11.5181504,128.488887 6.36150396,133.647129 0,133.647129 L0,142 L293,142 L293,133.637522 C292.929197,133.638723 292.860793,133.647129 292.78879,133.647129 C286.429686,133.647129 281.27304,128.488887 281.27304,122.123651 C281.27304,115.756013 286.429686,110.59657 292.78879,110.59657 C292.860793,110.59657 292.929197,110.606177 293,110.607378 L293,99.7936838 C292.929197,99.7948848 292.860793,99.8044927 292.78879,99.8044927 C286.429686,99.8044927 281.27304,94.6450489 281.27304,88.2798133 C281.27304,81.9133766 286.429686,76.7527318 292.78879,76.7527318 C292.860793,76.7527318 292.929197,76.7623397 293,76.7635407 L293,65.9510471 C292.929197,65.952248 292.860793,65.9618559 292.78879,65.9618559" id="Fill-71" fill="#F6F0E4"></path>
                                <g id="Group-24" transform="translate(68.000000, 43.000000)">
                                    <text id="Item.1" font-family="BebasNeue-Regular, Bebas Neue" font-size="30" font-weight="normal" fill="#F8633B">
                                        <tspan x="21" y="39">CONFERENCE</tspan>
                                    </text>
                                    <rect id="Rectangle" stroke="#F8633B" stroke-width="3" x="1.5" y="1.5" width="155" height="53"></rect>
                                </g>
                            </g>
                            <g id="Group-14">
                                <g id="Oval">
                                    <use fill="black" fill-opacity="1" filter="url(#filter-2)" xlink:href="#path-1"></use>
                                    <use fill="#F6BD3B" fill-rule="evenodd" xlink:href="#path-1"></use>
                                </g>
                                <polygon id="Path" fill="#FFFFFF" points="16 25.9453548 17.8995218 24.0238479 22.7600627 28.9123876 33.1789465 19 35.199999 21.0444443 24.6595845 30.8621519 22.5684207 32.799999 20.8326068 30.8621519"></polygon>
                            </g>
                        </g>
                    </g>
                </g>
            </g>
        </g>
    </g>
</svg>