<?xml version="1.0" encoding="UTF-8"?>
<svg width="55px" height="38px" viewBox="0 0 55 38" version="1.1" xmlns="http://www.w3.org/2000/svg" xmlns:xlink="http://www.w3.org/1999/xlink">
    <!-- Generator: Sketch 55.1 (78136) - https://sketchapp.com -->
    <title>visa</title>
    <desc>Created with Sketch.</desc>
    <g id="Page-1" stroke="none" stroke-width="1" fill="none" fill-rule="evenodd">
        <g id="Get-tickets" transform="translate(-1159.000000, -1240.000000)">
            <g id="Group-10" transform="translate(430.000000, 750.000000)">
                <g id="Group-8">
                    <g id="Group-7" transform="translate(0.000000, 480.000000)">
                        <g id="Group-2" transform="translate(719.000000, 0.000000)">
                            <g id="visa" transform="translate(10.000000, 10.000000)">
                                <g id="VIsa-card-ticket-page">
                                    <path d="M0,5.12484908 C0,2.29447309 2.29325853,3.55271368e-15 5.12487699,3.55271368e-15 L49.875123,3.55271368e-15 C52.7055144,3.55271368e-15 55,2.29149421 55,5.12484908 L55,32.8751509 C55,35.7055269 52.7067415,38 49.875123,38 L5.12487699,38 C2.29448559,38 0,35.7085058 0,32.8751509 L0,5.12484908 Z" id="visa-bg" fill="#224DBA"></path>
                                    <path d="M18.7392857,25.34448 L15.5162857,25.34448 L13.0994286,16.22448 C12.9847143,15.80496 12.7411429,15.43408 12.3828571,15.25928 C11.4887143,14.82 10.5034286,14.4704 9.42857143,14.29408 L9.42857143,13.94296 L14.6205714,13.94296 C15.3371429,13.94296 15.8745714,14.4704 15.9641429,15.08296 L17.2181429,21.66152 L20.4395714,13.94296 L23.573,13.94296 L18.7392857,25.34448 Z M25.3644286,25.34448 L22.3205714,25.34448 L24.827,13.94296 L27.8708571,13.94296 L25.3644286,25.34448 Z M31.8088571,17.10152 C31.8984286,16.48744 32.4358571,16.13632 33.0628571,16.13632 C34.0481429,16.04816 35.1214286,16.22448 36.0171429,16.66224 L36.5545714,14.20744 C35.6588571,13.85632 34.6735714,13.68 33.7794286,13.68 C30.8251429,13.68 28.6754286,15.25928 28.6754286,17.45112 C28.6754286,19.11856 30.1981429,19.99408 31.273,20.52152 C32.4358571,21.04744 32.8837143,21.39856 32.7941429,21.92448 C32.7941429,22.71336 31.8984286,23.06448 31.0042857,23.06448 C29.9294286,23.06448 28.8545714,22.80152 27.8708571,22.36224 L27.3334286,24.81856 C28.4082857,25.25632 29.5711429,25.43264 30.646,25.43264 C33.9585714,25.51928 36.0171429,23.94152 36.0171429,21.57336 C36.0171429,18.59112 31.8088571,18.41632 31.8088571,17.10152 L31.8088571,17.10152 Z M46.6698571,25.34448 L44.253,13.94296 L41.657,13.94296 C41.1195714,13.94296 40.5821429,14.29408 40.403,14.82 L35.9275714,25.34448 L39.061,25.34448 L39.6864286,23.67856 L43.5364286,23.67856 L43.8947143,25.34448 L46.6698571,25.34448 Z M42.1048571,17.01336 L42.999,21.3104 L40.4925714,21.3104 L42.1048571,17.01336 Z" id="visa-logo" fill="#FFFFFF"></path>
                                </g>
                            </g>
                        </g>
                    </g>
                </g>
            </g>
        </g>
    </g>
</svg>